M48
INCH,TZ
T1C0.016
T2C0.024
T3C0.039
T4C0.040
%
G90
G05
T1
X41969Y-28524
X42923Y-28120
X43346Y-28917
X43563Y-23130
X43632Y-26988
X43723Y-26620
X43740Y-26093
X44764Y-28937
X44823Y-27244
X45123Y-30520
X45246Y-24163
X45669Y-26693
X45837Y-22963
X46299Y-25079
X46358Y-23150
X46423Y-29120
X46594Y-28130
X46693Y-22618
X46693Y-23504
X46988Y-25472
X47156Y-27215
X47500Y-22736
X47500Y-24370
X47539Y-34646
X47623Y-29920
X47648Y-25600
X47785Y-26417
X47854Y-23435
X47923Y-32559
X48061Y-22766
X48061Y-37195
X48120Y-24518
X48346Y-24764
X48583Y-27628
X48750Y-23986
X48888Y-28356
X49035Y-26703
X49055Y-29606
X49075Y-26388
X49173Y-22953
X49252Y-30197
X49341Y-25217
X49449Y-30886
X49469Y-26693
X49537Y-37165
X49547Y-27146
X49606Y-34980
X49675Y-24931
X49675Y-25846
X49715Y-23780
X49783Y-31624
X49793Y-25285
X49941Y-23258
X50246Y-26870
X50266Y-30246
X50413Y-23415
X50423Y-26120
X50738Y-25246
X50748Y-23622
X50974Y-25531
X51112Y-27234
X51437Y-22805
X51467Y-28258
X51673Y-20148
X51673Y-21142
X51673Y-24311
X51713Y-28917
X51752Y-30758
X51850Y-27825
X51988Y-27539
X51998Y-21417
X52283Y-28996
X52461Y-27067
X52470Y-22490
X52490Y-26693
X52539Y-23110
X52766Y-26142
X52805Y-30797
X52835Y-31841
X52933Y-27923
X53248Y-23622
X53287Y-30118
X53327Y-20098
X54016Y-30098
X54242Y-31368
X54429Y-30374
X54636Y-24065
X54715Y-28268
X54882Y-20059
X54911Y-29488
X55167Y-26289
X55246Y-24931
X55561Y-26299
X55679Y-30177
X55699Y-23022
X55728Y-26998
X55738Y-20187
X55738Y-25118
X56014Y-23799
X56014Y-24675
X56299Y-26339
X56368Y-31486
X56388Y-29931
X56683Y-26919
X56713Y-25640
X56742Y-22234
X56850Y-26299
X56978Y-24272
X57077Y-25915
X57136Y-33711
X57283Y-34134
X57313Y-21703
X57648Y-32274
X57736Y-22943
X57992Y-31575
X57992Y-32904
X58543Y-33730
X58661Y-29636
X58740Y-24596
X58770Y-27795
X58967Y-22333
X59006Y-34154
X59114Y-26211
X59154Y-29006
X59213Y-27746
X59291Y-22618
X59370Y-33376
X59409Y-33711
X59469Y-29331
X59567Y-27392
X59665Y-25384
X59862Y-21949
X59970Y-22343
X60177Y-26762
X60384Y-29262
X60472Y-27303
X60886Y-35561
X60925Y-33691
X61516Y-25453
X61555Y-22687
X61624Y-32333
X61939Y-22008
X62195Y-20157
X62411Y-34616
X62559Y-28602
X62579Y-28140
X62598Y-32264
X62756Y-21604
X62756Y-24587
X63100Y-34744
X63140Y-25945
X63346Y-20157
X63583Y-24774
X63593Y-28642
X63681Y-20787
X63701Y-32224
X63878Y-33524
X64094Y-32323
X64114Y-24616
X64724Y-28907
X65118Y-21860
X65443Y-31191
X65846Y-31407
T2
X43494Y-30591
X43494Y-32165
X43494Y-33740
T3
X41821Y-29803
X41821Y-34528
X44183Y-29803
X44183Y-34528
T4
X52406Y-35823
X52406Y-36823
X52406Y-37823
X53406Y-35823
X53406Y-36823
X53406Y-37823
X54406Y-35823
X54406Y-36823
X54406Y-37823
X55406Y-35823
X55406Y-36823
X55406Y-37823
X56406Y-35823
X56406Y-36823
X56406Y-37823
X57406Y-35823
X57406Y-36823
X57406Y-37823
X58406Y-35823
X58406Y-36823
X58406Y-37823
T0
M30
