G04 #@! TF.FileFunction,Copper,L1,Top,Signal*
%FSLAX46Y46*%
G04 Gerber Fmt 4.6, Leading zero omitted, Abs format (unit mm)*
G04 Created by KiCad (PCBNEW 4.0.2-stable) date 5/22/2017 10:32:32 AM*
%MOMM*%
G01*
G04 APERTURE LIST*
%ADD10C,0.100000*%
%ADD11O,2.400000X1.100000*%
%ADD12R,1.100000X2.400000*%
%ADD13O,1.100000X2.400000*%
%ADD14R,0.700000X1.300000*%
%ADD15R,0.250000X1.300000*%
%ADD16R,1.300000X0.250000*%
%ADD17R,1.300000X0.700000*%
%ADD18R,0.850000X0.250000*%
%ADD19R,0.250000X0.850000*%
%ADD20R,1.800000X1.000000*%
%ADD21R,1.250000X1.000000*%
%ADD22R,1.060000X0.650000*%
%ADD23R,1.500000X3.400000*%
%ADD24R,1.000000X3.500000*%
%ADD25R,1.900000X1.800000*%
%ADD26R,1.350000X0.400000*%
%ADD27R,1.600000X2.100000*%
%ADD28R,1.200000X1.200000*%
%ADD29R,1.000000X5.500000*%
%ADD30R,1.600000X3.000000*%
%ADD31O,1.727200X2.032000*%
%ADD32R,2.000000X2.000000*%
%ADD33C,1.524000*%
%ADD34C,1.500000*%
%ADD35C,0.800000*%
%ADD36C,0.600000*%
%ADD37C,0.250000*%
%ADD38C,0.254000*%
G04 APERTURE END LIST*
D10*
D11*
X147025000Y-63440000D03*
X147025000Y-65440000D03*
X147025000Y-67440000D03*
X147025000Y-69440000D03*
X147025000Y-71440000D03*
X147025000Y-73440000D03*
D12*
X162775000Y-60450000D03*
D13*
X160775000Y-60450000D03*
X158775000Y-60450000D03*
X156775000Y-60450000D03*
X154775000Y-60450000D03*
X152775000Y-60450000D03*
X150775000Y-60450000D03*
X148775000Y-60450000D03*
X148775000Y-76450000D03*
X150775000Y-76450000D03*
X152775000Y-76450000D03*
X154775000Y-76450000D03*
X156775000Y-76450000D03*
X158775000Y-76450000D03*
X160775000Y-76450000D03*
X162775000Y-76450000D03*
D14*
X152825000Y-80275000D03*
X154725000Y-80275000D03*
D15*
X130000000Y-61900000D03*
X129500000Y-61900000D03*
X129000000Y-61900000D03*
X128500000Y-61900000D03*
X128000000Y-61900000D03*
X127500000Y-61900000D03*
X127000000Y-61900000D03*
X126500000Y-61900000D03*
X126000000Y-61900000D03*
X125500000Y-61900000D03*
X125000000Y-61900000D03*
X124500000Y-61900000D03*
D16*
X122900000Y-63500000D03*
X122900000Y-64000000D03*
X122900000Y-64500000D03*
X122900000Y-65000000D03*
X122900000Y-65500000D03*
X122900000Y-66000000D03*
X122900000Y-66500000D03*
X122900000Y-67000000D03*
X122900000Y-67500000D03*
X122900000Y-68000000D03*
X122900000Y-68500000D03*
X122900000Y-69000000D03*
D15*
X124500000Y-70600000D03*
X125000000Y-70600000D03*
X125500000Y-70600000D03*
X126000000Y-70600000D03*
X126500000Y-70600000D03*
X127000000Y-70600000D03*
X127500000Y-70600000D03*
X128000000Y-70600000D03*
X128500000Y-70600000D03*
X129000000Y-70600000D03*
X129500000Y-70600000D03*
X130000000Y-70600000D03*
D16*
X131600000Y-69000000D03*
X131600000Y-68500000D03*
X131600000Y-68000000D03*
X131600000Y-67500000D03*
X131600000Y-67000000D03*
X131600000Y-66500000D03*
X131600000Y-66000000D03*
X131600000Y-65500000D03*
X131600000Y-65000000D03*
X131600000Y-64500000D03*
X131600000Y-64000000D03*
X131600000Y-63500000D03*
D17*
X134500000Y-62800000D03*
X134500000Y-64700000D03*
X117500000Y-67050000D03*
X117500000Y-68950000D03*
X143500000Y-52550000D03*
X143500000Y-54450000D03*
X140250000Y-52550000D03*
X140250000Y-54450000D03*
D14*
X146550000Y-83500000D03*
X148450000Y-83500000D03*
X152700000Y-83500000D03*
X150800000Y-83500000D03*
D17*
X119438000Y-71490000D03*
X119438000Y-73390000D03*
X113250000Y-72450000D03*
X113250000Y-70550000D03*
D14*
X159575000Y-83575000D03*
X161475000Y-83575000D03*
D17*
X135250000Y-75200000D03*
X135250000Y-73300000D03*
X137500000Y-75200000D03*
X137500000Y-73300000D03*
D14*
X149100000Y-80275000D03*
X151000000Y-80275000D03*
X155550000Y-83500000D03*
X157450000Y-83500000D03*
X144450000Y-78650000D03*
X146350000Y-78650000D03*
D18*
X135525000Y-68000000D03*
X135525000Y-68500000D03*
X135525000Y-69000000D03*
X135525000Y-69500000D03*
X135525000Y-70000000D03*
D19*
X136500000Y-70475000D03*
X137000000Y-70475000D03*
X137500000Y-70475000D03*
D18*
X138475000Y-70000000D03*
X138475000Y-69500000D03*
X138475000Y-69000000D03*
X138475000Y-68500000D03*
X138475000Y-68000000D03*
D19*
X137500000Y-67525000D03*
X137000000Y-67525000D03*
X136500000Y-67525000D03*
D20*
X135250000Y-60000000D03*
X135250000Y-57500000D03*
D21*
X116390000Y-77504000D03*
X116390000Y-75504000D03*
D17*
X119850000Y-83650000D03*
X119850000Y-81750000D03*
D22*
X122750000Y-81750000D03*
X122750000Y-82700000D03*
X122750000Y-83650000D03*
X124950000Y-83650000D03*
X124950000Y-81750000D03*
D23*
X127100000Y-94450000D03*
D24*
X124750000Y-88900000D03*
X122750000Y-88900000D03*
D23*
X120400000Y-94450000D03*
D21*
X113342000Y-61534000D03*
X113342000Y-63534000D03*
D25*
X106485000Y-70731500D03*
X106485000Y-63131500D03*
X106485000Y-68081500D03*
D26*
X109160000Y-68231500D03*
X109160000Y-67581500D03*
X109160000Y-66931500D03*
X109160000Y-66281500D03*
X109160000Y-65631500D03*
D27*
X109035000Y-63831500D03*
X109035000Y-70031500D03*
D25*
X106485000Y-65781500D03*
D21*
X119438000Y-75250000D03*
X119438000Y-77250000D03*
X116390000Y-73440000D03*
X116390000Y-71440000D03*
D28*
X108700000Y-57700000D03*
X106500000Y-57700000D03*
X108700000Y-73450000D03*
X106500000Y-73450000D03*
X108700000Y-59950000D03*
X106500000Y-59950000D03*
D29*
X164100000Y-91825000D03*
X162100000Y-91825000D03*
X160100000Y-91825000D03*
X158100000Y-91825000D03*
X156100000Y-91825000D03*
D30*
X166500000Y-94075000D03*
X153700000Y-94075000D03*
D17*
X118600000Y-60250000D03*
X118600000Y-62150000D03*
X118600000Y-55000000D03*
X118600000Y-56900000D03*
D14*
X112400000Y-59450000D03*
X114300000Y-59450000D03*
D17*
X130600000Y-77150000D03*
X130600000Y-75250000D03*
X132850000Y-77150000D03*
X132850000Y-75250000D03*
D22*
X114600000Y-67950000D03*
X114600000Y-67000000D03*
X114600000Y-66050000D03*
X112400000Y-66050000D03*
X112400000Y-67950000D03*
D31*
X133110000Y-96070000D03*
X135650000Y-96070000D03*
X138190000Y-96070000D03*
X140730000Y-96070000D03*
X143270000Y-96070000D03*
X145810000Y-96070000D03*
X148350000Y-96070000D03*
X148350000Y-93530000D03*
X145810000Y-93530000D03*
X143270000Y-93530000D03*
X140730000Y-93530000D03*
X138190000Y-93530000D03*
X135650000Y-93530000D03*
X133110000Y-93530000D03*
X133110000Y-90990000D03*
X135650000Y-90990000D03*
X138190000Y-90990000D03*
X140730000Y-90990000D03*
X143270000Y-90990000D03*
X145810000Y-90990000D03*
X148350000Y-90990000D03*
D32*
X124385000Y-57050000D03*
X126671000Y-57050000D03*
X128957000Y-57050000D03*
X131243000Y-57050000D03*
D33*
X164194000Y-80275000D03*
X161908000Y-80275000D03*
X159622000Y-80275000D03*
X157336000Y-80275000D03*
D21*
X144125000Y-58075000D03*
X144125000Y-60075000D03*
D34*
X106225000Y-75700000D03*
X106225000Y-87700000D03*
X112225000Y-87700000D03*
X112225000Y-75700000D03*
D35*
X110475000Y-85700000D03*
X110475000Y-81700000D03*
X110475000Y-77700000D03*
D29*
X153750000Y-54800000D03*
X155750000Y-54800000D03*
X157750000Y-54800000D03*
X159750000Y-54800000D03*
X161750000Y-54800000D03*
X163750000Y-54800000D03*
D30*
X151350000Y-52550000D03*
X166150000Y-52550000D03*
D36*
X131250000Y-53700000D03*
X138775000Y-61125000D03*
X165400000Y-55525000D03*
X154650000Y-90325000D03*
X149000000Y-75275000D03*
X130650000Y-57925000D03*
X126850000Y-59075000D03*
X145575000Y-55125000D03*
X140325000Y-63325000D03*
X144125000Y-56475000D03*
X131250000Y-51175000D03*
X143225000Y-76025000D03*
X138250000Y-77150000D03*
X135350000Y-76500000D03*
X134450000Y-70925000D03*
X138975000Y-71800000D03*
X129825000Y-69175000D03*
X132800000Y-73650000D03*
X125650000Y-67800000D03*
X143175000Y-79975000D03*
X160900000Y-51200000D03*
X157975000Y-51200000D03*
X141575000Y-51275000D03*
X150800000Y-84775000D03*
X116425000Y-58325000D03*
X114925000Y-61375000D03*
X121725000Y-82700000D03*
X126000000Y-88850000D03*
X125825000Y-94400000D03*
X122075000Y-94475000D03*
X109024000Y-71424000D03*
X114612000Y-77520000D03*
X117914000Y-73964000D03*
X120962000Y-75996000D03*
X116000000Y-67800000D03*
X113700000Y-73500000D03*
X145500000Y-86700000D03*
X134025000Y-66400000D03*
X151050000Y-74500000D03*
X152850000Y-67975000D03*
X110650000Y-58750000D03*
X110825000Y-68550000D03*
X147300000Y-83575000D03*
X149875000Y-86750000D03*
X120650000Y-57750000D03*
X120650000Y-61900000D03*
X131450000Y-78125000D03*
X134200000Y-80875000D03*
X137200000Y-76450000D03*
X131700000Y-70675000D03*
X129475000Y-64850000D03*
X126475000Y-64225000D03*
X117600000Y-63700000D03*
X119350000Y-64700000D03*
X120750000Y-88000000D03*
X119775000Y-69125000D03*
X135250000Y-60000000D03*
X131250000Y-61750000D03*
X133450000Y-58700000D03*
X128900000Y-60000000D03*
X113850000Y-69200000D03*
X106600000Y-72450000D03*
X111056000Y-67614000D03*
X128074000Y-66344000D03*
X111100000Y-66275000D03*
X126175000Y-65650000D03*
X131350000Y-73450000D03*
X130725000Y-71775000D03*
X158900000Y-72650000D03*
X141550000Y-68575000D03*
X134125000Y-78225000D03*
X124550000Y-67825000D03*
X157325000Y-55900000D03*
X152325000Y-56750000D03*
X150600000Y-57450000D03*
X156250000Y-64650000D03*
X159400000Y-54875000D03*
X152050000Y-55750000D03*
X149775000Y-56725000D03*
X149200000Y-62475000D03*
X149275000Y-70600000D03*
X143975000Y-68375000D03*
X143000000Y-66900000D03*
X141125000Y-66800000D03*
X139475000Y-74900000D03*
X137775000Y-79675000D03*
X127675000Y-76825000D03*
X121375000Y-67100000D03*
X156350000Y-57625000D03*
X161500000Y-62925000D03*
X160375000Y-65900000D03*
X124650000Y-67025000D03*
X153600000Y-69350000D03*
X151300000Y-69575000D03*
X124900000Y-58300000D03*
X125325000Y-64050000D03*
X153375000Y-74325000D03*
X133325000Y-67800000D03*
X133250000Y-68750000D03*
X150250000Y-73675000D03*
X132050000Y-69950000D03*
X161800000Y-81850000D03*
X162800000Y-82100000D03*
X162850000Y-62525000D03*
X159000000Y-81950000D03*
X159400000Y-62450000D03*
X125850000Y-68950000D03*
X123400000Y-70175000D03*
X124175000Y-72025000D03*
X124600000Y-75200000D03*
X125100000Y-76700000D03*
X125600000Y-78450000D03*
X126450000Y-80325000D03*
X146650000Y-58275000D03*
X142275000Y-62675000D03*
X141425000Y-76650000D03*
X146425000Y-81975000D03*
X118350000Y-71450000D03*
X110100000Y-73450000D03*
X139400000Y-50950000D03*
X133275000Y-57125000D03*
X128050000Y-59475000D03*
X162250000Y-85150000D03*
X164400000Y-73425000D03*
X117750000Y-58800000D03*
X121550000Y-59525000D03*
X122225000Y-62275000D03*
X160275000Y-88250000D03*
X167250000Y-79775000D03*
X158525000Y-87925000D03*
X166225000Y-79225000D03*
X161525000Y-72750000D03*
X121025000Y-65025000D03*
X118600000Y-59700000D03*
X118600000Y-57450000D03*
X147300000Y-80200000D03*
X144400000Y-66800000D03*
X126175000Y-63325000D03*
X126275000Y-60400000D03*
X158950000Y-71475000D03*
X151550000Y-64475000D03*
X144975000Y-65825000D03*
X142275000Y-60450000D03*
X123825000Y-60925000D03*
X150400000Y-70475000D03*
X122800000Y-62900000D03*
X141475000Y-58475000D03*
X144050000Y-65125000D03*
X150150000Y-66575000D03*
X127625000Y-68250000D03*
X145125000Y-85625000D03*
X148700000Y-85675000D03*
X150900000Y-85625000D03*
X154750000Y-85575000D03*
X156525000Y-82125000D03*
X128875000Y-64125000D03*
X140125000Y-66775000D03*
X141575000Y-63800000D03*
X144725000Y-61650000D03*
X161750000Y-52800000D03*
X135450000Y-51050000D03*
X132075000Y-54400000D03*
X122075000Y-57825000D03*
D37*
X131250000Y-53700000D02*
X131250000Y-51175000D01*
X134500000Y-62800000D02*
X137100000Y-62800000D01*
X137100000Y-62800000D02*
X138775000Y-61125000D01*
X163750000Y-54800000D02*
X164675000Y-54800000D01*
X164675000Y-54800000D02*
X165400000Y-55525000D01*
X156100000Y-91825000D02*
X156100000Y-91775000D01*
X156100000Y-91775000D02*
X154650000Y-90325000D01*
X149000000Y-75275000D02*
X148775000Y-75500000D01*
X148775000Y-75500000D02*
X148775000Y-76450000D01*
X128000000Y-61900000D02*
X128000000Y-61125000D01*
X130650000Y-57925000D02*
X131243000Y-57332000D01*
X126850000Y-59275000D02*
X126850000Y-59075000D01*
X127525000Y-59950000D02*
X126850000Y-59275000D01*
X127525000Y-60650000D02*
X127525000Y-59950000D01*
X128000000Y-61125000D02*
X127525000Y-60650000D01*
X131243000Y-57332000D02*
X131243000Y-57050000D01*
X143500000Y-52550000D02*
X144875000Y-52550000D01*
X144875000Y-52550000D02*
X145575000Y-53250000D01*
X145575000Y-53250000D02*
X145575000Y-55125000D01*
X139887500Y-69037500D02*
X139887500Y-67862500D01*
X139887500Y-67862500D02*
X139100000Y-67075000D01*
X139100000Y-67075000D02*
X139100000Y-64550000D01*
X139100000Y-64550000D02*
X140325000Y-63325000D01*
X144125000Y-58075000D02*
X144125000Y-56475000D01*
X131243000Y-57050000D02*
X131243000Y-51182000D01*
X131243000Y-51182000D02*
X131250000Y-51175000D01*
X148775000Y-76450000D02*
X145525000Y-76450000D01*
X144450000Y-77525000D02*
X144450000Y-78650000D01*
X145525000Y-76450000D02*
X144450000Y-77525000D01*
X148775000Y-76450000D02*
X143650000Y-76450000D01*
X143650000Y-76450000D02*
X143225000Y-76025000D01*
X138975000Y-71800000D02*
X138775000Y-72000000D01*
X138775000Y-76625000D02*
X138775000Y-72000000D01*
X138775000Y-76625000D02*
X138250000Y-77150000D01*
X135250000Y-75200000D02*
X135250000Y-76300000D01*
X135250000Y-76300000D02*
X135350000Y-76400000D01*
X135350000Y-76400000D02*
X135350000Y-76500000D01*
X135525000Y-70000000D02*
X135525000Y-70600000D01*
X135200000Y-70925000D02*
X134450000Y-70925000D01*
X135525000Y-70600000D02*
X135200000Y-70925000D01*
X139900000Y-70875000D02*
X139900000Y-69800000D01*
X139900000Y-70875000D02*
X138975000Y-71800000D01*
X131243000Y-57432000D02*
X131243000Y-57050000D01*
X129500000Y-70600000D02*
X129500000Y-69500000D01*
X129500000Y-69500000D02*
X129825000Y-69175000D01*
X117500000Y-68950000D02*
X117150000Y-68950000D01*
X117150000Y-68950000D02*
X116000000Y-67800000D01*
X138475000Y-69500000D02*
X139600000Y-69500000D01*
X139600000Y-69500000D02*
X139900000Y-69800000D01*
X138475000Y-68500000D02*
X139350000Y-68500000D01*
X139350000Y-68500000D02*
X139887500Y-69037500D01*
X139887500Y-69037500D02*
X139900000Y-69050000D01*
X139900000Y-69050000D02*
X139900000Y-69800000D01*
X128000000Y-61900000D02*
X128000000Y-64450000D01*
X130050000Y-66500000D02*
X131600000Y-66500000D01*
X128000000Y-64450000D02*
X130050000Y-66500000D01*
X122900000Y-66000000D02*
X124550000Y-66000000D01*
X125650000Y-67100000D02*
X125650000Y-67800000D01*
X124550000Y-66000000D02*
X125650000Y-67100000D01*
X144450000Y-78650000D02*
X144450000Y-78700000D01*
X144450000Y-78700000D02*
X143175000Y-79975000D01*
X140250000Y-52550000D02*
X140300000Y-52550000D01*
X140300000Y-52550000D02*
X141575000Y-51275000D01*
X157975000Y-51200000D02*
X160900000Y-51200000D01*
X131243000Y-58493000D02*
X131243000Y-57050000D01*
X134500000Y-61750000D02*
X131243000Y-58493000D01*
X134500000Y-62800000D02*
X134500000Y-61750000D01*
X135525000Y-70000000D02*
X135300000Y-70000000D01*
X150800000Y-83500000D02*
X150800000Y-84775000D01*
X113342000Y-61534000D02*
X114766000Y-61534000D01*
X117625000Y-55000000D02*
X118600000Y-55000000D01*
X116825000Y-55800000D02*
X117625000Y-55000000D01*
X116825000Y-57925000D02*
X116825000Y-55800000D01*
X116425000Y-58325000D02*
X116825000Y-57925000D01*
X114766000Y-61534000D02*
X114925000Y-61375000D01*
X122750000Y-82700000D02*
X121725000Y-82700000D01*
X124750000Y-88900000D02*
X125950000Y-88900000D01*
X125950000Y-88900000D02*
X126000000Y-88850000D01*
X127100000Y-94450000D02*
X125875000Y-94450000D01*
X125875000Y-94450000D02*
X125825000Y-94400000D01*
X120400000Y-94450000D02*
X122050000Y-94450000D01*
X122050000Y-94450000D02*
X122075000Y-94475000D01*
X140250000Y-52550000D02*
X143500000Y-52550000D01*
X106500000Y-59950000D02*
X106500000Y-63116500D01*
X106500000Y-63116500D02*
X106485000Y-63131500D01*
X109160000Y-68231500D02*
X106635000Y-68231500D01*
X106635000Y-68231500D02*
X106485000Y-68081500D01*
X106485000Y-65781500D02*
X106485000Y-68081500D01*
X106485000Y-63131500D02*
X106485000Y-65781500D01*
X109035000Y-70031500D02*
X109035000Y-71413000D01*
X109035000Y-71413000D02*
X109024000Y-71424000D01*
X106485000Y-70731500D02*
X106485000Y-68081500D01*
X116390000Y-77504000D02*
X114628000Y-77504000D01*
X114628000Y-77504000D02*
X114612000Y-77520000D01*
X116390000Y-73390000D02*
X117340000Y-73390000D01*
X117340000Y-73390000D02*
X117914000Y-73964000D01*
X119438000Y-75300000D02*
X120266000Y-75300000D01*
X120266000Y-75300000D02*
X120962000Y-75996000D01*
X114600000Y-67000000D02*
X115400000Y-67000000D01*
X116000000Y-67600000D02*
X116000000Y-67800000D01*
X115400000Y-67000000D02*
X116000000Y-67600000D01*
X109160000Y-70062500D02*
X109035000Y-70187500D01*
X109035000Y-70187500D02*
X107185000Y-70187500D01*
X107185000Y-70187500D02*
X106485000Y-70887500D01*
X106635000Y-68387500D02*
X106485000Y-68237500D01*
X109035000Y-63987500D02*
X107185000Y-63987500D01*
X107185000Y-63987500D02*
X106485000Y-63287500D01*
X111472500Y-61550000D02*
X109035000Y-63987500D01*
X113250000Y-72450000D02*
X113250000Y-73050000D01*
X113250000Y-73050000D02*
X113700000Y-73500000D01*
X150800000Y-83500000D02*
X148450000Y-83500000D01*
X148450000Y-83500000D02*
X147900000Y-84050000D01*
X147900000Y-84050000D02*
X147900000Y-84300000D01*
X147900000Y-84300000D02*
X145500000Y-86700000D01*
X113250000Y-61550000D02*
X111472500Y-61550000D01*
X137500000Y-67525000D02*
X137500000Y-66350000D01*
X108700000Y-57700000D02*
X109600000Y-57700000D01*
X109600000Y-57700000D02*
X110650000Y-58750000D01*
X149100000Y-80275000D02*
X148675000Y-80275000D01*
X145425000Y-82375000D02*
X146550000Y-83500000D01*
X145425000Y-81850000D02*
X145425000Y-82375000D01*
X146225000Y-81050000D02*
X145425000Y-81850000D01*
X147900000Y-81050000D02*
X146225000Y-81050000D01*
X148675000Y-80275000D02*
X147900000Y-81050000D01*
X146550000Y-83500000D02*
X147225000Y-83500000D01*
X147225000Y-83500000D02*
X147300000Y-83575000D01*
X122900000Y-65500000D02*
X121750000Y-65500000D01*
X120100000Y-62450000D02*
X120650000Y-61900000D01*
X120100000Y-65425000D02*
X120100000Y-62450000D01*
X120675000Y-66000000D02*
X120100000Y-65425000D01*
X121250000Y-66000000D02*
X120675000Y-66000000D01*
X121750000Y-65500000D02*
X121250000Y-66000000D01*
X130600000Y-77150000D02*
X130600000Y-77275000D01*
X130600000Y-77275000D02*
X131450000Y-78125000D01*
X130000000Y-70600000D02*
X131325000Y-70600000D01*
X131325000Y-70600000D02*
X131700000Y-70675000D01*
X149100000Y-80275000D02*
X149100000Y-80325000D01*
X127500000Y-61900000D02*
X127500000Y-63200000D01*
X130174998Y-65549998D02*
X131600000Y-65549998D01*
X129475000Y-64850000D02*
X130174998Y-65549998D01*
X127500000Y-63200000D02*
X126475000Y-64225000D01*
X131600000Y-65549998D02*
X131600000Y-65500000D01*
X135500000Y-67975000D02*
X135525000Y-68000000D01*
X116390000Y-75504000D02*
X115390000Y-75504000D01*
X115390000Y-75504000D02*
X114866000Y-74980000D01*
X135525000Y-68000000D02*
X135525000Y-67425000D01*
X135525000Y-67425000D02*
X135500000Y-67400000D01*
X152700000Y-83500000D02*
X155550000Y-83500000D01*
X155550000Y-83500000D02*
X155550000Y-83850000D01*
X134500000Y-64700000D02*
X134500000Y-64750000D01*
X134500000Y-64750000D02*
X133250000Y-66000000D01*
X133250000Y-66000000D02*
X131600000Y-66000000D01*
X119438000Y-73390000D02*
X120410000Y-73390000D01*
X117434000Y-63534000D02*
X113342000Y-63534000D01*
X117600000Y-63700000D02*
X117434000Y-63534000D01*
X119350000Y-66200000D02*
X119350000Y-64700000D01*
X121100000Y-67950000D02*
X119350000Y-66200000D01*
X121100000Y-72700000D02*
X121100000Y-67950000D01*
X120410000Y-73390000D02*
X121100000Y-72700000D01*
X112400000Y-66050000D02*
X112286000Y-66050000D01*
X112286000Y-66050000D02*
X111867500Y-65631500D01*
X111867500Y-65631500D02*
X109160000Y-65631500D01*
X112400000Y-64300000D02*
X113250000Y-63450000D01*
X112400000Y-66050000D02*
X112400000Y-64300000D01*
X112137500Y-65787500D02*
X112400000Y-66050000D01*
X121650000Y-88900000D02*
X122750000Y-88900000D01*
X120750000Y-88000000D02*
X121650000Y-88900000D01*
X117500000Y-67050000D02*
X118750000Y-67050000D01*
X119775000Y-68075000D02*
X119775000Y-69125000D01*
X118750000Y-67050000D02*
X119775000Y-68075000D01*
X118600000Y-62150000D02*
X118600000Y-65950000D01*
X118600000Y-65950000D02*
X117500000Y-67050000D01*
X117500000Y-67050000D02*
X117500000Y-66438000D01*
X117500000Y-66438000D02*
X117112000Y-66050000D01*
X117112000Y-66050000D02*
X114600000Y-66050000D01*
X135250000Y-60000000D02*
X135500000Y-60000000D01*
X135500000Y-60000000D02*
X139500000Y-56000000D01*
X141950000Y-56000000D02*
X143500000Y-54450000D01*
X139500000Y-56000000D02*
X141950000Y-56000000D01*
X130000000Y-61900000D02*
X131100000Y-61900000D01*
X131250000Y-61750000D02*
X131100000Y-61900000D01*
X135250000Y-57500000D02*
X135300000Y-57500000D01*
X135300000Y-57500000D02*
X138350000Y-54450000D01*
X138350000Y-54450000D02*
X140250000Y-54450000D01*
X129500000Y-61900000D02*
X129500000Y-60600000D01*
X133450000Y-58700000D02*
X134650000Y-57500000D01*
X129500000Y-60600000D02*
X128900000Y-60000000D01*
X134650000Y-57500000D02*
X135250000Y-57500000D01*
X106500000Y-73450000D02*
X106500000Y-72550000D01*
X114600000Y-68450000D02*
X114600000Y-67950000D01*
X113850000Y-69200000D02*
X114600000Y-68450000D01*
X106500000Y-72550000D02*
X106600000Y-72450000D01*
X129000000Y-70600000D02*
X129000000Y-67270000D01*
X110373500Y-66931500D02*
X109160000Y-66931500D01*
X111056000Y-67614000D02*
X110373500Y-66931500D01*
X129000000Y-67270000D02*
X128074000Y-66344000D01*
X128500000Y-70600000D02*
X128500000Y-67975000D01*
X111093500Y-66281500D02*
X109160000Y-66281500D01*
X111100000Y-66275000D02*
X111093500Y-66281500D01*
X128500000Y-67975000D02*
X126175000Y-65650000D01*
X132850000Y-75250000D02*
X132850000Y-74950000D01*
X132850000Y-74950000D02*
X131350000Y-73450000D01*
X130725000Y-71775000D02*
X130550000Y-72000000D01*
X130550000Y-72000000D02*
X128250000Y-72000000D01*
X128250000Y-72000000D02*
X128000000Y-71750000D01*
X128000000Y-71750000D02*
X128000000Y-70600000D01*
X128000000Y-70600000D02*
X128000000Y-71750000D01*
X134000000Y-69500000D02*
X135525000Y-69500000D01*
X131500000Y-72000000D02*
X134000000Y-69500000D01*
X128250000Y-72000000D02*
X131500000Y-72000000D01*
X128000000Y-71750000D02*
X128250000Y-72000000D01*
X130600000Y-75250000D02*
X130600000Y-75200000D01*
X130600000Y-75200000D02*
X127500000Y-72100000D01*
X127500000Y-72100000D02*
X127500000Y-70600000D01*
X127500000Y-70600000D02*
X127500000Y-72000000D01*
X135475000Y-71500000D02*
X136500000Y-70475000D01*
X133154000Y-71678000D02*
X135475000Y-71500000D01*
X132646000Y-72440000D02*
X133154000Y-71678000D01*
X128000000Y-72500000D02*
X132646000Y-72440000D01*
X127500000Y-72000000D02*
X128000000Y-72500000D01*
X141550000Y-71775000D02*
X141550000Y-68575000D01*
X140275000Y-73050000D02*
X141550000Y-71775000D01*
X140275000Y-76350000D02*
X140275000Y-73050000D01*
X138400000Y-78225000D02*
X140275000Y-76350000D01*
X134125000Y-78225000D02*
X138400000Y-78225000D01*
X124225000Y-67500000D02*
X124550000Y-67825000D01*
X122900000Y-67500000D02*
X124225000Y-67500000D01*
X158975000Y-72575000D02*
X159675000Y-72575000D01*
X158900000Y-72650000D02*
X158975000Y-72575000D01*
X159675000Y-72575000D02*
X160800000Y-71450000D01*
X160800000Y-71450000D02*
X160800000Y-69200000D01*
X160800000Y-69200000D02*
X156250000Y-64650000D01*
X157325000Y-55900000D02*
X157850000Y-55375000D01*
X151300000Y-56750000D02*
X152325000Y-56750000D01*
X150600000Y-57450000D02*
X151300000Y-56750000D01*
X157850000Y-55375000D02*
X157850000Y-54850000D01*
X159400000Y-54875000D02*
X159425000Y-54850000D01*
X150750000Y-55750000D02*
X152050000Y-55750000D01*
X149775000Y-56725000D02*
X150750000Y-55750000D01*
X149200000Y-70525000D02*
X149200000Y-62475000D01*
X149275000Y-70600000D02*
X149200000Y-70525000D01*
X159425000Y-54850000D02*
X159850000Y-54850000D01*
X159850000Y-55600000D02*
X159850000Y-54850000D01*
X159850000Y-55525000D02*
X159850000Y-54850000D01*
X159850000Y-55425000D02*
X159850000Y-54850000D01*
X143975000Y-67875000D02*
X143975000Y-68375000D01*
X143000000Y-66900000D02*
X143975000Y-67875000D01*
X140825000Y-67100000D02*
X141125000Y-66800000D01*
X140825000Y-71275000D02*
X140825000Y-67100000D01*
X139575000Y-72525000D02*
X140825000Y-71275000D01*
X139575000Y-74800000D02*
X139575000Y-72525000D01*
X139475000Y-74900000D02*
X139575000Y-74800000D01*
X129250000Y-79675000D02*
X137775000Y-79675000D01*
X128075000Y-78500000D02*
X129250000Y-79675000D01*
X128075000Y-77225000D02*
X128075000Y-78500000D01*
X127675000Y-76825000D02*
X128075000Y-77225000D01*
X121975000Y-66500000D02*
X121375000Y-67100000D01*
X122900000Y-66500000D02*
X121975000Y-66500000D01*
X156350000Y-57625000D02*
X155850000Y-57125000D01*
X161500000Y-64775000D02*
X161500000Y-62925000D01*
X160375000Y-65900000D02*
X161500000Y-64775000D01*
X155850000Y-57125000D02*
X155850000Y-54850000D01*
X155850000Y-57100000D02*
X155850000Y-54850000D01*
X124625000Y-67000000D02*
X124650000Y-67025000D01*
X122900000Y-67000000D02*
X124625000Y-67000000D01*
X151525000Y-69350000D02*
X153600000Y-69350000D01*
X151300000Y-69575000D02*
X151525000Y-69350000D01*
X131600000Y-67500000D02*
X130200000Y-67500000D01*
X124900000Y-58300000D02*
X124385000Y-57785000D01*
X126250000Y-64975000D02*
X125325000Y-64050000D01*
X126500000Y-64975000D02*
X126250000Y-64975000D01*
X127025000Y-65500000D02*
X126500000Y-64975000D01*
X128200000Y-65500000D02*
X127025000Y-65500000D01*
X130200000Y-67500000D02*
X128200000Y-65500000D01*
X124385000Y-57785000D02*
X124385000Y-57050000D01*
X133025000Y-67500000D02*
X131600000Y-67500000D01*
X124385000Y-57810000D02*
X124385000Y-57050000D01*
X156775000Y-76450000D02*
X156775000Y-75550000D01*
X156775000Y-75550000D02*
X155550000Y-74325000D01*
X155550000Y-74325000D02*
X153375000Y-74325000D01*
X133325000Y-67800000D02*
X133025000Y-67500000D01*
X126671000Y-57050000D02*
X126671000Y-57646000D01*
X126671000Y-57646000D02*
X127575000Y-58550000D01*
X130500000Y-65000000D02*
X131600000Y-65000000D01*
X130275000Y-64775000D02*
X130500000Y-65000000D01*
X130275000Y-63250000D02*
X130275000Y-64775000D01*
X130850000Y-62675000D02*
X130275000Y-63250000D01*
X131575000Y-62675000D02*
X130850000Y-62675000D01*
X132050000Y-62200000D02*
X131575000Y-62675000D01*
X132050000Y-61250000D02*
X132050000Y-62200000D01*
X131575000Y-60775000D02*
X132050000Y-61250000D01*
X130725000Y-60775000D02*
X131575000Y-60775000D01*
X128500000Y-58550000D02*
X130725000Y-60775000D01*
X127575000Y-58550000D02*
X128500000Y-58550000D01*
X126671000Y-57896000D02*
X126671000Y-57050000D01*
X125790000Y-57500000D02*
X126000000Y-57500000D01*
X131600000Y-64500000D02*
X132675000Y-64500000D01*
X130675000Y-59725000D02*
X128957000Y-58007000D01*
X131650000Y-59725000D02*
X130675000Y-59725000D01*
X133050000Y-61125000D02*
X131650000Y-59725000D01*
X133050000Y-64125000D02*
X133050000Y-61125000D01*
X132675000Y-64500000D02*
X133050000Y-64125000D01*
X128957000Y-58007000D02*
X128957000Y-57050000D01*
X128330000Y-57500000D02*
X128330000Y-57580000D01*
X133000000Y-68500000D02*
X131600000Y-68500000D01*
X133250000Y-68750000D02*
X133000000Y-68500000D01*
X162775000Y-78856000D02*
X164194000Y-80275000D01*
X162775000Y-76450000D02*
X162775000Y-75075000D01*
X162775000Y-75075000D02*
X161375000Y-73675000D01*
X162775000Y-75425000D02*
X162775000Y-76450000D01*
X162775000Y-76450000D02*
X162775000Y-78856000D01*
X161375000Y-73675000D02*
X150250000Y-73675000D01*
X161908000Y-80275000D02*
X161908000Y-81742000D01*
X131600000Y-69500000D02*
X131600000Y-69000000D01*
X132050000Y-69950000D02*
X131600000Y-69500000D01*
X161908000Y-81742000D02*
X161800000Y-81850000D01*
X160775000Y-79142000D02*
X161908000Y-80275000D01*
X132000000Y-69000000D02*
X131600000Y-69000000D01*
X132100000Y-69000000D02*
X131600000Y-69000000D01*
X160775000Y-76450000D02*
X160775000Y-79142000D01*
X162800000Y-82100000D02*
X161475000Y-83425000D01*
X161475000Y-83425000D02*
X161475000Y-83575000D01*
X159622000Y-80275000D02*
X159622000Y-80772000D01*
X159622000Y-80772000D02*
X161475000Y-82625000D01*
X161475000Y-82625000D02*
X161475000Y-83575000D01*
X162775000Y-60450000D02*
X162775000Y-62450000D01*
X162775000Y-62450000D02*
X162850000Y-62525000D01*
X154775000Y-76450000D02*
X154775000Y-80225000D01*
X154775000Y-80225000D02*
X154725000Y-80275000D01*
X154725000Y-80275000D02*
X157336000Y-80275000D01*
X112400000Y-67950000D02*
X112400000Y-69700000D01*
X112400000Y-69700000D02*
X113250000Y-70550000D01*
X137000000Y-70475000D02*
X137000000Y-71400000D01*
X137000000Y-71400000D02*
X135250000Y-73150000D01*
X135250000Y-73150000D02*
X135250000Y-73300000D01*
X137500000Y-73300000D02*
X137500000Y-70475000D01*
X152775000Y-77900000D02*
X151000000Y-79675000D01*
X151000000Y-79675000D02*
X151000000Y-80275000D01*
X152775000Y-76450000D02*
X152775000Y-77900000D01*
X159000000Y-81950000D02*
X157450000Y-83500000D01*
X159400000Y-62425000D02*
X159400000Y-62450000D01*
X157500000Y-83500000D02*
X157450000Y-83500000D01*
X158775000Y-60450000D02*
X158775000Y-61800000D01*
X158775000Y-61800000D02*
X159400000Y-62425000D01*
X150775000Y-76450000D02*
X150775000Y-77950000D01*
X150775000Y-77950000D02*
X150500000Y-78225000D01*
X146775000Y-78225000D02*
X146350000Y-78650000D01*
X150500000Y-78225000D02*
X146775000Y-78225000D01*
X122900000Y-68500000D02*
X125400000Y-68500000D01*
X125400000Y-68500000D02*
X125850000Y-68950000D01*
X122900000Y-69000000D02*
X122900000Y-69675000D01*
X122900000Y-69675000D02*
X123400000Y-70175000D01*
X124500000Y-70600000D02*
X124500000Y-71700000D01*
X124500000Y-71700000D02*
X124175000Y-72025000D01*
X125000000Y-70600000D02*
X125000000Y-74800000D01*
X125000000Y-74800000D02*
X124600000Y-75200000D01*
X125500000Y-70600000D02*
X125500000Y-76300000D01*
X125500000Y-76300000D02*
X125100000Y-76700000D01*
X126000000Y-70600000D02*
X126000000Y-78050000D01*
X126000000Y-78050000D02*
X125600000Y-78450000D01*
X126500000Y-70600000D02*
X126500000Y-80275000D01*
X126500000Y-80275000D02*
X126450000Y-80325000D01*
X146750000Y-65000000D02*
X146000000Y-65000000D01*
X122750000Y-83650000D02*
X119850000Y-83650000D01*
X152825000Y-80275000D02*
X152825000Y-81250000D01*
X106500000Y-54075000D02*
X106500000Y-57700000D01*
X110300000Y-50275000D02*
X106500000Y-54075000D01*
X144925000Y-50275000D02*
X110300000Y-50275000D01*
X147250000Y-52600000D02*
X144925000Y-50275000D01*
X147250000Y-57675000D02*
X147250000Y-52600000D01*
X146650000Y-58275000D02*
X147250000Y-57675000D01*
X142275000Y-74000000D02*
X142275000Y-62675000D01*
X141525000Y-74750000D02*
X142275000Y-74000000D01*
X141525000Y-76550000D02*
X141525000Y-74750000D01*
X141425000Y-76650000D02*
X141525000Y-76550000D01*
X152100000Y-81975000D02*
X146425000Y-81975000D01*
X152825000Y-81250000D02*
X152100000Y-81975000D01*
X108700000Y-73450000D02*
X110100000Y-73450000D01*
X118390000Y-71490000D02*
X119438000Y-71490000D01*
X118350000Y-71450000D02*
X118390000Y-71490000D01*
X108700000Y-59950000D02*
X111900000Y-59950000D01*
X111900000Y-59950000D02*
X112400000Y-59450000D01*
X139400000Y-51000000D02*
X139400000Y-50950000D01*
X133275000Y-57125000D02*
X139400000Y-51000000D01*
X128050000Y-60324996D02*
X128050000Y-59475000D01*
X128450004Y-60725000D02*
X128050000Y-60324996D01*
X128700000Y-60725000D02*
X128450004Y-60725000D01*
X129000000Y-61025000D02*
X128700000Y-60725000D01*
X162250000Y-85150000D02*
X162100000Y-85300000D01*
X129000000Y-61900000D02*
X129000000Y-61025000D01*
X162100000Y-85300000D02*
X162100000Y-91825000D01*
X165200000Y-76925000D02*
X167250000Y-78975000D01*
X165200000Y-74225000D02*
X165200000Y-76925000D01*
X164400000Y-73425000D02*
X165200000Y-74225000D01*
X120825000Y-58800000D02*
X117750000Y-58800000D01*
X121550000Y-59525000D02*
X120825000Y-58800000D01*
X122225000Y-62375000D02*
X122225000Y-62275000D01*
X121550000Y-63050000D02*
X122225000Y-62375000D01*
X121550000Y-64050000D02*
X121550000Y-63050000D01*
X122900000Y-64500000D02*
X122000000Y-64500000D01*
X160100000Y-88425000D02*
X160100000Y-91825000D01*
X160275000Y-88250000D02*
X160100000Y-88425000D01*
X167250000Y-78975000D02*
X167250000Y-79775000D01*
X122000000Y-64500000D02*
X121550000Y-64050000D01*
X122900000Y-65000000D02*
X121050000Y-65000000D01*
X158100000Y-88350000D02*
X158100000Y-91825000D01*
X158525000Y-87925000D02*
X158100000Y-88350000D01*
X164400000Y-77400000D02*
X166225000Y-79225000D01*
X164400000Y-75625000D02*
X164400000Y-77400000D01*
X161525000Y-72750000D02*
X164400000Y-75625000D01*
X121050000Y-65000000D02*
X121025000Y-65025000D01*
X125500000Y-61900000D02*
X125500000Y-60700000D01*
X125050000Y-60250000D02*
X118600000Y-60250000D01*
X125500000Y-60700000D02*
X125050000Y-60250000D01*
X118600000Y-60250000D02*
X118600000Y-59700000D01*
X118600000Y-57450000D02*
X118600000Y-56900000D01*
X125000000Y-61900000D02*
X125000000Y-63050000D01*
X116050000Y-61200000D02*
X114300000Y-59450000D01*
X122100000Y-61200000D02*
X116050000Y-61200000D01*
X124350000Y-63450000D02*
X122100000Y-61200000D01*
X124600000Y-63450000D02*
X124350000Y-63450000D01*
X125000000Y-63050000D02*
X124600000Y-63450000D01*
X126500000Y-61900000D02*
X126500000Y-63000000D01*
X146150000Y-80200000D02*
X147300000Y-80200000D01*
X145175000Y-81175000D02*
X146150000Y-80200000D01*
X142900000Y-81175000D02*
X145175000Y-81175000D01*
X142300000Y-80575000D02*
X142900000Y-81175000D01*
X142300000Y-75250000D02*
X142300000Y-80575000D01*
X144900000Y-72650000D02*
X142300000Y-75250000D01*
X144900000Y-67300000D02*
X144900000Y-72650000D01*
X144400000Y-66800000D02*
X144900000Y-67300000D01*
X126500000Y-63000000D02*
X126175000Y-63325000D01*
X126000000Y-60675000D02*
X126000000Y-61900000D01*
X126275000Y-60400000D02*
X126000000Y-60675000D01*
X158950000Y-71475000D02*
X151475000Y-64450000D01*
X151475000Y-64450000D02*
X151550000Y-64475000D01*
X124500000Y-61900000D02*
X123867180Y-61441752D01*
X144975000Y-63150000D02*
X144975000Y-65825000D01*
X142275000Y-60450000D02*
X144975000Y-63150000D01*
X123867180Y-61441752D02*
X123825000Y-60925000D01*
X124500000Y-61900000D02*
X124500000Y-61550000D01*
X124500000Y-61900000D02*
X124500000Y-61400000D01*
X150365303Y-68042978D02*
X150150000Y-66575000D01*
X150400000Y-70475000D02*
X150365303Y-68042978D01*
X122900000Y-63000000D02*
X122900000Y-63500000D01*
X122800000Y-62900000D02*
X122900000Y-63000000D01*
X141475000Y-60950000D02*
X141475000Y-58475000D01*
X142000000Y-61475000D02*
X141475000Y-60950000D01*
X142325000Y-61475000D02*
X142000000Y-61475000D01*
X143625000Y-62775000D02*
X142325000Y-61475000D01*
X143625000Y-64700000D02*
X143625000Y-62775000D01*
X144050000Y-65125000D02*
X143625000Y-64700000D01*
X122900000Y-64000000D02*
X124100000Y-64000000D01*
X127625000Y-68125000D02*
X127625000Y-68250000D01*
X125250000Y-65750000D02*
X127625000Y-68125000D01*
X125250000Y-65150000D02*
X125250000Y-65750000D01*
X124100000Y-64000000D02*
X125250000Y-65150000D01*
X127000000Y-70600000D02*
X127000000Y-72550000D01*
X127000000Y-72550000D02*
X129025000Y-74575000D01*
X129025000Y-74575000D02*
X129025000Y-77900000D01*
X129025000Y-77900000D02*
X130025000Y-78900000D01*
X130025000Y-78900000D02*
X138300000Y-78900000D01*
X138300000Y-78900000D02*
X145025000Y-85625000D01*
X145025000Y-85625000D02*
X145125000Y-85625000D01*
X148700000Y-85675000D02*
X148750000Y-85625000D01*
X148750000Y-85625000D02*
X150900000Y-85625000D01*
X154750000Y-85575000D02*
X154800000Y-85525000D01*
X154800000Y-85525000D02*
X155550000Y-85525000D01*
X155550000Y-85525000D02*
X156525000Y-84550000D01*
X156525000Y-84550000D02*
X156525000Y-82125000D01*
X128500000Y-61900000D02*
X128500000Y-63750000D01*
X128500000Y-63750000D02*
X128875000Y-64125000D01*
X140125000Y-66775000D02*
X141575000Y-65325000D01*
X141575000Y-65325000D02*
X141575000Y-63800000D01*
X144725000Y-61650000D02*
X144125000Y-61050000D01*
X144125000Y-61050000D02*
X144125000Y-60075000D01*
X110475000Y-81700000D02*
X119800000Y-81700000D01*
X119800000Y-81700000D02*
X119850000Y-81750000D01*
X119850000Y-81750000D02*
X122750000Y-81750000D01*
X119438000Y-77250000D02*
X119438000Y-81338000D01*
X119438000Y-81338000D02*
X119850000Y-81750000D01*
X119438000Y-77200000D02*
X119626000Y-77200000D01*
X127000000Y-61900000D02*
X127000000Y-60150000D01*
X161750000Y-52800000D02*
X161750000Y-54800000D01*
X135425000Y-51050000D02*
X135450000Y-51050000D01*
X132075000Y-54400000D02*
X135425000Y-51050000D01*
X122075000Y-58350000D02*
X122075000Y-57825000D01*
X123150000Y-59425000D02*
X122075000Y-58350000D01*
X126275000Y-59425000D02*
X123150000Y-59425000D01*
X127000000Y-60150000D02*
X126275000Y-59425000D01*
D38*
G36*
X172390000Y-97740000D02*
X148417090Y-97740000D01*
X148923489Y-97639271D01*
X149409670Y-97314415D01*
X149734526Y-96828234D01*
X149848600Y-96254745D01*
X149848600Y-95885255D01*
X149734526Y-95311766D01*
X149409670Y-94825585D01*
X149341816Y-94780246D01*
X149641954Y-94444320D01*
X149835184Y-93891913D01*
X149690924Y-93657000D01*
X148477000Y-93657000D01*
X148477000Y-93677000D01*
X148223000Y-93677000D01*
X148223000Y-93657000D01*
X145937000Y-93657000D01*
X145937000Y-93677000D01*
X145683000Y-93677000D01*
X145683000Y-93657000D01*
X143397000Y-93657000D01*
X143397000Y-93677000D01*
X143143000Y-93677000D01*
X143143000Y-93657000D01*
X140857000Y-93657000D01*
X140857000Y-93677000D01*
X140603000Y-93677000D01*
X140603000Y-93657000D01*
X138317000Y-93657000D01*
X138317000Y-93677000D01*
X138063000Y-93677000D01*
X138063000Y-93657000D01*
X135777000Y-93657000D01*
X135777000Y-93677000D01*
X135523000Y-93677000D01*
X135523000Y-93657000D01*
X133237000Y-93657000D01*
X133237000Y-93677000D01*
X132983000Y-93677000D01*
X132983000Y-93657000D01*
X131769076Y-93657000D01*
X131624816Y-93891913D01*
X131818046Y-94444320D01*
X132118184Y-94780246D01*
X132050330Y-94825585D01*
X131725474Y-95311766D01*
X131611400Y-95885255D01*
X131611400Y-96254745D01*
X131725474Y-96828234D01*
X132050330Y-97314415D01*
X132536511Y-97639271D01*
X133042910Y-97740000D01*
X105810000Y-97740000D01*
X105810000Y-92750000D01*
X119002560Y-92750000D01*
X119002560Y-96150000D01*
X119046838Y-96385317D01*
X119185910Y-96601441D01*
X119398110Y-96746431D01*
X119650000Y-96797440D01*
X121150000Y-96797440D01*
X121385317Y-96753162D01*
X121601441Y-96614090D01*
X121746431Y-96401890D01*
X121797440Y-96150000D01*
X121797440Y-95372151D01*
X121888201Y-95409838D01*
X122260167Y-95410162D01*
X122603943Y-95268117D01*
X122867192Y-95005327D01*
X123009838Y-94661799D01*
X123009904Y-94585167D01*
X124889838Y-94585167D01*
X125031883Y-94928943D01*
X125294673Y-95192192D01*
X125638201Y-95334838D01*
X125702560Y-95334894D01*
X125702560Y-96150000D01*
X125746838Y-96385317D01*
X125885910Y-96601441D01*
X126098110Y-96746431D01*
X126350000Y-96797440D01*
X127850000Y-96797440D01*
X128085317Y-96753162D01*
X128301441Y-96614090D01*
X128446431Y-96401890D01*
X128497440Y-96150000D01*
X128497440Y-92750000D01*
X128453162Y-92514683D01*
X128314090Y-92298559D01*
X128101890Y-92153569D01*
X127850000Y-92102560D01*
X126350000Y-92102560D01*
X126114683Y-92146838D01*
X125898559Y-92285910D01*
X125753569Y-92498110D01*
X125702560Y-92750000D01*
X125702560Y-93464893D01*
X125639833Y-93464838D01*
X125296057Y-93606883D01*
X125032808Y-93869673D01*
X124890162Y-94213201D01*
X124889838Y-94585167D01*
X123009904Y-94585167D01*
X123010162Y-94289833D01*
X122868117Y-93946057D01*
X122605327Y-93682808D01*
X122261799Y-93540162D01*
X121889833Y-93539838D01*
X121797440Y-93578014D01*
X121797440Y-92750000D01*
X121753162Y-92514683D01*
X121614090Y-92298559D01*
X121401890Y-92153569D01*
X121150000Y-92102560D01*
X119650000Y-92102560D01*
X119414683Y-92146838D01*
X119198559Y-92285910D01*
X119053569Y-92498110D01*
X119002560Y-92750000D01*
X105810000Y-92750000D01*
X105810000Y-89027333D01*
X105948298Y-89084759D01*
X106499285Y-89085240D01*
X107008515Y-88874831D01*
X107398461Y-88485564D01*
X107609759Y-87976702D01*
X107609761Y-87974285D01*
X110839760Y-87974285D01*
X111050169Y-88483515D01*
X111439436Y-88873461D01*
X111948298Y-89084759D01*
X112499285Y-89085240D01*
X113008515Y-88874831D01*
X113398461Y-88485564D01*
X113523196Y-88185167D01*
X119814838Y-88185167D01*
X119956883Y-88528943D01*
X120219673Y-88792192D01*
X120563201Y-88934838D01*
X120610077Y-88934879D01*
X121112599Y-89437401D01*
X121359160Y-89602148D01*
X121602560Y-89650564D01*
X121602560Y-90650000D01*
X121646838Y-90885317D01*
X121785910Y-91101441D01*
X121998110Y-91246431D01*
X122250000Y-91297440D01*
X123250000Y-91297440D01*
X123485317Y-91253162D01*
X123701441Y-91114090D01*
X123749134Y-91044289D01*
X123785910Y-91101441D01*
X123998110Y-91246431D01*
X124250000Y-91297440D01*
X125250000Y-91297440D01*
X125485317Y-91253162D01*
X125701441Y-91114090D01*
X125846431Y-90901890D01*
X125866000Y-90805255D01*
X131611400Y-90805255D01*
X131611400Y-91174745D01*
X131725474Y-91748234D01*
X132050330Y-92234415D01*
X132118184Y-92279754D01*
X131818046Y-92615680D01*
X131624816Y-93168087D01*
X131769076Y-93403000D01*
X132983000Y-93403000D01*
X132983000Y-93383000D01*
X133237000Y-93383000D01*
X133237000Y-93403000D01*
X135523000Y-93403000D01*
X135523000Y-93383000D01*
X135777000Y-93383000D01*
X135777000Y-93403000D01*
X138063000Y-93403000D01*
X138063000Y-93383000D01*
X138317000Y-93383000D01*
X138317000Y-93403000D01*
X140603000Y-93403000D01*
X140603000Y-93383000D01*
X140857000Y-93383000D01*
X140857000Y-93403000D01*
X143143000Y-93403000D01*
X143143000Y-93383000D01*
X143397000Y-93383000D01*
X143397000Y-93403000D01*
X145683000Y-93403000D01*
X145683000Y-93383000D01*
X145937000Y-93383000D01*
X145937000Y-93403000D01*
X148223000Y-93403000D01*
X148223000Y-93383000D01*
X148477000Y-93383000D01*
X148477000Y-93403000D01*
X149690924Y-93403000D01*
X149835184Y-93168087D01*
X149641954Y-92615680D01*
X149341816Y-92279754D01*
X149409670Y-92234415D01*
X149734526Y-91748234D01*
X149848600Y-91174745D01*
X149848600Y-90805255D01*
X149734526Y-90231766D01*
X149409670Y-89745585D01*
X148923489Y-89420729D01*
X148350000Y-89306655D01*
X147776511Y-89420729D01*
X147290330Y-89745585D01*
X147080000Y-90060366D01*
X146869670Y-89745585D01*
X146383489Y-89420729D01*
X145810000Y-89306655D01*
X145236511Y-89420729D01*
X144750330Y-89745585D01*
X144540000Y-90060366D01*
X144329670Y-89745585D01*
X143843489Y-89420729D01*
X143270000Y-89306655D01*
X142696511Y-89420729D01*
X142210330Y-89745585D01*
X142000000Y-90060366D01*
X141789670Y-89745585D01*
X141303489Y-89420729D01*
X140730000Y-89306655D01*
X140156511Y-89420729D01*
X139670330Y-89745585D01*
X139460000Y-90060366D01*
X139249670Y-89745585D01*
X138763489Y-89420729D01*
X138190000Y-89306655D01*
X137616511Y-89420729D01*
X137130330Y-89745585D01*
X136920000Y-90060366D01*
X136709670Y-89745585D01*
X136223489Y-89420729D01*
X135650000Y-89306655D01*
X135076511Y-89420729D01*
X134590330Y-89745585D01*
X134380000Y-90060366D01*
X134169670Y-89745585D01*
X133683489Y-89420729D01*
X133110000Y-89306655D01*
X132536511Y-89420729D01*
X132050330Y-89745585D01*
X131725474Y-90231766D01*
X131611400Y-90805255D01*
X125866000Y-90805255D01*
X125897440Y-90650000D01*
X125897440Y-89784911D01*
X126185167Y-89785162D01*
X126528943Y-89643117D01*
X126792192Y-89380327D01*
X126934838Y-89036799D01*
X126935162Y-88664833D01*
X126793117Y-88321057D01*
X126530327Y-88057808D01*
X126186799Y-87915162D01*
X125897440Y-87914910D01*
X125897440Y-87150000D01*
X125853162Y-86914683D01*
X125714090Y-86698559D01*
X125501890Y-86553569D01*
X125250000Y-86502560D01*
X124250000Y-86502560D01*
X124014683Y-86546838D01*
X123798559Y-86685910D01*
X123750866Y-86755711D01*
X123714090Y-86698559D01*
X123501890Y-86553569D01*
X123250000Y-86502560D01*
X122250000Y-86502560D01*
X122014683Y-86546838D01*
X121798559Y-86685910D01*
X121653569Y-86898110D01*
X121602560Y-87150000D01*
X121602560Y-87614920D01*
X121543117Y-87471057D01*
X121280327Y-87207808D01*
X120936799Y-87065162D01*
X120564833Y-87064838D01*
X120221057Y-87206883D01*
X119957808Y-87469673D01*
X119815162Y-87813201D01*
X119814838Y-88185167D01*
X113523196Y-88185167D01*
X113609759Y-87976702D01*
X113610240Y-87425715D01*
X113399831Y-86916485D01*
X113010564Y-86526539D01*
X112501702Y-86315241D01*
X111950715Y-86314760D01*
X111441485Y-86525169D01*
X111051539Y-86914436D01*
X110840241Y-87423298D01*
X110839760Y-87974285D01*
X107609761Y-87974285D01*
X107610240Y-87425715D01*
X107399831Y-86916485D01*
X107010564Y-86526539D01*
X106501702Y-86315241D01*
X105950715Y-86314760D01*
X105810000Y-86372902D01*
X105810000Y-85904971D01*
X109439821Y-85904971D01*
X109597058Y-86285515D01*
X109887954Y-86576919D01*
X110268223Y-86734820D01*
X110679971Y-86735179D01*
X111060515Y-86577942D01*
X111351919Y-86287046D01*
X111509820Y-85906777D01*
X111510179Y-85495029D01*
X111352942Y-85114485D01*
X111062046Y-84823081D01*
X110681777Y-84665180D01*
X110270029Y-84664821D01*
X109889485Y-84822058D01*
X109598081Y-85112954D01*
X109440180Y-85493223D01*
X109439821Y-85904971D01*
X105810000Y-85904971D01*
X105810000Y-77904971D01*
X109439821Y-77904971D01*
X109597058Y-78285515D01*
X109887954Y-78576919D01*
X110268223Y-78734820D01*
X110679971Y-78735179D01*
X111060515Y-78577942D01*
X111351919Y-78287046D01*
X111509820Y-77906777D01*
X111509995Y-77705167D01*
X113676838Y-77705167D01*
X113818883Y-78048943D01*
X114081673Y-78312192D01*
X114425201Y-78454838D01*
X114797167Y-78455162D01*
X115140943Y-78313117D01*
X115182581Y-78271552D01*
X115300910Y-78455441D01*
X115513110Y-78600431D01*
X115765000Y-78651440D01*
X117015000Y-78651440D01*
X117250317Y-78607162D01*
X117466441Y-78468090D01*
X117611431Y-78255890D01*
X117662440Y-78004000D01*
X117662440Y-77004000D01*
X117618162Y-76768683D01*
X117479090Y-76552559D01*
X117410994Y-76506031D01*
X117553327Y-76363698D01*
X117650000Y-76130309D01*
X117650000Y-75789750D01*
X117491250Y-75631000D01*
X116517000Y-75631000D01*
X116517000Y-75651000D01*
X116263000Y-75651000D01*
X116263000Y-75631000D01*
X115288750Y-75631000D01*
X115130000Y-75789750D01*
X115130000Y-76130309D01*
X115226673Y-76363698D01*
X115367910Y-76504936D01*
X115313559Y-76539910D01*
X115174110Y-76744000D01*
X115158491Y-76744000D01*
X115142327Y-76727808D01*
X114798799Y-76585162D01*
X114426833Y-76584838D01*
X114083057Y-76726883D01*
X113819808Y-76989673D01*
X113677162Y-77333201D01*
X113676838Y-77705167D01*
X111509995Y-77705167D01*
X111510179Y-77495029D01*
X111352942Y-77114485D01*
X111062046Y-76823081D01*
X110681777Y-76665180D01*
X110270029Y-76664821D01*
X109889485Y-76822058D01*
X109598081Y-77112954D01*
X109440180Y-77493223D01*
X109439821Y-77904971D01*
X105810000Y-77904971D01*
X105810000Y-77027333D01*
X105948298Y-77084759D01*
X106499285Y-77085240D01*
X107008515Y-76874831D01*
X107398461Y-76485564D01*
X107609759Y-75976702D01*
X107609761Y-75974285D01*
X110839760Y-75974285D01*
X111050169Y-76483515D01*
X111439436Y-76873461D01*
X111948298Y-77084759D01*
X112499285Y-77085240D01*
X113008515Y-76874831D01*
X113398461Y-76485564D01*
X113609759Y-75976702D01*
X113610240Y-75425715D01*
X113399831Y-74916485D01*
X113010564Y-74526539D01*
X112501702Y-74315241D01*
X111950715Y-74314760D01*
X111441485Y-74525169D01*
X111051539Y-74914436D01*
X110840241Y-75423298D01*
X110839760Y-75974285D01*
X107609761Y-75974285D01*
X107610240Y-75425715D01*
X107399831Y-74916485D01*
X107168332Y-74684582D01*
X107335317Y-74653162D01*
X107551441Y-74514090D01*
X107599134Y-74444289D01*
X107635910Y-74501441D01*
X107848110Y-74646431D01*
X108100000Y-74697440D01*
X109300000Y-74697440D01*
X109535317Y-74653162D01*
X109751441Y-74514090D01*
X109855988Y-74361081D01*
X109913201Y-74384838D01*
X110285167Y-74385162D01*
X110628943Y-74243117D01*
X110892192Y-73980327D01*
X111034838Y-73636799D01*
X111035162Y-73264833D01*
X110893117Y-72921057D01*
X110630327Y-72657808D01*
X110286799Y-72515162D01*
X109914833Y-72514838D01*
X109854859Y-72539619D01*
X109764090Y-72398559D01*
X109551890Y-72253569D01*
X109493392Y-72241723D01*
X109552943Y-72217117D01*
X109816192Y-71954327D01*
X109916119Y-71713676D01*
X110070317Y-71684662D01*
X110286441Y-71545590D01*
X110431431Y-71333390D01*
X110482440Y-71081500D01*
X110482440Y-68981500D01*
X110438162Y-68746183D01*
X110414088Y-68708772D01*
X110431431Y-68683390D01*
X110482440Y-68431500D01*
X110482440Y-68362883D01*
X110525673Y-68406192D01*
X110869201Y-68548838D01*
X111241167Y-68549162D01*
X111281192Y-68532624D01*
X111405910Y-68726441D01*
X111618110Y-68871431D01*
X111640000Y-68875864D01*
X111640000Y-69700000D01*
X111697852Y-69990839D01*
X111862599Y-70237401D01*
X111952560Y-70327362D01*
X111952560Y-70900000D01*
X111996838Y-71135317D01*
X112135910Y-71351441D01*
X112348110Y-71496431D01*
X112361197Y-71499081D01*
X112148559Y-71635910D01*
X112003569Y-71848110D01*
X111952560Y-72100000D01*
X111952560Y-72800000D01*
X111996838Y-73035317D01*
X112135910Y-73251441D01*
X112348110Y-73396431D01*
X112600000Y-73447440D01*
X112619080Y-73447440D01*
X112712599Y-73587401D01*
X112764878Y-73639680D01*
X112764838Y-73685167D01*
X112906883Y-74028943D01*
X113169673Y-74292192D01*
X113513201Y-74434838D01*
X113885167Y-74435162D01*
X114228943Y-74293117D01*
X114492192Y-74030327D01*
X114634838Y-73686799D01*
X114635162Y-73314833D01*
X114506326Y-73003026D01*
X114547440Y-72800000D01*
X114547440Y-72100000D01*
X114503162Y-71864683D01*
X114364090Y-71648559D01*
X114151890Y-71503569D01*
X114138803Y-71500919D01*
X114351441Y-71364090D01*
X114496431Y-71151890D01*
X114547440Y-70900000D01*
X114547440Y-70813691D01*
X115130000Y-70813691D01*
X115130000Y-71154250D01*
X115288750Y-71313000D01*
X116263000Y-71313000D01*
X116263000Y-70463750D01*
X116104250Y-70305000D01*
X115638690Y-70305000D01*
X115405301Y-70401673D01*
X115226673Y-70580302D01*
X115130000Y-70813691D01*
X114547440Y-70813691D01*
X114547440Y-70200000D01*
X114503162Y-69964683D01*
X114465718Y-69906493D01*
X114642192Y-69730327D01*
X114784838Y-69386799D01*
X114784879Y-69339923D01*
X115137401Y-68987401D01*
X115188113Y-68911505D01*
X115365317Y-68878162D01*
X115581441Y-68739090D01*
X115634926Y-68660812D01*
X115813201Y-68734838D01*
X115860077Y-68734879D01*
X116202560Y-69077362D01*
X116202560Y-69300000D01*
X116246838Y-69535317D01*
X116385910Y-69751441D01*
X116598110Y-69896431D01*
X116850000Y-69947440D01*
X118150000Y-69947440D01*
X118385317Y-69903162D01*
X118601441Y-69764090D01*
X118746431Y-69551890D01*
X118797440Y-69300000D01*
X118797440Y-68600000D01*
X118753162Y-68364683D01*
X118614090Y-68148559D01*
X118401890Y-68003569D01*
X118388803Y-68000919D01*
X118533200Y-67908002D01*
X119015000Y-68389802D01*
X119015000Y-68562537D01*
X118982808Y-68594673D01*
X118840162Y-68938201D01*
X118839838Y-69310167D01*
X118981883Y-69653943D01*
X119244673Y-69917192D01*
X119588201Y-70059838D01*
X119960167Y-70060162D01*
X120303943Y-69918117D01*
X120340000Y-69882123D01*
X120340000Y-70543644D01*
X120339890Y-70543569D01*
X120088000Y-70492560D01*
X118788000Y-70492560D01*
X118577675Y-70532135D01*
X118536799Y-70515162D01*
X118164833Y-70514838D01*
X117821057Y-70656883D01*
X117650000Y-70827642D01*
X117650000Y-70813691D01*
X117553327Y-70580302D01*
X117374699Y-70401673D01*
X117141310Y-70305000D01*
X116675750Y-70305000D01*
X116517000Y-70463750D01*
X116517000Y-71313000D01*
X116537000Y-71313000D01*
X116537000Y-71567000D01*
X116517000Y-71567000D01*
X116517000Y-71587000D01*
X116263000Y-71587000D01*
X116263000Y-71567000D01*
X115288750Y-71567000D01*
X115130000Y-71725750D01*
X115130000Y-72066309D01*
X115226673Y-72299698D01*
X115367910Y-72440936D01*
X115313559Y-72475910D01*
X115168569Y-72688110D01*
X115117560Y-72940000D01*
X115117560Y-73940000D01*
X115161838Y-74175317D01*
X115300910Y-74391441D01*
X115407948Y-74464577D01*
X115405301Y-74465673D01*
X115226673Y-74644302D01*
X115130000Y-74877691D01*
X115130000Y-75218250D01*
X115288750Y-75377000D01*
X116263000Y-75377000D01*
X116263000Y-75357000D01*
X116517000Y-75357000D01*
X116517000Y-75377000D01*
X117491250Y-75377000D01*
X117650000Y-75218250D01*
X117650000Y-74877691D01*
X117644542Y-74864515D01*
X117727201Y-74898838D01*
X118099167Y-74899162D01*
X118165560Y-74871729D01*
X118165560Y-75750000D01*
X118209838Y-75985317D01*
X118348910Y-76201441D01*
X118418711Y-76249134D01*
X118361559Y-76285910D01*
X118216569Y-76498110D01*
X118165560Y-76750000D01*
X118165560Y-77750000D01*
X118209838Y-77985317D01*
X118348910Y-78201441D01*
X118561110Y-78346431D01*
X118678000Y-78370102D01*
X118678000Y-80940000D01*
X111178761Y-80940000D01*
X111062046Y-80823081D01*
X110681777Y-80665180D01*
X110270029Y-80664821D01*
X109889485Y-80822058D01*
X109598081Y-81112954D01*
X109440180Y-81493223D01*
X109439821Y-81904971D01*
X109597058Y-82285515D01*
X109887954Y-82576919D01*
X110268223Y-82734820D01*
X110679971Y-82735179D01*
X111060515Y-82577942D01*
X111178663Y-82460000D01*
X118677069Y-82460000D01*
X118735910Y-82551441D01*
X118948110Y-82696431D01*
X118961197Y-82699081D01*
X118748559Y-82835910D01*
X118603569Y-83048110D01*
X118552560Y-83300000D01*
X118552560Y-84000000D01*
X118596838Y-84235317D01*
X118735910Y-84451441D01*
X118948110Y-84596431D01*
X119200000Y-84647440D01*
X120500000Y-84647440D01*
X120735317Y-84603162D01*
X120951441Y-84464090D01*
X120988399Y-84410000D01*
X121745331Y-84410000D01*
X121755910Y-84426441D01*
X121968110Y-84571431D01*
X122220000Y-84622440D01*
X123280000Y-84622440D01*
X123515317Y-84578162D01*
X123731441Y-84439090D01*
X123851233Y-84263768D01*
X123955910Y-84426441D01*
X124168110Y-84571431D01*
X124420000Y-84622440D01*
X125480000Y-84622440D01*
X125715317Y-84578162D01*
X125931441Y-84439090D01*
X126076431Y-84226890D01*
X126127440Y-83975000D01*
X126127440Y-83325000D01*
X126083162Y-83089683D01*
X125944090Y-82873559D01*
X125731890Y-82728569D01*
X125617435Y-82705391D01*
X125839698Y-82613327D01*
X126018327Y-82434699D01*
X126115000Y-82201310D01*
X126115000Y-82035750D01*
X125956250Y-81877000D01*
X125077000Y-81877000D01*
X125077000Y-81897000D01*
X124823000Y-81897000D01*
X124823000Y-81877000D01*
X124803000Y-81877000D01*
X124803000Y-81623000D01*
X124823000Y-81623000D01*
X124823000Y-80948750D01*
X124664250Y-80790000D01*
X124293691Y-80790000D01*
X124060302Y-80886673D01*
X123881673Y-81065301D01*
X123850912Y-81139565D01*
X123744090Y-80973559D01*
X123531890Y-80828569D01*
X123280000Y-80777560D01*
X122220000Y-80777560D01*
X121984683Y-80821838D01*
X121768559Y-80960910D01*
X121748683Y-80990000D01*
X120990757Y-80990000D01*
X120964090Y-80948559D01*
X120751890Y-80803569D01*
X120500000Y-80752560D01*
X120198000Y-80752560D01*
X120198000Y-78372038D01*
X120298317Y-78353162D01*
X120514441Y-78214090D01*
X120659431Y-78001890D01*
X120710440Y-77750000D01*
X120710440Y-76903947D01*
X120775201Y-76930838D01*
X121147167Y-76931162D01*
X121490943Y-76789117D01*
X121754192Y-76526327D01*
X121896838Y-76182799D01*
X121897162Y-75810833D01*
X121755117Y-75467057D01*
X121492327Y-75203808D01*
X121148799Y-75061162D01*
X121101923Y-75061121D01*
X120803401Y-74762599D01*
X120699783Y-74693364D01*
X120666162Y-74514683D01*
X120527090Y-74298559D01*
X120461877Y-74254001D01*
X120539441Y-74204090D01*
X120602572Y-74111695D01*
X120700839Y-74092148D01*
X120947401Y-73927401D01*
X121637401Y-73237401D01*
X121802148Y-72990840D01*
X121860000Y-72700000D01*
X121860000Y-69627065D01*
X121998110Y-69721431D01*
X122155579Y-69753319D01*
X122197852Y-69965839D01*
X122362599Y-70212401D01*
X122464878Y-70314680D01*
X122464838Y-70360167D01*
X122606883Y-70703943D01*
X122869673Y-70967192D01*
X123213201Y-71109838D01*
X123585167Y-71110162D01*
X123727560Y-71051327D01*
X123727560Y-71198207D01*
X123646057Y-71231883D01*
X123382808Y-71494673D01*
X123240162Y-71838201D01*
X123239838Y-72210167D01*
X123381883Y-72553943D01*
X123644673Y-72817192D01*
X123988201Y-72959838D01*
X124240000Y-72960057D01*
X124240000Y-74337077D01*
X124071057Y-74406883D01*
X123807808Y-74669673D01*
X123665162Y-75013201D01*
X123664838Y-75385167D01*
X123806883Y-75728943D01*
X124069673Y-75992192D01*
X124363414Y-76114164D01*
X124307808Y-76169673D01*
X124165162Y-76513201D01*
X124164838Y-76885167D01*
X124306883Y-77228943D01*
X124569673Y-77492192D01*
X124913201Y-77634838D01*
X125123966Y-77635022D01*
X125071057Y-77656883D01*
X124807808Y-77919673D01*
X124665162Y-78263201D01*
X124664838Y-78635167D01*
X124806883Y-78978943D01*
X125069673Y-79242192D01*
X125413201Y-79384838D01*
X125740000Y-79385123D01*
X125740000Y-79712624D01*
X125657808Y-79794673D01*
X125515162Y-80138201D01*
X125514838Y-80510167D01*
X125635450Y-80802071D01*
X125606309Y-80790000D01*
X125235750Y-80790000D01*
X125077000Y-80948750D01*
X125077000Y-81623000D01*
X125956250Y-81623000D01*
X126115000Y-81464250D01*
X126115000Y-81298690D01*
X126064779Y-81177446D01*
X126263201Y-81259838D01*
X126635167Y-81260162D01*
X126978943Y-81118117D01*
X127242192Y-80855327D01*
X127384838Y-80511799D01*
X127385162Y-80139833D01*
X127260000Y-79836917D01*
X127260000Y-77665080D01*
X127315000Y-77687918D01*
X127315000Y-78500000D01*
X127372852Y-78790839D01*
X127537599Y-79037401D01*
X128712599Y-80212401D01*
X128959161Y-80377148D01*
X129250000Y-80435000D01*
X137212537Y-80435000D01*
X137244673Y-80467192D01*
X137588201Y-80609838D01*
X137960167Y-80610162D01*
X138303943Y-80468117D01*
X138548843Y-80223645D01*
X144228194Y-85902996D01*
X144331883Y-86153943D01*
X144594673Y-86417192D01*
X144603506Y-86420860D01*
X144565162Y-86513201D01*
X144564838Y-86885167D01*
X144706883Y-87228943D01*
X144969673Y-87492192D01*
X145313201Y-87634838D01*
X145685167Y-87635162D01*
X146028943Y-87493117D01*
X146292192Y-87230327D01*
X146434838Y-86886799D01*
X146434879Y-86839923D01*
X147765143Y-85509659D01*
X147764838Y-85860167D01*
X147906883Y-86203943D01*
X148169673Y-86467192D01*
X148513201Y-86609838D01*
X148885167Y-86610162D01*
X149228943Y-86468117D01*
X149312205Y-86385000D01*
X150337537Y-86385000D01*
X150369673Y-86417192D01*
X150713201Y-86559838D01*
X151085167Y-86560162D01*
X151428943Y-86418117D01*
X151692192Y-86155327D01*
X151834838Y-85811799D01*
X151835162Y-85439833D01*
X151693117Y-85096057D01*
X151683210Y-85086133D01*
X151734838Y-84961799D01*
X151735162Y-84589833D01*
X151691016Y-84482992D01*
X151746431Y-84401890D01*
X151753191Y-84368510D01*
X151811673Y-84509699D01*
X151990302Y-84688327D01*
X152223691Y-84785000D01*
X152414250Y-84785000D01*
X152573000Y-84626250D01*
X152573000Y-83627000D01*
X152827000Y-83627000D01*
X152827000Y-84626250D01*
X152985750Y-84785000D01*
X153176309Y-84785000D01*
X153409698Y-84688327D01*
X153588327Y-84509699D01*
X153685000Y-84276310D01*
X153685000Y-83785750D01*
X153526250Y-83627000D01*
X152827000Y-83627000D01*
X152573000Y-83627000D01*
X152553000Y-83627000D01*
X152553000Y-83373000D01*
X152573000Y-83373000D01*
X152573000Y-83353000D01*
X152827000Y-83353000D01*
X152827000Y-83373000D01*
X153526250Y-83373000D01*
X153685000Y-83214250D01*
X153685000Y-82723690D01*
X154565000Y-82723690D01*
X154565000Y-83214250D01*
X154723750Y-83373000D01*
X155423000Y-83373000D01*
X155423000Y-82373750D01*
X155264250Y-82215000D01*
X155073691Y-82215000D01*
X154840302Y-82311673D01*
X154661673Y-82490301D01*
X154565000Y-82723690D01*
X153685000Y-82723690D01*
X153588327Y-82490301D01*
X153409698Y-82311673D01*
X153176309Y-82215000D01*
X152985750Y-82215000D01*
X152827002Y-82373748D01*
X152827002Y-82322800D01*
X153362401Y-81787401D01*
X153527148Y-81540839D01*
X153547189Y-81440087D01*
X153626441Y-81389090D01*
X153771431Y-81176890D01*
X153774081Y-81163803D01*
X153910910Y-81376441D01*
X154123110Y-81521431D01*
X154375000Y-81572440D01*
X155075000Y-81572440D01*
X155310317Y-81528162D01*
X155526441Y-81389090D01*
X155671431Y-81176890D01*
X155700164Y-81035000D01*
X156138469Y-81035000D01*
X156150990Y-81065303D01*
X156294150Y-81208714D01*
X155996057Y-81331883D01*
X155732808Y-81594673D01*
X155590162Y-81938201D01*
X155589838Y-82310167D01*
X155677000Y-82521116D01*
X155677000Y-83373000D01*
X155697000Y-83373000D01*
X155697000Y-83627000D01*
X155677000Y-83627000D01*
X155677000Y-83647000D01*
X155423000Y-83647000D01*
X155423000Y-83627000D01*
X154723750Y-83627000D01*
X154565000Y-83785750D01*
X154565000Y-84276310D01*
X154661673Y-84509699D01*
X154792011Y-84640036D01*
X154564833Y-84639838D01*
X154221057Y-84781883D01*
X153957808Y-85044673D01*
X153815162Y-85388201D01*
X153814838Y-85760167D01*
X153956883Y-86103943D01*
X154219673Y-86367192D01*
X154563201Y-86509838D01*
X154935167Y-86510162D01*
X155278943Y-86368117D01*
X155362205Y-86285000D01*
X155550000Y-86285000D01*
X155840839Y-86227148D01*
X156087401Y-86062401D01*
X157062401Y-85087401D01*
X157227148Y-84840840D01*
X157235781Y-84797440D01*
X157800000Y-84797440D01*
X158035317Y-84753162D01*
X158251441Y-84614090D01*
X158396431Y-84401890D01*
X158447440Y-84150000D01*
X158447440Y-83860750D01*
X158590000Y-83860750D01*
X158590000Y-84351310D01*
X158686673Y-84584699D01*
X158865302Y-84763327D01*
X159098691Y-84860000D01*
X159289250Y-84860000D01*
X159448000Y-84701250D01*
X159448000Y-83702000D01*
X158748750Y-83702000D01*
X158590000Y-83860750D01*
X158447440Y-83860750D01*
X158447440Y-83577362D01*
X158662776Y-83362026D01*
X158748750Y-83448000D01*
X159448000Y-83448000D01*
X159448000Y-83428000D01*
X159702000Y-83428000D01*
X159702000Y-83448000D01*
X159722000Y-83448000D01*
X159722000Y-83702000D01*
X159702000Y-83702000D01*
X159702000Y-84701250D01*
X159860750Y-84860000D01*
X160051309Y-84860000D01*
X160284698Y-84763327D01*
X160463327Y-84584699D01*
X160519654Y-84448713D01*
X160521838Y-84460317D01*
X160660910Y-84676441D01*
X160873110Y-84821431D01*
X161125000Y-84872440D01*
X161352849Y-84872440D01*
X161315162Y-84963201D01*
X161314838Y-85335167D01*
X161340000Y-85396064D01*
X161340000Y-88487721D01*
X161148559Y-88610910D01*
X161120470Y-88652019D01*
X161209838Y-88436799D01*
X161210162Y-88064833D01*
X161068117Y-87721057D01*
X160805327Y-87457808D01*
X160461799Y-87315162D01*
X160089833Y-87314838D01*
X159746057Y-87456883D01*
X159482808Y-87719673D01*
X159460132Y-87774283D01*
X159460162Y-87739833D01*
X159318117Y-87396057D01*
X159055327Y-87132808D01*
X158711799Y-86990162D01*
X158339833Y-86989838D01*
X157996057Y-87131883D01*
X157732808Y-87394673D01*
X157590162Y-87738201D01*
X157590121Y-87785077D01*
X157562599Y-87812599D01*
X157397852Y-88059161D01*
X157340000Y-88350000D01*
X157340000Y-88487721D01*
X157148559Y-88610910D01*
X157100866Y-88680711D01*
X157064090Y-88623559D01*
X156851890Y-88478569D01*
X156600000Y-88427560D01*
X155600000Y-88427560D01*
X155364683Y-88471838D01*
X155148559Y-88610910D01*
X155003569Y-88823110D01*
X154952560Y-89075000D01*
X154952560Y-89438230D01*
X154836799Y-89390162D01*
X154464833Y-89389838D01*
X154121057Y-89531883D01*
X153857808Y-89794673D01*
X153715162Y-90138201D01*
X153714838Y-90510167D01*
X153856883Y-90853943D01*
X154119673Y-91117192D01*
X154463201Y-91259838D01*
X154510077Y-91259879D01*
X154952560Y-91702362D01*
X154952560Y-92115681D01*
X154751890Y-91978569D01*
X154500000Y-91927560D01*
X152900000Y-91927560D01*
X152664683Y-91971838D01*
X152448559Y-92110910D01*
X152303569Y-92323110D01*
X152252560Y-92575000D01*
X152252560Y-95575000D01*
X152296838Y-95810317D01*
X152435910Y-96026441D01*
X152648110Y-96171431D01*
X152900000Y-96222440D01*
X154500000Y-96222440D01*
X154735317Y-96178162D01*
X154951441Y-96039090D01*
X155096431Y-95826890D01*
X155147440Y-95575000D01*
X155147440Y-95034319D01*
X155348110Y-95171431D01*
X155600000Y-95222440D01*
X156600000Y-95222440D01*
X156835317Y-95178162D01*
X157051441Y-95039090D01*
X157099134Y-94969289D01*
X157135910Y-95026441D01*
X157348110Y-95171431D01*
X157600000Y-95222440D01*
X158600000Y-95222440D01*
X158835317Y-95178162D01*
X159051441Y-95039090D01*
X159099134Y-94969289D01*
X159135910Y-95026441D01*
X159348110Y-95171431D01*
X159600000Y-95222440D01*
X160600000Y-95222440D01*
X160835317Y-95178162D01*
X161051441Y-95039090D01*
X161099134Y-94969289D01*
X161135910Y-95026441D01*
X161348110Y-95171431D01*
X161600000Y-95222440D01*
X162600000Y-95222440D01*
X162835317Y-95178162D01*
X163051441Y-95039090D01*
X163097969Y-94970994D01*
X163240302Y-95113327D01*
X163473691Y-95210000D01*
X163814250Y-95210000D01*
X163973000Y-95051250D01*
X163973000Y-91952000D01*
X164227000Y-91952000D01*
X164227000Y-95051250D01*
X164385750Y-95210000D01*
X164726309Y-95210000D01*
X164959698Y-95113327D01*
X165052560Y-95020466D01*
X165052560Y-95575000D01*
X165096838Y-95810317D01*
X165235910Y-96026441D01*
X165448110Y-96171431D01*
X165700000Y-96222440D01*
X167300000Y-96222440D01*
X167535317Y-96178162D01*
X167751441Y-96039090D01*
X167896431Y-95826890D01*
X167947440Y-95575000D01*
X167947440Y-92575000D01*
X167903162Y-92339683D01*
X167764090Y-92123559D01*
X167551890Y-91978569D01*
X167300000Y-91927560D01*
X165700000Y-91927560D01*
X165464683Y-91971838D01*
X165248559Y-92110910D01*
X165235000Y-92130754D01*
X165235000Y-92110750D01*
X165076250Y-91952000D01*
X164227000Y-91952000D01*
X163973000Y-91952000D01*
X163953000Y-91952000D01*
X163953000Y-91698000D01*
X163973000Y-91698000D01*
X163973000Y-88598750D01*
X164227000Y-88598750D01*
X164227000Y-91698000D01*
X165076250Y-91698000D01*
X165235000Y-91539250D01*
X165235000Y-88948690D01*
X165138327Y-88715301D01*
X164959698Y-88536673D01*
X164726309Y-88440000D01*
X164385750Y-88440000D01*
X164227000Y-88598750D01*
X163973000Y-88598750D01*
X163814250Y-88440000D01*
X163473691Y-88440000D01*
X163240302Y-88536673D01*
X163099064Y-88677910D01*
X163064090Y-88623559D01*
X162860000Y-88484110D01*
X162860000Y-85862201D01*
X163042192Y-85680327D01*
X163184838Y-85336799D01*
X163185162Y-84964833D01*
X163043117Y-84621057D01*
X162780327Y-84357808D01*
X162471513Y-84229577D01*
X162472440Y-84225000D01*
X162472440Y-83502362D01*
X162939680Y-83035122D01*
X162985167Y-83035162D01*
X163328943Y-82893117D01*
X163592192Y-82630327D01*
X163734838Y-82286799D01*
X163735162Y-81914833D01*
X163593117Y-81571057D01*
X163536996Y-81514838D01*
X163914900Y-81671757D01*
X164470661Y-81672242D01*
X164984303Y-81460010D01*
X165377629Y-81067370D01*
X165590757Y-80554100D01*
X165591242Y-79998339D01*
X165531487Y-79853721D01*
X165694673Y-80017192D01*
X166038201Y-80159838D01*
X166397469Y-80160151D01*
X166456883Y-80303943D01*
X166719673Y-80567192D01*
X167063201Y-80709838D01*
X167435167Y-80710162D01*
X167778943Y-80568117D01*
X168042192Y-80305327D01*
X168184838Y-79961799D01*
X168185162Y-79589833D01*
X168043117Y-79246057D01*
X168010000Y-79212882D01*
X168010000Y-78975000D01*
X167952148Y-78684161D01*
X167787401Y-78437599D01*
X166176802Y-76827000D01*
X171375000Y-76827000D01*
X171421159Y-76818315D01*
X171463553Y-76791035D01*
X171491994Y-76749410D01*
X171502000Y-76700000D01*
X171502000Y-60225000D01*
X171493315Y-60178841D01*
X171466035Y-60136447D01*
X171424410Y-60108006D01*
X171375000Y-60098000D01*
X165550000Y-60098000D01*
X165503841Y-60106685D01*
X165461447Y-60133965D01*
X165433006Y-60175590D01*
X165423000Y-60225000D01*
X165423000Y-73373198D01*
X165335122Y-73285320D01*
X165335162Y-73239833D01*
X165193117Y-72896057D01*
X164930327Y-72632808D01*
X164586799Y-72490162D01*
X164214833Y-72489838D01*
X163871057Y-72631883D01*
X163607808Y-72894673D01*
X163465162Y-73238201D01*
X163464838Y-73610167D01*
X163468266Y-73618464D01*
X162460122Y-72610320D01*
X162460162Y-72564833D01*
X162318117Y-72221057D01*
X162055327Y-71957808D01*
X161711799Y-71815162D01*
X161452638Y-71814936D01*
X161502148Y-71740840D01*
X161560000Y-71450000D01*
X161560000Y-69200000D01*
X161502148Y-68909161D01*
X161337401Y-68662599D01*
X157185122Y-64510320D01*
X157185162Y-64464833D01*
X157043117Y-64121057D01*
X156780327Y-63857808D01*
X156436799Y-63715162D01*
X156064833Y-63714838D01*
X155721057Y-63856883D01*
X155457808Y-64119673D01*
X155315162Y-64463201D01*
X155314838Y-64835167D01*
X155456883Y-65178943D01*
X155719673Y-65442192D01*
X156063201Y-65584838D01*
X156110077Y-65584879D01*
X160040000Y-69514802D01*
X160040000Y-71135198D01*
X159885162Y-71290036D01*
X159885162Y-71289833D01*
X159743117Y-70946057D01*
X159480327Y-70682808D01*
X159136799Y-70540162D01*
X159064973Y-70540099D01*
X152485104Y-64356343D01*
X152485162Y-64289833D01*
X152343117Y-63946057D01*
X152080327Y-63682808D01*
X151736799Y-63540162D01*
X151364833Y-63539838D01*
X151021057Y-63681883D01*
X150757808Y-63944673D01*
X150615162Y-64288201D01*
X150614838Y-64660167D01*
X150756883Y-65003943D01*
X151019673Y-65267192D01*
X151363201Y-65409838D01*
X151386583Y-65409858D01*
X158014856Y-71639105D01*
X158014838Y-71660167D01*
X158156883Y-72003943D01*
X158190253Y-72037372D01*
X158107808Y-72119673D01*
X157965162Y-72463201D01*
X157964838Y-72835167D01*
X157997824Y-72915000D01*
X150812463Y-72915000D01*
X150780327Y-72882808D01*
X150436799Y-72740162D01*
X150064833Y-72739838D01*
X149721057Y-72881883D01*
X149457808Y-73144673D01*
X149315162Y-73488201D01*
X149314838Y-73860167D01*
X149456883Y-74203943D01*
X149719673Y-74467192D01*
X150063201Y-74609838D01*
X150435167Y-74610162D01*
X150778943Y-74468117D01*
X150812118Y-74435000D01*
X152439903Y-74435000D01*
X152439838Y-74510167D01*
X152491593Y-74635423D01*
X152321520Y-74669253D01*
X151937078Y-74926128D01*
X151775000Y-75168696D01*
X151612922Y-74926128D01*
X151228480Y-74669253D01*
X150775000Y-74579050D01*
X150321520Y-74669253D01*
X149937078Y-74926128D01*
X149894099Y-74990452D01*
X149793117Y-74746057D01*
X149530327Y-74482808D01*
X149186799Y-74340162D01*
X148814833Y-74339838D01*
X148471057Y-74481883D01*
X148207808Y-74744673D01*
X148207486Y-74745448D01*
X147937078Y-74926128D01*
X147680203Y-75310570D01*
X147604729Y-75690000D01*
X144098252Y-75690000D01*
X144018117Y-75496057D01*
X143755327Y-75232808D01*
X143498598Y-75126204D01*
X145159152Y-73465650D01*
X145244253Y-73893480D01*
X145501128Y-74277922D01*
X145885570Y-74534797D01*
X146339050Y-74625000D01*
X147710950Y-74625000D01*
X148164430Y-74534797D01*
X148548872Y-74277922D01*
X148805747Y-73893480D01*
X148895950Y-73440000D01*
X148805747Y-72986520D01*
X148548872Y-72602078D01*
X148306304Y-72440000D01*
X148548872Y-72277922D01*
X148805747Y-71893480D01*
X148893192Y-71453863D01*
X149088201Y-71534838D01*
X149460167Y-71535162D01*
X149803943Y-71393117D01*
X149912340Y-71284909D01*
X150213201Y-71409838D01*
X150585167Y-71410162D01*
X150928943Y-71268117D01*
X151192192Y-71005327D01*
X151334838Y-70661799D01*
X151334970Y-70510031D01*
X151485167Y-70510162D01*
X151828943Y-70368117D01*
X152087511Y-70110000D01*
X153037537Y-70110000D01*
X153069673Y-70142192D01*
X153413201Y-70284838D01*
X153785167Y-70285162D01*
X154128943Y-70143117D01*
X154392192Y-69880327D01*
X154534838Y-69536799D01*
X154535162Y-69164833D01*
X154393117Y-68821057D01*
X154130327Y-68557808D01*
X153786799Y-68415162D01*
X153414833Y-68414838D01*
X153071057Y-68556883D01*
X153037882Y-68590000D01*
X151525000Y-68590000D01*
X151273754Y-68639976D01*
X151133896Y-68639855D01*
X151125226Y-68032136D01*
X151114707Y-67982935D01*
X151117258Y-67932692D01*
X150981890Y-67009725D01*
X151084838Y-66761799D01*
X151085162Y-66389833D01*
X150943117Y-66046057D01*
X150680327Y-65782808D01*
X150336799Y-65640162D01*
X149964833Y-65639838D01*
X149960000Y-65641835D01*
X149960000Y-63037463D01*
X149992192Y-63005327D01*
X150134838Y-62661799D01*
X150135162Y-62289833D01*
X150030365Y-62036204D01*
X150321520Y-62230747D01*
X150775000Y-62320950D01*
X151228480Y-62230747D01*
X151612922Y-61973872D01*
X151775000Y-61731304D01*
X151937078Y-61973872D01*
X152321520Y-62230747D01*
X152775000Y-62320950D01*
X153228480Y-62230747D01*
X153612922Y-61973872D01*
X153775000Y-61731304D01*
X153937078Y-61973872D01*
X154321520Y-62230747D01*
X154775000Y-62320950D01*
X155228480Y-62230747D01*
X155612922Y-61973872D01*
X155775000Y-61731304D01*
X155937078Y-61973872D01*
X156321520Y-62230747D01*
X156775000Y-62320950D01*
X157228480Y-62230747D01*
X157612922Y-61973872D01*
X157775000Y-61731304D01*
X157937078Y-61973872D01*
X158066831Y-62060570D01*
X158072852Y-62090839D01*
X158237599Y-62337401D01*
X158464899Y-62564701D01*
X158464838Y-62635167D01*
X158606883Y-62978943D01*
X158869673Y-63242192D01*
X159213201Y-63384838D01*
X159585167Y-63385162D01*
X159928943Y-63243117D01*
X160192192Y-62980327D01*
X160334838Y-62636799D01*
X160335162Y-62264833D01*
X160320909Y-62230339D01*
X160321520Y-62230747D01*
X160775000Y-62320950D01*
X160783317Y-62319296D01*
X160707808Y-62394673D01*
X160565162Y-62738201D01*
X160564838Y-63110167D01*
X160706883Y-63453943D01*
X160740000Y-63487118D01*
X160740000Y-64460198D01*
X160235320Y-64964878D01*
X160189833Y-64964838D01*
X159846057Y-65106883D01*
X159582808Y-65369673D01*
X159440162Y-65713201D01*
X159439838Y-66085167D01*
X159581883Y-66428943D01*
X159844673Y-66692192D01*
X160188201Y-66834838D01*
X160560167Y-66835162D01*
X160903943Y-66693117D01*
X161167192Y-66430327D01*
X161309838Y-66086799D01*
X161309879Y-66039923D01*
X162037401Y-65312401D01*
X162202148Y-65065840D01*
X162260000Y-64775000D01*
X162260000Y-63487463D01*
X162292192Y-63455327D01*
X162345157Y-63327774D01*
X162663201Y-63459838D01*
X163035167Y-63460162D01*
X163378943Y-63318117D01*
X163642192Y-63055327D01*
X163784838Y-62711799D01*
X163785162Y-62339833D01*
X163709647Y-62157071D01*
X163776441Y-62114090D01*
X163921431Y-61901890D01*
X163972440Y-61650000D01*
X163972440Y-59250000D01*
X163928162Y-59014683D01*
X163789090Y-58798559D01*
X163576890Y-58653569D01*
X163325000Y-58602560D01*
X162225000Y-58602560D01*
X161989683Y-58646838D01*
X161773559Y-58785910D01*
X161644975Y-58974099D01*
X161612922Y-58926128D01*
X161228480Y-58669253D01*
X160775000Y-58579050D01*
X160321520Y-58669253D01*
X159937078Y-58926128D01*
X159775000Y-59168696D01*
X159612922Y-58926128D01*
X159228480Y-58669253D01*
X158775000Y-58579050D01*
X158321520Y-58669253D01*
X157937078Y-58926128D01*
X157775000Y-59168696D01*
X157612922Y-58926128D01*
X157228480Y-58669253D01*
X156775000Y-58579050D01*
X156321520Y-58669253D01*
X155937078Y-58926128D01*
X155775000Y-59168696D01*
X155612922Y-58926128D01*
X155228480Y-58669253D01*
X154775000Y-58579050D01*
X154321520Y-58669253D01*
X153937078Y-58926128D01*
X153775000Y-59168696D01*
X153612922Y-58926128D01*
X153228480Y-58669253D01*
X152775000Y-58579050D01*
X152321520Y-58669253D01*
X151937078Y-58926128D01*
X151775000Y-59168696D01*
X151612922Y-58926128D01*
X151228480Y-58669253D01*
X150775000Y-58579050D01*
X150321520Y-58669253D01*
X149937078Y-58926128D01*
X149773078Y-59171572D01*
X149523118Y-58872276D01*
X149111146Y-58656602D01*
X149084744Y-58656197D01*
X148902000Y-58781639D01*
X148902000Y-60323000D01*
X148922000Y-60323000D01*
X148922000Y-60577000D01*
X148902000Y-60577000D01*
X148902000Y-60597000D01*
X148648000Y-60597000D01*
X148648000Y-60577000D01*
X147590000Y-60577000D01*
X147590000Y-61227000D01*
X147728804Y-61670813D01*
X148026882Y-62027724D01*
X148311459Y-62176705D01*
X148265162Y-62288201D01*
X148265054Y-62412437D01*
X148164430Y-62345203D01*
X147710950Y-62255000D01*
X146339050Y-62255000D01*
X145885570Y-62345203D01*
X145501579Y-62601777D01*
X145298470Y-62398668D01*
X145517192Y-62180327D01*
X145659838Y-61836799D01*
X145660162Y-61464833D01*
X145518117Y-61121057D01*
X145296871Y-60899424D01*
X145346431Y-60826890D01*
X145397440Y-60575000D01*
X145397440Y-59673000D01*
X147590000Y-59673000D01*
X147590000Y-60323000D01*
X148648000Y-60323000D01*
X148648000Y-58781639D01*
X148465256Y-58656197D01*
X148438854Y-58656602D01*
X148026882Y-58872276D01*
X147728804Y-59229187D01*
X147590000Y-59673000D01*
X145397440Y-59673000D01*
X145397440Y-59575000D01*
X145353162Y-59339683D01*
X145214090Y-59123559D01*
X145144289Y-59075866D01*
X145201441Y-59039090D01*
X145346431Y-58826890D01*
X145397440Y-58575000D01*
X145397440Y-57575000D01*
X145353162Y-57339683D01*
X145214090Y-57123559D01*
X145001890Y-56978569D01*
X144934011Y-56964823D01*
X145059838Y-56661799D01*
X145060162Y-56289833D01*
X144918117Y-55946057D01*
X144655327Y-55682808D01*
X144311799Y-55540162D01*
X143939833Y-55539838D01*
X143596057Y-55681883D01*
X143332808Y-55944673D01*
X143190162Y-56288201D01*
X143189838Y-56660167D01*
X143314727Y-56962422D01*
X143264683Y-56971838D01*
X143048559Y-57110910D01*
X142903569Y-57323110D01*
X142852560Y-57575000D01*
X142852560Y-58575000D01*
X142896838Y-58810317D01*
X143035910Y-59026441D01*
X143105711Y-59074134D01*
X143048559Y-59110910D01*
X142903569Y-59323110D01*
X142852560Y-59575000D01*
X142852560Y-59705123D01*
X142805327Y-59657808D01*
X142461799Y-59515162D01*
X142235000Y-59514964D01*
X142235000Y-59037463D01*
X142267192Y-59005327D01*
X142409838Y-58661799D01*
X142410162Y-58289833D01*
X142268117Y-57946057D01*
X142005327Y-57682808D01*
X141661799Y-57540162D01*
X141289833Y-57539838D01*
X140946057Y-57681883D01*
X140682808Y-57944673D01*
X140540162Y-58288201D01*
X140539838Y-58660167D01*
X140681883Y-59003943D01*
X140715000Y-59037118D01*
X140715000Y-60950000D01*
X140772852Y-61240839D01*
X140937599Y-61487401D01*
X141462599Y-62012401D01*
X141554079Y-62073526D01*
X141482808Y-62144673D01*
X141340162Y-62488201D01*
X141339838Y-62860167D01*
X141348777Y-62881802D01*
X141182016Y-62950706D01*
X141118117Y-62796057D01*
X140855327Y-62532808D01*
X140511799Y-62390162D01*
X140139833Y-62389838D01*
X139796057Y-62531883D01*
X139532808Y-62794673D01*
X139390162Y-63138201D01*
X139390121Y-63185077D01*
X138562599Y-64012599D01*
X138397852Y-64259161D01*
X138340000Y-64550000D01*
X138340000Y-67075000D01*
X138370346Y-67227560D01*
X138260000Y-67227560D01*
X138260000Y-66973690D01*
X138163327Y-66740301D01*
X137984698Y-66561673D01*
X137751309Y-66465000D01*
X137721250Y-66465000D01*
X137562500Y-66623750D01*
X137562500Y-66630391D01*
X137376890Y-66503569D01*
X137302192Y-66488442D01*
X137278750Y-66465000D01*
X137248691Y-66465000D01*
X137228247Y-66473468D01*
X137125000Y-66452560D01*
X136875000Y-66452560D01*
X136745411Y-66476944D01*
X136625000Y-66452560D01*
X136375000Y-66452560D01*
X136139683Y-66496838D01*
X135923559Y-66635910D01*
X135778569Y-66848110D01*
X135727560Y-67100000D01*
X135727560Y-67323190D01*
X135652000Y-67398750D01*
X135652000Y-67727560D01*
X135398000Y-67727560D01*
X135398000Y-67398750D01*
X135239250Y-67240000D01*
X134973691Y-67240000D01*
X134740302Y-67336673D01*
X134561673Y-67515301D01*
X134465000Y-67748690D01*
X134465000Y-67778750D01*
X134623750Y-67937500D01*
X134630391Y-67937500D01*
X134503569Y-68123110D01*
X134488442Y-68197808D01*
X134465000Y-68221250D01*
X134465000Y-68251310D01*
X134473468Y-68271753D01*
X134452560Y-68375000D01*
X134452560Y-68625000D01*
X134474199Y-68740000D01*
X134185009Y-68740000D01*
X134185162Y-68564833D01*
X134096713Y-68350770D01*
X134117192Y-68330327D01*
X134259838Y-67986799D01*
X134260162Y-67614833D01*
X134118117Y-67271057D01*
X133855327Y-67007808D01*
X133511799Y-66865162D01*
X133416452Y-66865079D01*
X133315839Y-66797852D01*
X133125546Y-66760000D01*
X133250000Y-66760000D01*
X133540839Y-66702148D01*
X133787401Y-66537401D01*
X134627362Y-65697440D01*
X135150000Y-65697440D01*
X135385317Y-65653162D01*
X135601441Y-65514090D01*
X135746431Y-65301890D01*
X135797440Y-65050000D01*
X135797440Y-64350000D01*
X135753162Y-64114683D01*
X135614090Y-63898559D01*
X135401890Y-63753569D01*
X135388803Y-63750919D01*
X135601441Y-63614090D01*
X135638399Y-63560000D01*
X137100000Y-63560000D01*
X137390839Y-63502148D01*
X137637401Y-63337401D01*
X138914680Y-62060122D01*
X138960167Y-62060162D01*
X139303943Y-61918117D01*
X139567192Y-61655327D01*
X139709838Y-61311799D01*
X139710162Y-60939833D01*
X139568117Y-60596057D01*
X139305327Y-60332808D01*
X138961799Y-60190162D01*
X138589833Y-60189838D01*
X138246057Y-60331883D01*
X137982808Y-60594673D01*
X137840162Y-60938201D01*
X137840121Y-60985077D01*
X136785198Y-62040000D01*
X135640757Y-62040000D01*
X135614090Y-61998559D01*
X135401890Y-61853569D01*
X135260000Y-61824836D01*
X135260000Y-61750000D01*
X135202148Y-61459161D01*
X135037401Y-61212599D01*
X134972242Y-61147440D01*
X136150000Y-61147440D01*
X136385317Y-61103162D01*
X136601441Y-60964090D01*
X136746431Y-60751890D01*
X136797440Y-60500000D01*
X136797440Y-59777362D01*
X139814802Y-56760000D01*
X141950000Y-56760000D01*
X142240839Y-56702148D01*
X142487401Y-56537401D01*
X143577362Y-55447440D01*
X144150000Y-55447440D01*
X144385317Y-55403162D01*
X144601441Y-55264090D01*
X144639927Y-55207764D01*
X144639838Y-55310167D01*
X144781883Y-55653943D01*
X145044673Y-55917192D01*
X145388201Y-56059838D01*
X145760167Y-56060162D01*
X146103943Y-55918117D01*
X146367192Y-55655327D01*
X146490000Y-55359574D01*
X146490000Y-57339860D01*
X146464833Y-57339838D01*
X146121057Y-57481883D01*
X145857808Y-57744673D01*
X145715162Y-58088201D01*
X145714838Y-58460167D01*
X145856883Y-58803943D01*
X146119673Y-59067192D01*
X146463201Y-59209838D01*
X146835167Y-59210162D01*
X147178943Y-59068117D01*
X147442192Y-58805327D01*
X147584838Y-58461799D01*
X147584879Y-58414923D01*
X147787401Y-58212401D01*
X147952148Y-57965839D01*
X148010000Y-57675000D01*
X148010000Y-56910167D01*
X148839838Y-56910167D01*
X148981883Y-57253943D01*
X149244673Y-57517192D01*
X149588201Y-57659838D01*
X149675063Y-57659914D01*
X149806883Y-57978943D01*
X150069673Y-58242192D01*
X150413201Y-58384838D01*
X150785167Y-58385162D01*
X151128943Y-58243117D01*
X151392192Y-57980327D01*
X151534838Y-57636799D01*
X151534879Y-57589924D01*
X151614803Y-57510000D01*
X151762537Y-57510000D01*
X151794673Y-57542192D01*
X152138201Y-57684838D01*
X152510167Y-57685162D01*
X152615000Y-57641846D01*
X152615000Y-57676310D01*
X152711673Y-57909699D01*
X152890302Y-58088327D01*
X153123691Y-58185000D01*
X153464250Y-58185000D01*
X153623000Y-58026250D01*
X153623000Y-54927000D01*
X152773750Y-54927000D01*
X152661564Y-55039186D01*
X152580327Y-54957808D01*
X152236799Y-54815162D01*
X151864833Y-54814838D01*
X151521057Y-54956883D01*
X151487882Y-54990000D01*
X150750000Y-54990000D01*
X150459160Y-55047852D01*
X150212599Y-55212599D01*
X149635320Y-55789878D01*
X149589833Y-55789838D01*
X149246057Y-55931883D01*
X148982808Y-56194673D01*
X148840162Y-56538201D01*
X148839838Y-56910167D01*
X148010000Y-56910167D01*
X148010000Y-52600000D01*
X147952148Y-52309161D01*
X147787401Y-52062599D01*
X146774802Y-51050000D01*
X149902560Y-51050000D01*
X149902560Y-54050000D01*
X149946838Y-54285317D01*
X150085910Y-54501441D01*
X150298110Y-54646431D01*
X150550000Y-54697440D01*
X152150000Y-54697440D01*
X152385317Y-54653162D01*
X152601441Y-54514090D01*
X152615000Y-54494246D01*
X152615000Y-54514250D01*
X152773750Y-54673000D01*
X153623000Y-54673000D01*
X153623000Y-51573750D01*
X153877000Y-51573750D01*
X153877000Y-54673000D01*
X153897000Y-54673000D01*
X153897000Y-54927000D01*
X153877000Y-54927000D01*
X153877000Y-58026250D01*
X154035750Y-58185000D01*
X154376309Y-58185000D01*
X154609698Y-58088327D01*
X154750936Y-57947090D01*
X154785910Y-58001441D01*
X154998110Y-58146431D01*
X155250000Y-58197440D01*
X155600304Y-58197440D01*
X155819673Y-58417192D01*
X156163201Y-58559838D01*
X156535167Y-58560162D01*
X156878943Y-58418117D01*
X157125302Y-58172188D01*
X157250000Y-58197440D01*
X158250000Y-58197440D01*
X158485317Y-58153162D01*
X158701441Y-58014090D01*
X158749134Y-57944289D01*
X158785910Y-58001441D01*
X158998110Y-58146431D01*
X159250000Y-58197440D01*
X160250000Y-58197440D01*
X160485317Y-58153162D01*
X160701441Y-58014090D01*
X160749134Y-57944289D01*
X160785910Y-58001441D01*
X160998110Y-58146431D01*
X161250000Y-58197440D01*
X162250000Y-58197440D01*
X162485317Y-58153162D01*
X162701441Y-58014090D01*
X162749134Y-57944289D01*
X162785910Y-58001441D01*
X162998110Y-58146431D01*
X163250000Y-58197440D01*
X164250000Y-58197440D01*
X164485317Y-58153162D01*
X164701441Y-58014090D01*
X164846431Y-57801890D01*
X164897440Y-57550000D01*
X164897440Y-56328722D01*
X165213201Y-56459838D01*
X165585167Y-56460162D01*
X165928943Y-56318117D01*
X166192192Y-56055327D01*
X166334838Y-55711799D01*
X166335162Y-55339833D01*
X166193117Y-54996057D01*
X165930327Y-54732808D01*
X165845152Y-54697440D01*
X166950000Y-54697440D01*
X167185317Y-54653162D01*
X167401441Y-54514090D01*
X167546431Y-54301890D01*
X167597440Y-54050000D01*
X167597440Y-51050000D01*
X167553162Y-50814683D01*
X167414090Y-50598559D01*
X167201890Y-50453569D01*
X166950000Y-50402560D01*
X165350000Y-50402560D01*
X165114683Y-50446838D01*
X164898559Y-50585910D01*
X164753569Y-50798110D01*
X164702560Y-51050000D01*
X164702560Y-51590681D01*
X164501890Y-51453569D01*
X164250000Y-51402560D01*
X163250000Y-51402560D01*
X163014683Y-51446838D01*
X162798559Y-51585910D01*
X162750866Y-51655711D01*
X162714090Y-51598559D01*
X162501890Y-51453569D01*
X162250000Y-51402560D01*
X161828293Y-51402560D01*
X161834838Y-51386799D01*
X161835162Y-51014833D01*
X161693117Y-50671057D01*
X161430327Y-50407808D01*
X161086799Y-50265162D01*
X160714833Y-50264838D01*
X160371057Y-50406883D01*
X160337882Y-50440000D01*
X158537463Y-50440000D01*
X158505327Y-50407808D01*
X158161799Y-50265162D01*
X157789833Y-50264838D01*
X157446057Y-50406883D01*
X157182808Y-50669673D01*
X157040162Y-51013201D01*
X157039838Y-51385167D01*
X157061667Y-51437997D01*
X157014683Y-51446838D01*
X156798559Y-51585910D01*
X156750866Y-51655711D01*
X156714090Y-51598559D01*
X156501890Y-51453569D01*
X156250000Y-51402560D01*
X155250000Y-51402560D01*
X155014683Y-51446838D01*
X154798559Y-51585910D01*
X154752031Y-51654006D01*
X154609698Y-51511673D01*
X154376309Y-51415000D01*
X154035750Y-51415000D01*
X153877000Y-51573750D01*
X153623000Y-51573750D01*
X153464250Y-51415000D01*
X153123691Y-51415000D01*
X152890302Y-51511673D01*
X152797440Y-51604534D01*
X152797440Y-51050000D01*
X152753162Y-50814683D01*
X152614090Y-50598559D01*
X152401890Y-50453569D01*
X152150000Y-50402560D01*
X150550000Y-50402560D01*
X150314683Y-50446838D01*
X150098559Y-50585910D01*
X149953569Y-50798110D01*
X149902560Y-51050000D01*
X146774802Y-51050000D01*
X145559802Y-49835000D01*
X172390000Y-49835000D01*
X172390000Y-97740000D01*
X172390000Y-97740000D01*
G37*
X172390000Y-97740000D02*
X148417090Y-97740000D01*
X148923489Y-97639271D01*
X149409670Y-97314415D01*
X149734526Y-96828234D01*
X149848600Y-96254745D01*
X149848600Y-95885255D01*
X149734526Y-95311766D01*
X149409670Y-94825585D01*
X149341816Y-94780246D01*
X149641954Y-94444320D01*
X149835184Y-93891913D01*
X149690924Y-93657000D01*
X148477000Y-93657000D01*
X148477000Y-93677000D01*
X148223000Y-93677000D01*
X148223000Y-93657000D01*
X145937000Y-93657000D01*
X145937000Y-93677000D01*
X145683000Y-93677000D01*
X145683000Y-93657000D01*
X143397000Y-93657000D01*
X143397000Y-93677000D01*
X143143000Y-93677000D01*
X143143000Y-93657000D01*
X140857000Y-93657000D01*
X140857000Y-93677000D01*
X140603000Y-93677000D01*
X140603000Y-93657000D01*
X138317000Y-93657000D01*
X138317000Y-93677000D01*
X138063000Y-93677000D01*
X138063000Y-93657000D01*
X135777000Y-93657000D01*
X135777000Y-93677000D01*
X135523000Y-93677000D01*
X135523000Y-93657000D01*
X133237000Y-93657000D01*
X133237000Y-93677000D01*
X132983000Y-93677000D01*
X132983000Y-93657000D01*
X131769076Y-93657000D01*
X131624816Y-93891913D01*
X131818046Y-94444320D01*
X132118184Y-94780246D01*
X132050330Y-94825585D01*
X131725474Y-95311766D01*
X131611400Y-95885255D01*
X131611400Y-96254745D01*
X131725474Y-96828234D01*
X132050330Y-97314415D01*
X132536511Y-97639271D01*
X133042910Y-97740000D01*
X105810000Y-97740000D01*
X105810000Y-92750000D01*
X119002560Y-92750000D01*
X119002560Y-96150000D01*
X119046838Y-96385317D01*
X119185910Y-96601441D01*
X119398110Y-96746431D01*
X119650000Y-96797440D01*
X121150000Y-96797440D01*
X121385317Y-96753162D01*
X121601441Y-96614090D01*
X121746431Y-96401890D01*
X121797440Y-96150000D01*
X121797440Y-95372151D01*
X121888201Y-95409838D01*
X122260167Y-95410162D01*
X122603943Y-95268117D01*
X122867192Y-95005327D01*
X123009838Y-94661799D01*
X123009904Y-94585167D01*
X124889838Y-94585167D01*
X125031883Y-94928943D01*
X125294673Y-95192192D01*
X125638201Y-95334838D01*
X125702560Y-95334894D01*
X125702560Y-96150000D01*
X125746838Y-96385317D01*
X125885910Y-96601441D01*
X126098110Y-96746431D01*
X126350000Y-96797440D01*
X127850000Y-96797440D01*
X128085317Y-96753162D01*
X128301441Y-96614090D01*
X128446431Y-96401890D01*
X128497440Y-96150000D01*
X128497440Y-92750000D01*
X128453162Y-92514683D01*
X128314090Y-92298559D01*
X128101890Y-92153569D01*
X127850000Y-92102560D01*
X126350000Y-92102560D01*
X126114683Y-92146838D01*
X125898559Y-92285910D01*
X125753569Y-92498110D01*
X125702560Y-92750000D01*
X125702560Y-93464893D01*
X125639833Y-93464838D01*
X125296057Y-93606883D01*
X125032808Y-93869673D01*
X124890162Y-94213201D01*
X124889838Y-94585167D01*
X123009904Y-94585167D01*
X123010162Y-94289833D01*
X122868117Y-93946057D01*
X122605327Y-93682808D01*
X122261799Y-93540162D01*
X121889833Y-93539838D01*
X121797440Y-93578014D01*
X121797440Y-92750000D01*
X121753162Y-92514683D01*
X121614090Y-92298559D01*
X121401890Y-92153569D01*
X121150000Y-92102560D01*
X119650000Y-92102560D01*
X119414683Y-92146838D01*
X119198559Y-92285910D01*
X119053569Y-92498110D01*
X119002560Y-92750000D01*
X105810000Y-92750000D01*
X105810000Y-89027333D01*
X105948298Y-89084759D01*
X106499285Y-89085240D01*
X107008515Y-88874831D01*
X107398461Y-88485564D01*
X107609759Y-87976702D01*
X107609761Y-87974285D01*
X110839760Y-87974285D01*
X111050169Y-88483515D01*
X111439436Y-88873461D01*
X111948298Y-89084759D01*
X112499285Y-89085240D01*
X113008515Y-88874831D01*
X113398461Y-88485564D01*
X113523196Y-88185167D01*
X119814838Y-88185167D01*
X119956883Y-88528943D01*
X120219673Y-88792192D01*
X120563201Y-88934838D01*
X120610077Y-88934879D01*
X121112599Y-89437401D01*
X121359160Y-89602148D01*
X121602560Y-89650564D01*
X121602560Y-90650000D01*
X121646838Y-90885317D01*
X121785910Y-91101441D01*
X121998110Y-91246431D01*
X122250000Y-91297440D01*
X123250000Y-91297440D01*
X123485317Y-91253162D01*
X123701441Y-91114090D01*
X123749134Y-91044289D01*
X123785910Y-91101441D01*
X123998110Y-91246431D01*
X124250000Y-91297440D01*
X125250000Y-91297440D01*
X125485317Y-91253162D01*
X125701441Y-91114090D01*
X125846431Y-90901890D01*
X125866000Y-90805255D01*
X131611400Y-90805255D01*
X131611400Y-91174745D01*
X131725474Y-91748234D01*
X132050330Y-92234415D01*
X132118184Y-92279754D01*
X131818046Y-92615680D01*
X131624816Y-93168087D01*
X131769076Y-93403000D01*
X132983000Y-93403000D01*
X132983000Y-93383000D01*
X133237000Y-93383000D01*
X133237000Y-93403000D01*
X135523000Y-93403000D01*
X135523000Y-93383000D01*
X135777000Y-93383000D01*
X135777000Y-93403000D01*
X138063000Y-93403000D01*
X138063000Y-93383000D01*
X138317000Y-93383000D01*
X138317000Y-93403000D01*
X140603000Y-93403000D01*
X140603000Y-93383000D01*
X140857000Y-93383000D01*
X140857000Y-93403000D01*
X143143000Y-93403000D01*
X143143000Y-93383000D01*
X143397000Y-93383000D01*
X143397000Y-93403000D01*
X145683000Y-93403000D01*
X145683000Y-93383000D01*
X145937000Y-93383000D01*
X145937000Y-93403000D01*
X148223000Y-93403000D01*
X148223000Y-93383000D01*
X148477000Y-93383000D01*
X148477000Y-93403000D01*
X149690924Y-93403000D01*
X149835184Y-93168087D01*
X149641954Y-92615680D01*
X149341816Y-92279754D01*
X149409670Y-92234415D01*
X149734526Y-91748234D01*
X149848600Y-91174745D01*
X149848600Y-90805255D01*
X149734526Y-90231766D01*
X149409670Y-89745585D01*
X148923489Y-89420729D01*
X148350000Y-89306655D01*
X147776511Y-89420729D01*
X147290330Y-89745585D01*
X147080000Y-90060366D01*
X146869670Y-89745585D01*
X146383489Y-89420729D01*
X145810000Y-89306655D01*
X145236511Y-89420729D01*
X144750330Y-89745585D01*
X144540000Y-90060366D01*
X144329670Y-89745585D01*
X143843489Y-89420729D01*
X143270000Y-89306655D01*
X142696511Y-89420729D01*
X142210330Y-89745585D01*
X142000000Y-90060366D01*
X141789670Y-89745585D01*
X141303489Y-89420729D01*
X140730000Y-89306655D01*
X140156511Y-89420729D01*
X139670330Y-89745585D01*
X139460000Y-90060366D01*
X139249670Y-89745585D01*
X138763489Y-89420729D01*
X138190000Y-89306655D01*
X137616511Y-89420729D01*
X137130330Y-89745585D01*
X136920000Y-90060366D01*
X136709670Y-89745585D01*
X136223489Y-89420729D01*
X135650000Y-89306655D01*
X135076511Y-89420729D01*
X134590330Y-89745585D01*
X134380000Y-90060366D01*
X134169670Y-89745585D01*
X133683489Y-89420729D01*
X133110000Y-89306655D01*
X132536511Y-89420729D01*
X132050330Y-89745585D01*
X131725474Y-90231766D01*
X131611400Y-90805255D01*
X125866000Y-90805255D01*
X125897440Y-90650000D01*
X125897440Y-89784911D01*
X126185167Y-89785162D01*
X126528943Y-89643117D01*
X126792192Y-89380327D01*
X126934838Y-89036799D01*
X126935162Y-88664833D01*
X126793117Y-88321057D01*
X126530327Y-88057808D01*
X126186799Y-87915162D01*
X125897440Y-87914910D01*
X125897440Y-87150000D01*
X125853162Y-86914683D01*
X125714090Y-86698559D01*
X125501890Y-86553569D01*
X125250000Y-86502560D01*
X124250000Y-86502560D01*
X124014683Y-86546838D01*
X123798559Y-86685910D01*
X123750866Y-86755711D01*
X123714090Y-86698559D01*
X123501890Y-86553569D01*
X123250000Y-86502560D01*
X122250000Y-86502560D01*
X122014683Y-86546838D01*
X121798559Y-86685910D01*
X121653569Y-86898110D01*
X121602560Y-87150000D01*
X121602560Y-87614920D01*
X121543117Y-87471057D01*
X121280327Y-87207808D01*
X120936799Y-87065162D01*
X120564833Y-87064838D01*
X120221057Y-87206883D01*
X119957808Y-87469673D01*
X119815162Y-87813201D01*
X119814838Y-88185167D01*
X113523196Y-88185167D01*
X113609759Y-87976702D01*
X113610240Y-87425715D01*
X113399831Y-86916485D01*
X113010564Y-86526539D01*
X112501702Y-86315241D01*
X111950715Y-86314760D01*
X111441485Y-86525169D01*
X111051539Y-86914436D01*
X110840241Y-87423298D01*
X110839760Y-87974285D01*
X107609761Y-87974285D01*
X107610240Y-87425715D01*
X107399831Y-86916485D01*
X107010564Y-86526539D01*
X106501702Y-86315241D01*
X105950715Y-86314760D01*
X105810000Y-86372902D01*
X105810000Y-85904971D01*
X109439821Y-85904971D01*
X109597058Y-86285515D01*
X109887954Y-86576919D01*
X110268223Y-86734820D01*
X110679971Y-86735179D01*
X111060515Y-86577942D01*
X111351919Y-86287046D01*
X111509820Y-85906777D01*
X111510179Y-85495029D01*
X111352942Y-85114485D01*
X111062046Y-84823081D01*
X110681777Y-84665180D01*
X110270029Y-84664821D01*
X109889485Y-84822058D01*
X109598081Y-85112954D01*
X109440180Y-85493223D01*
X109439821Y-85904971D01*
X105810000Y-85904971D01*
X105810000Y-77904971D01*
X109439821Y-77904971D01*
X109597058Y-78285515D01*
X109887954Y-78576919D01*
X110268223Y-78734820D01*
X110679971Y-78735179D01*
X111060515Y-78577942D01*
X111351919Y-78287046D01*
X111509820Y-77906777D01*
X111509995Y-77705167D01*
X113676838Y-77705167D01*
X113818883Y-78048943D01*
X114081673Y-78312192D01*
X114425201Y-78454838D01*
X114797167Y-78455162D01*
X115140943Y-78313117D01*
X115182581Y-78271552D01*
X115300910Y-78455441D01*
X115513110Y-78600431D01*
X115765000Y-78651440D01*
X117015000Y-78651440D01*
X117250317Y-78607162D01*
X117466441Y-78468090D01*
X117611431Y-78255890D01*
X117662440Y-78004000D01*
X117662440Y-77004000D01*
X117618162Y-76768683D01*
X117479090Y-76552559D01*
X117410994Y-76506031D01*
X117553327Y-76363698D01*
X117650000Y-76130309D01*
X117650000Y-75789750D01*
X117491250Y-75631000D01*
X116517000Y-75631000D01*
X116517000Y-75651000D01*
X116263000Y-75651000D01*
X116263000Y-75631000D01*
X115288750Y-75631000D01*
X115130000Y-75789750D01*
X115130000Y-76130309D01*
X115226673Y-76363698D01*
X115367910Y-76504936D01*
X115313559Y-76539910D01*
X115174110Y-76744000D01*
X115158491Y-76744000D01*
X115142327Y-76727808D01*
X114798799Y-76585162D01*
X114426833Y-76584838D01*
X114083057Y-76726883D01*
X113819808Y-76989673D01*
X113677162Y-77333201D01*
X113676838Y-77705167D01*
X111509995Y-77705167D01*
X111510179Y-77495029D01*
X111352942Y-77114485D01*
X111062046Y-76823081D01*
X110681777Y-76665180D01*
X110270029Y-76664821D01*
X109889485Y-76822058D01*
X109598081Y-77112954D01*
X109440180Y-77493223D01*
X109439821Y-77904971D01*
X105810000Y-77904971D01*
X105810000Y-77027333D01*
X105948298Y-77084759D01*
X106499285Y-77085240D01*
X107008515Y-76874831D01*
X107398461Y-76485564D01*
X107609759Y-75976702D01*
X107609761Y-75974285D01*
X110839760Y-75974285D01*
X111050169Y-76483515D01*
X111439436Y-76873461D01*
X111948298Y-77084759D01*
X112499285Y-77085240D01*
X113008515Y-76874831D01*
X113398461Y-76485564D01*
X113609759Y-75976702D01*
X113610240Y-75425715D01*
X113399831Y-74916485D01*
X113010564Y-74526539D01*
X112501702Y-74315241D01*
X111950715Y-74314760D01*
X111441485Y-74525169D01*
X111051539Y-74914436D01*
X110840241Y-75423298D01*
X110839760Y-75974285D01*
X107609761Y-75974285D01*
X107610240Y-75425715D01*
X107399831Y-74916485D01*
X107168332Y-74684582D01*
X107335317Y-74653162D01*
X107551441Y-74514090D01*
X107599134Y-74444289D01*
X107635910Y-74501441D01*
X107848110Y-74646431D01*
X108100000Y-74697440D01*
X109300000Y-74697440D01*
X109535317Y-74653162D01*
X109751441Y-74514090D01*
X109855988Y-74361081D01*
X109913201Y-74384838D01*
X110285167Y-74385162D01*
X110628943Y-74243117D01*
X110892192Y-73980327D01*
X111034838Y-73636799D01*
X111035162Y-73264833D01*
X110893117Y-72921057D01*
X110630327Y-72657808D01*
X110286799Y-72515162D01*
X109914833Y-72514838D01*
X109854859Y-72539619D01*
X109764090Y-72398559D01*
X109551890Y-72253569D01*
X109493392Y-72241723D01*
X109552943Y-72217117D01*
X109816192Y-71954327D01*
X109916119Y-71713676D01*
X110070317Y-71684662D01*
X110286441Y-71545590D01*
X110431431Y-71333390D01*
X110482440Y-71081500D01*
X110482440Y-68981500D01*
X110438162Y-68746183D01*
X110414088Y-68708772D01*
X110431431Y-68683390D01*
X110482440Y-68431500D01*
X110482440Y-68362883D01*
X110525673Y-68406192D01*
X110869201Y-68548838D01*
X111241167Y-68549162D01*
X111281192Y-68532624D01*
X111405910Y-68726441D01*
X111618110Y-68871431D01*
X111640000Y-68875864D01*
X111640000Y-69700000D01*
X111697852Y-69990839D01*
X111862599Y-70237401D01*
X111952560Y-70327362D01*
X111952560Y-70900000D01*
X111996838Y-71135317D01*
X112135910Y-71351441D01*
X112348110Y-71496431D01*
X112361197Y-71499081D01*
X112148559Y-71635910D01*
X112003569Y-71848110D01*
X111952560Y-72100000D01*
X111952560Y-72800000D01*
X111996838Y-73035317D01*
X112135910Y-73251441D01*
X112348110Y-73396431D01*
X112600000Y-73447440D01*
X112619080Y-73447440D01*
X112712599Y-73587401D01*
X112764878Y-73639680D01*
X112764838Y-73685167D01*
X112906883Y-74028943D01*
X113169673Y-74292192D01*
X113513201Y-74434838D01*
X113885167Y-74435162D01*
X114228943Y-74293117D01*
X114492192Y-74030327D01*
X114634838Y-73686799D01*
X114635162Y-73314833D01*
X114506326Y-73003026D01*
X114547440Y-72800000D01*
X114547440Y-72100000D01*
X114503162Y-71864683D01*
X114364090Y-71648559D01*
X114151890Y-71503569D01*
X114138803Y-71500919D01*
X114351441Y-71364090D01*
X114496431Y-71151890D01*
X114547440Y-70900000D01*
X114547440Y-70813691D01*
X115130000Y-70813691D01*
X115130000Y-71154250D01*
X115288750Y-71313000D01*
X116263000Y-71313000D01*
X116263000Y-70463750D01*
X116104250Y-70305000D01*
X115638690Y-70305000D01*
X115405301Y-70401673D01*
X115226673Y-70580302D01*
X115130000Y-70813691D01*
X114547440Y-70813691D01*
X114547440Y-70200000D01*
X114503162Y-69964683D01*
X114465718Y-69906493D01*
X114642192Y-69730327D01*
X114784838Y-69386799D01*
X114784879Y-69339923D01*
X115137401Y-68987401D01*
X115188113Y-68911505D01*
X115365317Y-68878162D01*
X115581441Y-68739090D01*
X115634926Y-68660812D01*
X115813201Y-68734838D01*
X115860077Y-68734879D01*
X116202560Y-69077362D01*
X116202560Y-69300000D01*
X116246838Y-69535317D01*
X116385910Y-69751441D01*
X116598110Y-69896431D01*
X116850000Y-69947440D01*
X118150000Y-69947440D01*
X118385317Y-69903162D01*
X118601441Y-69764090D01*
X118746431Y-69551890D01*
X118797440Y-69300000D01*
X118797440Y-68600000D01*
X118753162Y-68364683D01*
X118614090Y-68148559D01*
X118401890Y-68003569D01*
X118388803Y-68000919D01*
X118533200Y-67908002D01*
X119015000Y-68389802D01*
X119015000Y-68562537D01*
X118982808Y-68594673D01*
X118840162Y-68938201D01*
X118839838Y-69310167D01*
X118981883Y-69653943D01*
X119244673Y-69917192D01*
X119588201Y-70059838D01*
X119960167Y-70060162D01*
X120303943Y-69918117D01*
X120340000Y-69882123D01*
X120340000Y-70543644D01*
X120339890Y-70543569D01*
X120088000Y-70492560D01*
X118788000Y-70492560D01*
X118577675Y-70532135D01*
X118536799Y-70515162D01*
X118164833Y-70514838D01*
X117821057Y-70656883D01*
X117650000Y-70827642D01*
X117650000Y-70813691D01*
X117553327Y-70580302D01*
X117374699Y-70401673D01*
X117141310Y-70305000D01*
X116675750Y-70305000D01*
X116517000Y-70463750D01*
X116517000Y-71313000D01*
X116537000Y-71313000D01*
X116537000Y-71567000D01*
X116517000Y-71567000D01*
X116517000Y-71587000D01*
X116263000Y-71587000D01*
X116263000Y-71567000D01*
X115288750Y-71567000D01*
X115130000Y-71725750D01*
X115130000Y-72066309D01*
X115226673Y-72299698D01*
X115367910Y-72440936D01*
X115313559Y-72475910D01*
X115168569Y-72688110D01*
X115117560Y-72940000D01*
X115117560Y-73940000D01*
X115161838Y-74175317D01*
X115300910Y-74391441D01*
X115407948Y-74464577D01*
X115405301Y-74465673D01*
X115226673Y-74644302D01*
X115130000Y-74877691D01*
X115130000Y-75218250D01*
X115288750Y-75377000D01*
X116263000Y-75377000D01*
X116263000Y-75357000D01*
X116517000Y-75357000D01*
X116517000Y-75377000D01*
X117491250Y-75377000D01*
X117650000Y-75218250D01*
X117650000Y-74877691D01*
X117644542Y-74864515D01*
X117727201Y-74898838D01*
X118099167Y-74899162D01*
X118165560Y-74871729D01*
X118165560Y-75750000D01*
X118209838Y-75985317D01*
X118348910Y-76201441D01*
X118418711Y-76249134D01*
X118361559Y-76285910D01*
X118216569Y-76498110D01*
X118165560Y-76750000D01*
X118165560Y-77750000D01*
X118209838Y-77985317D01*
X118348910Y-78201441D01*
X118561110Y-78346431D01*
X118678000Y-78370102D01*
X118678000Y-80940000D01*
X111178761Y-80940000D01*
X111062046Y-80823081D01*
X110681777Y-80665180D01*
X110270029Y-80664821D01*
X109889485Y-80822058D01*
X109598081Y-81112954D01*
X109440180Y-81493223D01*
X109439821Y-81904971D01*
X109597058Y-82285515D01*
X109887954Y-82576919D01*
X110268223Y-82734820D01*
X110679971Y-82735179D01*
X111060515Y-82577942D01*
X111178663Y-82460000D01*
X118677069Y-82460000D01*
X118735910Y-82551441D01*
X118948110Y-82696431D01*
X118961197Y-82699081D01*
X118748559Y-82835910D01*
X118603569Y-83048110D01*
X118552560Y-83300000D01*
X118552560Y-84000000D01*
X118596838Y-84235317D01*
X118735910Y-84451441D01*
X118948110Y-84596431D01*
X119200000Y-84647440D01*
X120500000Y-84647440D01*
X120735317Y-84603162D01*
X120951441Y-84464090D01*
X120988399Y-84410000D01*
X121745331Y-84410000D01*
X121755910Y-84426441D01*
X121968110Y-84571431D01*
X122220000Y-84622440D01*
X123280000Y-84622440D01*
X123515317Y-84578162D01*
X123731441Y-84439090D01*
X123851233Y-84263768D01*
X123955910Y-84426441D01*
X124168110Y-84571431D01*
X124420000Y-84622440D01*
X125480000Y-84622440D01*
X125715317Y-84578162D01*
X125931441Y-84439090D01*
X126076431Y-84226890D01*
X126127440Y-83975000D01*
X126127440Y-83325000D01*
X126083162Y-83089683D01*
X125944090Y-82873559D01*
X125731890Y-82728569D01*
X125617435Y-82705391D01*
X125839698Y-82613327D01*
X126018327Y-82434699D01*
X126115000Y-82201310D01*
X126115000Y-82035750D01*
X125956250Y-81877000D01*
X125077000Y-81877000D01*
X125077000Y-81897000D01*
X124823000Y-81897000D01*
X124823000Y-81877000D01*
X124803000Y-81877000D01*
X124803000Y-81623000D01*
X124823000Y-81623000D01*
X124823000Y-80948750D01*
X124664250Y-80790000D01*
X124293691Y-80790000D01*
X124060302Y-80886673D01*
X123881673Y-81065301D01*
X123850912Y-81139565D01*
X123744090Y-80973559D01*
X123531890Y-80828569D01*
X123280000Y-80777560D01*
X122220000Y-80777560D01*
X121984683Y-80821838D01*
X121768559Y-80960910D01*
X121748683Y-80990000D01*
X120990757Y-80990000D01*
X120964090Y-80948559D01*
X120751890Y-80803569D01*
X120500000Y-80752560D01*
X120198000Y-80752560D01*
X120198000Y-78372038D01*
X120298317Y-78353162D01*
X120514441Y-78214090D01*
X120659431Y-78001890D01*
X120710440Y-77750000D01*
X120710440Y-76903947D01*
X120775201Y-76930838D01*
X121147167Y-76931162D01*
X121490943Y-76789117D01*
X121754192Y-76526327D01*
X121896838Y-76182799D01*
X121897162Y-75810833D01*
X121755117Y-75467057D01*
X121492327Y-75203808D01*
X121148799Y-75061162D01*
X121101923Y-75061121D01*
X120803401Y-74762599D01*
X120699783Y-74693364D01*
X120666162Y-74514683D01*
X120527090Y-74298559D01*
X120461877Y-74254001D01*
X120539441Y-74204090D01*
X120602572Y-74111695D01*
X120700839Y-74092148D01*
X120947401Y-73927401D01*
X121637401Y-73237401D01*
X121802148Y-72990840D01*
X121860000Y-72700000D01*
X121860000Y-69627065D01*
X121998110Y-69721431D01*
X122155579Y-69753319D01*
X122197852Y-69965839D01*
X122362599Y-70212401D01*
X122464878Y-70314680D01*
X122464838Y-70360167D01*
X122606883Y-70703943D01*
X122869673Y-70967192D01*
X123213201Y-71109838D01*
X123585167Y-71110162D01*
X123727560Y-71051327D01*
X123727560Y-71198207D01*
X123646057Y-71231883D01*
X123382808Y-71494673D01*
X123240162Y-71838201D01*
X123239838Y-72210167D01*
X123381883Y-72553943D01*
X123644673Y-72817192D01*
X123988201Y-72959838D01*
X124240000Y-72960057D01*
X124240000Y-74337077D01*
X124071057Y-74406883D01*
X123807808Y-74669673D01*
X123665162Y-75013201D01*
X123664838Y-75385167D01*
X123806883Y-75728943D01*
X124069673Y-75992192D01*
X124363414Y-76114164D01*
X124307808Y-76169673D01*
X124165162Y-76513201D01*
X124164838Y-76885167D01*
X124306883Y-77228943D01*
X124569673Y-77492192D01*
X124913201Y-77634838D01*
X125123966Y-77635022D01*
X125071057Y-77656883D01*
X124807808Y-77919673D01*
X124665162Y-78263201D01*
X124664838Y-78635167D01*
X124806883Y-78978943D01*
X125069673Y-79242192D01*
X125413201Y-79384838D01*
X125740000Y-79385123D01*
X125740000Y-79712624D01*
X125657808Y-79794673D01*
X125515162Y-80138201D01*
X125514838Y-80510167D01*
X125635450Y-80802071D01*
X125606309Y-80790000D01*
X125235750Y-80790000D01*
X125077000Y-80948750D01*
X125077000Y-81623000D01*
X125956250Y-81623000D01*
X126115000Y-81464250D01*
X126115000Y-81298690D01*
X126064779Y-81177446D01*
X126263201Y-81259838D01*
X126635167Y-81260162D01*
X126978943Y-81118117D01*
X127242192Y-80855327D01*
X127384838Y-80511799D01*
X127385162Y-80139833D01*
X127260000Y-79836917D01*
X127260000Y-77665080D01*
X127315000Y-77687918D01*
X127315000Y-78500000D01*
X127372852Y-78790839D01*
X127537599Y-79037401D01*
X128712599Y-80212401D01*
X128959161Y-80377148D01*
X129250000Y-80435000D01*
X137212537Y-80435000D01*
X137244673Y-80467192D01*
X137588201Y-80609838D01*
X137960167Y-80610162D01*
X138303943Y-80468117D01*
X138548843Y-80223645D01*
X144228194Y-85902996D01*
X144331883Y-86153943D01*
X144594673Y-86417192D01*
X144603506Y-86420860D01*
X144565162Y-86513201D01*
X144564838Y-86885167D01*
X144706883Y-87228943D01*
X144969673Y-87492192D01*
X145313201Y-87634838D01*
X145685167Y-87635162D01*
X146028943Y-87493117D01*
X146292192Y-87230327D01*
X146434838Y-86886799D01*
X146434879Y-86839923D01*
X147765143Y-85509659D01*
X147764838Y-85860167D01*
X147906883Y-86203943D01*
X148169673Y-86467192D01*
X148513201Y-86609838D01*
X148885167Y-86610162D01*
X149228943Y-86468117D01*
X149312205Y-86385000D01*
X150337537Y-86385000D01*
X150369673Y-86417192D01*
X150713201Y-86559838D01*
X151085167Y-86560162D01*
X151428943Y-86418117D01*
X151692192Y-86155327D01*
X151834838Y-85811799D01*
X151835162Y-85439833D01*
X151693117Y-85096057D01*
X151683210Y-85086133D01*
X151734838Y-84961799D01*
X151735162Y-84589833D01*
X151691016Y-84482992D01*
X151746431Y-84401890D01*
X151753191Y-84368510D01*
X151811673Y-84509699D01*
X151990302Y-84688327D01*
X152223691Y-84785000D01*
X152414250Y-84785000D01*
X152573000Y-84626250D01*
X152573000Y-83627000D01*
X152827000Y-83627000D01*
X152827000Y-84626250D01*
X152985750Y-84785000D01*
X153176309Y-84785000D01*
X153409698Y-84688327D01*
X153588327Y-84509699D01*
X153685000Y-84276310D01*
X153685000Y-83785750D01*
X153526250Y-83627000D01*
X152827000Y-83627000D01*
X152573000Y-83627000D01*
X152553000Y-83627000D01*
X152553000Y-83373000D01*
X152573000Y-83373000D01*
X152573000Y-83353000D01*
X152827000Y-83353000D01*
X152827000Y-83373000D01*
X153526250Y-83373000D01*
X153685000Y-83214250D01*
X153685000Y-82723690D01*
X154565000Y-82723690D01*
X154565000Y-83214250D01*
X154723750Y-83373000D01*
X155423000Y-83373000D01*
X155423000Y-82373750D01*
X155264250Y-82215000D01*
X155073691Y-82215000D01*
X154840302Y-82311673D01*
X154661673Y-82490301D01*
X154565000Y-82723690D01*
X153685000Y-82723690D01*
X153588327Y-82490301D01*
X153409698Y-82311673D01*
X153176309Y-82215000D01*
X152985750Y-82215000D01*
X152827002Y-82373748D01*
X152827002Y-82322800D01*
X153362401Y-81787401D01*
X153527148Y-81540839D01*
X153547189Y-81440087D01*
X153626441Y-81389090D01*
X153771431Y-81176890D01*
X153774081Y-81163803D01*
X153910910Y-81376441D01*
X154123110Y-81521431D01*
X154375000Y-81572440D01*
X155075000Y-81572440D01*
X155310317Y-81528162D01*
X155526441Y-81389090D01*
X155671431Y-81176890D01*
X155700164Y-81035000D01*
X156138469Y-81035000D01*
X156150990Y-81065303D01*
X156294150Y-81208714D01*
X155996057Y-81331883D01*
X155732808Y-81594673D01*
X155590162Y-81938201D01*
X155589838Y-82310167D01*
X155677000Y-82521116D01*
X155677000Y-83373000D01*
X155697000Y-83373000D01*
X155697000Y-83627000D01*
X155677000Y-83627000D01*
X155677000Y-83647000D01*
X155423000Y-83647000D01*
X155423000Y-83627000D01*
X154723750Y-83627000D01*
X154565000Y-83785750D01*
X154565000Y-84276310D01*
X154661673Y-84509699D01*
X154792011Y-84640036D01*
X154564833Y-84639838D01*
X154221057Y-84781883D01*
X153957808Y-85044673D01*
X153815162Y-85388201D01*
X153814838Y-85760167D01*
X153956883Y-86103943D01*
X154219673Y-86367192D01*
X154563201Y-86509838D01*
X154935167Y-86510162D01*
X155278943Y-86368117D01*
X155362205Y-86285000D01*
X155550000Y-86285000D01*
X155840839Y-86227148D01*
X156087401Y-86062401D01*
X157062401Y-85087401D01*
X157227148Y-84840840D01*
X157235781Y-84797440D01*
X157800000Y-84797440D01*
X158035317Y-84753162D01*
X158251441Y-84614090D01*
X158396431Y-84401890D01*
X158447440Y-84150000D01*
X158447440Y-83860750D01*
X158590000Y-83860750D01*
X158590000Y-84351310D01*
X158686673Y-84584699D01*
X158865302Y-84763327D01*
X159098691Y-84860000D01*
X159289250Y-84860000D01*
X159448000Y-84701250D01*
X159448000Y-83702000D01*
X158748750Y-83702000D01*
X158590000Y-83860750D01*
X158447440Y-83860750D01*
X158447440Y-83577362D01*
X158662776Y-83362026D01*
X158748750Y-83448000D01*
X159448000Y-83448000D01*
X159448000Y-83428000D01*
X159702000Y-83428000D01*
X159702000Y-83448000D01*
X159722000Y-83448000D01*
X159722000Y-83702000D01*
X159702000Y-83702000D01*
X159702000Y-84701250D01*
X159860750Y-84860000D01*
X160051309Y-84860000D01*
X160284698Y-84763327D01*
X160463327Y-84584699D01*
X160519654Y-84448713D01*
X160521838Y-84460317D01*
X160660910Y-84676441D01*
X160873110Y-84821431D01*
X161125000Y-84872440D01*
X161352849Y-84872440D01*
X161315162Y-84963201D01*
X161314838Y-85335167D01*
X161340000Y-85396064D01*
X161340000Y-88487721D01*
X161148559Y-88610910D01*
X161120470Y-88652019D01*
X161209838Y-88436799D01*
X161210162Y-88064833D01*
X161068117Y-87721057D01*
X160805327Y-87457808D01*
X160461799Y-87315162D01*
X160089833Y-87314838D01*
X159746057Y-87456883D01*
X159482808Y-87719673D01*
X159460132Y-87774283D01*
X159460162Y-87739833D01*
X159318117Y-87396057D01*
X159055327Y-87132808D01*
X158711799Y-86990162D01*
X158339833Y-86989838D01*
X157996057Y-87131883D01*
X157732808Y-87394673D01*
X157590162Y-87738201D01*
X157590121Y-87785077D01*
X157562599Y-87812599D01*
X157397852Y-88059161D01*
X157340000Y-88350000D01*
X157340000Y-88487721D01*
X157148559Y-88610910D01*
X157100866Y-88680711D01*
X157064090Y-88623559D01*
X156851890Y-88478569D01*
X156600000Y-88427560D01*
X155600000Y-88427560D01*
X155364683Y-88471838D01*
X155148559Y-88610910D01*
X155003569Y-88823110D01*
X154952560Y-89075000D01*
X154952560Y-89438230D01*
X154836799Y-89390162D01*
X154464833Y-89389838D01*
X154121057Y-89531883D01*
X153857808Y-89794673D01*
X153715162Y-90138201D01*
X153714838Y-90510167D01*
X153856883Y-90853943D01*
X154119673Y-91117192D01*
X154463201Y-91259838D01*
X154510077Y-91259879D01*
X154952560Y-91702362D01*
X154952560Y-92115681D01*
X154751890Y-91978569D01*
X154500000Y-91927560D01*
X152900000Y-91927560D01*
X152664683Y-91971838D01*
X152448559Y-92110910D01*
X152303569Y-92323110D01*
X152252560Y-92575000D01*
X152252560Y-95575000D01*
X152296838Y-95810317D01*
X152435910Y-96026441D01*
X152648110Y-96171431D01*
X152900000Y-96222440D01*
X154500000Y-96222440D01*
X154735317Y-96178162D01*
X154951441Y-96039090D01*
X155096431Y-95826890D01*
X155147440Y-95575000D01*
X155147440Y-95034319D01*
X155348110Y-95171431D01*
X155600000Y-95222440D01*
X156600000Y-95222440D01*
X156835317Y-95178162D01*
X157051441Y-95039090D01*
X157099134Y-94969289D01*
X157135910Y-95026441D01*
X157348110Y-95171431D01*
X157600000Y-95222440D01*
X158600000Y-95222440D01*
X158835317Y-95178162D01*
X159051441Y-95039090D01*
X159099134Y-94969289D01*
X159135910Y-95026441D01*
X159348110Y-95171431D01*
X159600000Y-95222440D01*
X160600000Y-95222440D01*
X160835317Y-95178162D01*
X161051441Y-95039090D01*
X161099134Y-94969289D01*
X161135910Y-95026441D01*
X161348110Y-95171431D01*
X161600000Y-95222440D01*
X162600000Y-95222440D01*
X162835317Y-95178162D01*
X163051441Y-95039090D01*
X163097969Y-94970994D01*
X163240302Y-95113327D01*
X163473691Y-95210000D01*
X163814250Y-95210000D01*
X163973000Y-95051250D01*
X163973000Y-91952000D01*
X164227000Y-91952000D01*
X164227000Y-95051250D01*
X164385750Y-95210000D01*
X164726309Y-95210000D01*
X164959698Y-95113327D01*
X165052560Y-95020466D01*
X165052560Y-95575000D01*
X165096838Y-95810317D01*
X165235910Y-96026441D01*
X165448110Y-96171431D01*
X165700000Y-96222440D01*
X167300000Y-96222440D01*
X167535317Y-96178162D01*
X167751441Y-96039090D01*
X167896431Y-95826890D01*
X167947440Y-95575000D01*
X167947440Y-92575000D01*
X167903162Y-92339683D01*
X167764090Y-92123559D01*
X167551890Y-91978569D01*
X167300000Y-91927560D01*
X165700000Y-91927560D01*
X165464683Y-91971838D01*
X165248559Y-92110910D01*
X165235000Y-92130754D01*
X165235000Y-92110750D01*
X165076250Y-91952000D01*
X164227000Y-91952000D01*
X163973000Y-91952000D01*
X163953000Y-91952000D01*
X163953000Y-91698000D01*
X163973000Y-91698000D01*
X163973000Y-88598750D01*
X164227000Y-88598750D01*
X164227000Y-91698000D01*
X165076250Y-91698000D01*
X165235000Y-91539250D01*
X165235000Y-88948690D01*
X165138327Y-88715301D01*
X164959698Y-88536673D01*
X164726309Y-88440000D01*
X164385750Y-88440000D01*
X164227000Y-88598750D01*
X163973000Y-88598750D01*
X163814250Y-88440000D01*
X163473691Y-88440000D01*
X163240302Y-88536673D01*
X163099064Y-88677910D01*
X163064090Y-88623559D01*
X162860000Y-88484110D01*
X162860000Y-85862201D01*
X163042192Y-85680327D01*
X163184838Y-85336799D01*
X163185162Y-84964833D01*
X163043117Y-84621057D01*
X162780327Y-84357808D01*
X162471513Y-84229577D01*
X162472440Y-84225000D01*
X162472440Y-83502362D01*
X162939680Y-83035122D01*
X162985167Y-83035162D01*
X163328943Y-82893117D01*
X163592192Y-82630327D01*
X163734838Y-82286799D01*
X163735162Y-81914833D01*
X163593117Y-81571057D01*
X163536996Y-81514838D01*
X163914900Y-81671757D01*
X164470661Y-81672242D01*
X164984303Y-81460010D01*
X165377629Y-81067370D01*
X165590757Y-80554100D01*
X165591242Y-79998339D01*
X165531487Y-79853721D01*
X165694673Y-80017192D01*
X166038201Y-80159838D01*
X166397469Y-80160151D01*
X166456883Y-80303943D01*
X166719673Y-80567192D01*
X167063201Y-80709838D01*
X167435167Y-80710162D01*
X167778943Y-80568117D01*
X168042192Y-80305327D01*
X168184838Y-79961799D01*
X168185162Y-79589833D01*
X168043117Y-79246057D01*
X168010000Y-79212882D01*
X168010000Y-78975000D01*
X167952148Y-78684161D01*
X167787401Y-78437599D01*
X166176802Y-76827000D01*
X171375000Y-76827000D01*
X171421159Y-76818315D01*
X171463553Y-76791035D01*
X171491994Y-76749410D01*
X171502000Y-76700000D01*
X171502000Y-60225000D01*
X171493315Y-60178841D01*
X171466035Y-60136447D01*
X171424410Y-60108006D01*
X171375000Y-60098000D01*
X165550000Y-60098000D01*
X165503841Y-60106685D01*
X165461447Y-60133965D01*
X165433006Y-60175590D01*
X165423000Y-60225000D01*
X165423000Y-73373198D01*
X165335122Y-73285320D01*
X165335162Y-73239833D01*
X165193117Y-72896057D01*
X164930327Y-72632808D01*
X164586799Y-72490162D01*
X164214833Y-72489838D01*
X163871057Y-72631883D01*
X163607808Y-72894673D01*
X163465162Y-73238201D01*
X163464838Y-73610167D01*
X163468266Y-73618464D01*
X162460122Y-72610320D01*
X162460162Y-72564833D01*
X162318117Y-72221057D01*
X162055327Y-71957808D01*
X161711799Y-71815162D01*
X161452638Y-71814936D01*
X161502148Y-71740840D01*
X161560000Y-71450000D01*
X161560000Y-69200000D01*
X161502148Y-68909161D01*
X161337401Y-68662599D01*
X157185122Y-64510320D01*
X157185162Y-64464833D01*
X157043117Y-64121057D01*
X156780327Y-63857808D01*
X156436799Y-63715162D01*
X156064833Y-63714838D01*
X155721057Y-63856883D01*
X155457808Y-64119673D01*
X155315162Y-64463201D01*
X155314838Y-64835167D01*
X155456883Y-65178943D01*
X155719673Y-65442192D01*
X156063201Y-65584838D01*
X156110077Y-65584879D01*
X160040000Y-69514802D01*
X160040000Y-71135198D01*
X159885162Y-71290036D01*
X159885162Y-71289833D01*
X159743117Y-70946057D01*
X159480327Y-70682808D01*
X159136799Y-70540162D01*
X159064973Y-70540099D01*
X152485104Y-64356343D01*
X152485162Y-64289833D01*
X152343117Y-63946057D01*
X152080327Y-63682808D01*
X151736799Y-63540162D01*
X151364833Y-63539838D01*
X151021057Y-63681883D01*
X150757808Y-63944673D01*
X150615162Y-64288201D01*
X150614838Y-64660167D01*
X150756883Y-65003943D01*
X151019673Y-65267192D01*
X151363201Y-65409838D01*
X151386583Y-65409858D01*
X158014856Y-71639105D01*
X158014838Y-71660167D01*
X158156883Y-72003943D01*
X158190253Y-72037372D01*
X158107808Y-72119673D01*
X157965162Y-72463201D01*
X157964838Y-72835167D01*
X157997824Y-72915000D01*
X150812463Y-72915000D01*
X150780327Y-72882808D01*
X150436799Y-72740162D01*
X150064833Y-72739838D01*
X149721057Y-72881883D01*
X149457808Y-73144673D01*
X149315162Y-73488201D01*
X149314838Y-73860167D01*
X149456883Y-74203943D01*
X149719673Y-74467192D01*
X150063201Y-74609838D01*
X150435167Y-74610162D01*
X150778943Y-74468117D01*
X150812118Y-74435000D01*
X152439903Y-74435000D01*
X152439838Y-74510167D01*
X152491593Y-74635423D01*
X152321520Y-74669253D01*
X151937078Y-74926128D01*
X151775000Y-75168696D01*
X151612922Y-74926128D01*
X151228480Y-74669253D01*
X150775000Y-74579050D01*
X150321520Y-74669253D01*
X149937078Y-74926128D01*
X149894099Y-74990452D01*
X149793117Y-74746057D01*
X149530327Y-74482808D01*
X149186799Y-74340162D01*
X148814833Y-74339838D01*
X148471057Y-74481883D01*
X148207808Y-74744673D01*
X148207486Y-74745448D01*
X147937078Y-74926128D01*
X147680203Y-75310570D01*
X147604729Y-75690000D01*
X144098252Y-75690000D01*
X144018117Y-75496057D01*
X143755327Y-75232808D01*
X143498598Y-75126204D01*
X145159152Y-73465650D01*
X145244253Y-73893480D01*
X145501128Y-74277922D01*
X145885570Y-74534797D01*
X146339050Y-74625000D01*
X147710950Y-74625000D01*
X148164430Y-74534797D01*
X148548872Y-74277922D01*
X148805747Y-73893480D01*
X148895950Y-73440000D01*
X148805747Y-72986520D01*
X148548872Y-72602078D01*
X148306304Y-72440000D01*
X148548872Y-72277922D01*
X148805747Y-71893480D01*
X148893192Y-71453863D01*
X149088201Y-71534838D01*
X149460167Y-71535162D01*
X149803943Y-71393117D01*
X149912340Y-71284909D01*
X150213201Y-71409838D01*
X150585167Y-71410162D01*
X150928943Y-71268117D01*
X151192192Y-71005327D01*
X151334838Y-70661799D01*
X151334970Y-70510031D01*
X151485167Y-70510162D01*
X151828943Y-70368117D01*
X152087511Y-70110000D01*
X153037537Y-70110000D01*
X153069673Y-70142192D01*
X153413201Y-70284838D01*
X153785167Y-70285162D01*
X154128943Y-70143117D01*
X154392192Y-69880327D01*
X154534838Y-69536799D01*
X154535162Y-69164833D01*
X154393117Y-68821057D01*
X154130327Y-68557808D01*
X153786799Y-68415162D01*
X153414833Y-68414838D01*
X153071057Y-68556883D01*
X153037882Y-68590000D01*
X151525000Y-68590000D01*
X151273754Y-68639976D01*
X151133896Y-68639855D01*
X151125226Y-68032136D01*
X151114707Y-67982935D01*
X151117258Y-67932692D01*
X150981890Y-67009725D01*
X151084838Y-66761799D01*
X151085162Y-66389833D01*
X150943117Y-66046057D01*
X150680327Y-65782808D01*
X150336799Y-65640162D01*
X149964833Y-65639838D01*
X149960000Y-65641835D01*
X149960000Y-63037463D01*
X149992192Y-63005327D01*
X150134838Y-62661799D01*
X150135162Y-62289833D01*
X150030365Y-62036204D01*
X150321520Y-62230747D01*
X150775000Y-62320950D01*
X151228480Y-62230747D01*
X151612922Y-61973872D01*
X151775000Y-61731304D01*
X151937078Y-61973872D01*
X152321520Y-62230747D01*
X152775000Y-62320950D01*
X153228480Y-62230747D01*
X153612922Y-61973872D01*
X153775000Y-61731304D01*
X153937078Y-61973872D01*
X154321520Y-62230747D01*
X154775000Y-62320950D01*
X155228480Y-62230747D01*
X155612922Y-61973872D01*
X155775000Y-61731304D01*
X155937078Y-61973872D01*
X156321520Y-62230747D01*
X156775000Y-62320950D01*
X157228480Y-62230747D01*
X157612922Y-61973872D01*
X157775000Y-61731304D01*
X157937078Y-61973872D01*
X158066831Y-62060570D01*
X158072852Y-62090839D01*
X158237599Y-62337401D01*
X158464899Y-62564701D01*
X158464838Y-62635167D01*
X158606883Y-62978943D01*
X158869673Y-63242192D01*
X159213201Y-63384838D01*
X159585167Y-63385162D01*
X159928943Y-63243117D01*
X160192192Y-62980327D01*
X160334838Y-62636799D01*
X160335162Y-62264833D01*
X160320909Y-62230339D01*
X160321520Y-62230747D01*
X160775000Y-62320950D01*
X160783317Y-62319296D01*
X160707808Y-62394673D01*
X160565162Y-62738201D01*
X160564838Y-63110167D01*
X160706883Y-63453943D01*
X160740000Y-63487118D01*
X160740000Y-64460198D01*
X160235320Y-64964878D01*
X160189833Y-64964838D01*
X159846057Y-65106883D01*
X159582808Y-65369673D01*
X159440162Y-65713201D01*
X159439838Y-66085167D01*
X159581883Y-66428943D01*
X159844673Y-66692192D01*
X160188201Y-66834838D01*
X160560167Y-66835162D01*
X160903943Y-66693117D01*
X161167192Y-66430327D01*
X161309838Y-66086799D01*
X161309879Y-66039923D01*
X162037401Y-65312401D01*
X162202148Y-65065840D01*
X162260000Y-64775000D01*
X162260000Y-63487463D01*
X162292192Y-63455327D01*
X162345157Y-63327774D01*
X162663201Y-63459838D01*
X163035167Y-63460162D01*
X163378943Y-63318117D01*
X163642192Y-63055327D01*
X163784838Y-62711799D01*
X163785162Y-62339833D01*
X163709647Y-62157071D01*
X163776441Y-62114090D01*
X163921431Y-61901890D01*
X163972440Y-61650000D01*
X163972440Y-59250000D01*
X163928162Y-59014683D01*
X163789090Y-58798559D01*
X163576890Y-58653569D01*
X163325000Y-58602560D01*
X162225000Y-58602560D01*
X161989683Y-58646838D01*
X161773559Y-58785910D01*
X161644975Y-58974099D01*
X161612922Y-58926128D01*
X161228480Y-58669253D01*
X160775000Y-58579050D01*
X160321520Y-58669253D01*
X159937078Y-58926128D01*
X159775000Y-59168696D01*
X159612922Y-58926128D01*
X159228480Y-58669253D01*
X158775000Y-58579050D01*
X158321520Y-58669253D01*
X157937078Y-58926128D01*
X157775000Y-59168696D01*
X157612922Y-58926128D01*
X157228480Y-58669253D01*
X156775000Y-58579050D01*
X156321520Y-58669253D01*
X155937078Y-58926128D01*
X155775000Y-59168696D01*
X155612922Y-58926128D01*
X155228480Y-58669253D01*
X154775000Y-58579050D01*
X154321520Y-58669253D01*
X153937078Y-58926128D01*
X153775000Y-59168696D01*
X153612922Y-58926128D01*
X153228480Y-58669253D01*
X152775000Y-58579050D01*
X152321520Y-58669253D01*
X151937078Y-58926128D01*
X151775000Y-59168696D01*
X151612922Y-58926128D01*
X151228480Y-58669253D01*
X150775000Y-58579050D01*
X150321520Y-58669253D01*
X149937078Y-58926128D01*
X149773078Y-59171572D01*
X149523118Y-58872276D01*
X149111146Y-58656602D01*
X149084744Y-58656197D01*
X148902000Y-58781639D01*
X148902000Y-60323000D01*
X148922000Y-60323000D01*
X148922000Y-60577000D01*
X148902000Y-60577000D01*
X148902000Y-60597000D01*
X148648000Y-60597000D01*
X148648000Y-60577000D01*
X147590000Y-60577000D01*
X147590000Y-61227000D01*
X147728804Y-61670813D01*
X148026882Y-62027724D01*
X148311459Y-62176705D01*
X148265162Y-62288201D01*
X148265054Y-62412437D01*
X148164430Y-62345203D01*
X147710950Y-62255000D01*
X146339050Y-62255000D01*
X145885570Y-62345203D01*
X145501579Y-62601777D01*
X145298470Y-62398668D01*
X145517192Y-62180327D01*
X145659838Y-61836799D01*
X145660162Y-61464833D01*
X145518117Y-61121057D01*
X145296871Y-60899424D01*
X145346431Y-60826890D01*
X145397440Y-60575000D01*
X145397440Y-59673000D01*
X147590000Y-59673000D01*
X147590000Y-60323000D01*
X148648000Y-60323000D01*
X148648000Y-58781639D01*
X148465256Y-58656197D01*
X148438854Y-58656602D01*
X148026882Y-58872276D01*
X147728804Y-59229187D01*
X147590000Y-59673000D01*
X145397440Y-59673000D01*
X145397440Y-59575000D01*
X145353162Y-59339683D01*
X145214090Y-59123559D01*
X145144289Y-59075866D01*
X145201441Y-59039090D01*
X145346431Y-58826890D01*
X145397440Y-58575000D01*
X145397440Y-57575000D01*
X145353162Y-57339683D01*
X145214090Y-57123559D01*
X145001890Y-56978569D01*
X144934011Y-56964823D01*
X145059838Y-56661799D01*
X145060162Y-56289833D01*
X144918117Y-55946057D01*
X144655327Y-55682808D01*
X144311799Y-55540162D01*
X143939833Y-55539838D01*
X143596057Y-55681883D01*
X143332808Y-55944673D01*
X143190162Y-56288201D01*
X143189838Y-56660167D01*
X143314727Y-56962422D01*
X143264683Y-56971838D01*
X143048559Y-57110910D01*
X142903569Y-57323110D01*
X142852560Y-57575000D01*
X142852560Y-58575000D01*
X142896838Y-58810317D01*
X143035910Y-59026441D01*
X143105711Y-59074134D01*
X143048559Y-59110910D01*
X142903569Y-59323110D01*
X142852560Y-59575000D01*
X142852560Y-59705123D01*
X142805327Y-59657808D01*
X142461799Y-59515162D01*
X142235000Y-59514964D01*
X142235000Y-59037463D01*
X142267192Y-59005327D01*
X142409838Y-58661799D01*
X142410162Y-58289833D01*
X142268117Y-57946057D01*
X142005327Y-57682808D01*
X141661799Y-57540162D01*
X141289833Y-57539838D01*
X140946057Y-57681883D01*
X140682808Y-57944673D01*
X140540162Y-58288201D01*
X140539838Y-58660167D01*
X140681883Y-59003943D01*
X140715000Y-59037118D01*
X140715000Y-60950000D01*
X140772852Y-61240839D01*
X140937599Y-61487401D01*
X141462599Y-62012401D01*
X141554079Y-62073526D01*
X141482808Y-62144673D01*
X141340162Y-62488201D01*
X141339838Y-62860167D01*
X141348777Y-62881802D01*
X141182016Y-62950706D01*
X141118117Y-62796057D01*
X140855327Y-62532808D01*
X140511799Y-62390162D01*
X140139833Y-62389838D01*
X139796057Y-62531883D01*
X139532808Y-62794673D01*
X139390162Y-63138201D01*
X139390121Y-63185077D01*
X138562599Y-64012599D01*
X138397852Y-64259161D01*
X138340000Y-64550000D01*
X138340000Y-67075000D01*
X138370346Y-67227560D01*
X138260000Y-67227560D01*
X138260000Y-66973690D01*
X138163327Y-66740301D01*
X137984698Y-66561673D01*
X137751309Y-66465000D01*
X137721250Y-66465000D01*
X137562500Y-66623750D01*
X137562500Y-66630391D01*
X137376890Y-66503569D01*
X137302192Y-66488442D01*
X137278750Y-66465000D01*
X137248691Y-66465000D01*
X137228247Y-66473468D01*
X137125000Y-66452560D01*
X136875000Y-66452560D01*
X136745411Y-66476944D01*
X136625000Y-66452560D01*
X136375000Y-66452560D01*
X136139683Y-66496838D01*
X135923559Y-66635910D01*
X135778569Y-66848110D01*
X135727560Y-67100000D01*
X135727560Y-67323190D01*
X135652000Y-67398750D01*
X135652000Y-67727560D01*
X135398000Y-67727560D01*
X135398000Y-67398750D01*
X135239250Y-67240000D01*
X134973691Y-67240000D01*
X134740302Y-67336673D01*
X134561673Y-67515301D01*
X134465000Y-67748690D01*
X134465000Y-67778750D01*
X134623750Y-67937500D01*
X134630391Y-67937500D01*
X134503569Y-68123110D01*
X134488442Y-68197808D01*
X134465000Y-68221250D01*
X134465000Y-68251310D01*
X134473468Y-68271753D01*
X134452560Y-68375000D01*
X134452560Y-68625000D01*
X134474199Y-68740000D01*
X134185009Y-68740000D01*
X134185162Y-68564833D01*
X134096713Y-68350770D01*
X134117192Y-68330327D01*
X134259838Y-67986799D01*
X134260162Y-67614833D01*
X134118117Y-67271057D01*
X133855327Y-67007808D01*
X133511799Y-66865162D01*
X133416452Y-66865079D01*
X133315839Y-66797852D01*
X133125546Y-66760000D01*
X133250000Y-66760000D01*
X133540839Y-66702148D01*
X133787401Y-66537401D01*
X134627362Y-65697440D01*
X135150000Y-65697440D01*
X135385317Y-65653162D01*
X135601441Y-65514090D01*
X135746431Y-65301890D01*
X135797440Y-65050000D01*
X135797440Y-64350000D01*
X135753162Y-64114683D01*
X135614090Y-63898559D01*
X135401890Y-63753569D01*
X135388803Y-63750919D01*
X135601441Y-63614090D01*
X135638399Y-63560000D01*
X137100000Y-63560000D01*
X137390839Y-63502148D01*
X137637401Y-63337401D01*
X138914680Y-62060122D01*
X138960167Y-62060162D01*
X139303943Y-61918117D01*
X139567192Y-61655327D01*
X139709838Y-61311799D01*
X139710162Y-60939833D01*
X139568117Y-60596057D01*
X139305327Y-60332808D01*
X138961799Y-60190162D01*
X138589833Y-60189838D01*
X138246057Y-60331883D01*
X137982808Y-60594673D01*
X137840162Y-60938201D01*
X137840121Y-60985077D01*
X136785198Y-62040000D01*
X135640757Y-62040000D01*
X135614090Y-61998559D01*
X135401890Y-61853569D01*
X135260000Y-61824836D01*
X135260000Y-61750000D01*
X135202148Y-61459161D01*
X135037401Y-61212599D01*
X134972242Y-61147440D01*
X136150000Y-61147440D01*
X136385317Y-61103162D01*
X136601441Y-60964090D01*
X136746431Y-60751890D01*
X136797440Y-60500000D01*
X136797440Y-59777362D01*
X139814802Y-56760000D01*
X141950000Y-56760000D01*
X142240839Y-56702148D01*
X142487401Y-56537401D01*
X143577362Y-55447440D01*
X144150000Y-55447440D01*
X144385317Y-55403162D01*
X144601441Y-55264090D01*
X144639927Y-55207764D01*
X144639838Y-55310167D01*
X144781883Y-55653943D01*
X145044673Y-55917192D01*
X145388201Y-56059838D01*
X145760167Y-56060162D01*
X146103943Y-55918117D01*
X146367192Y-55655327D01*
X146490000Y-55359574D01*
X146490000Y-57339860D01*
X146464833Y-57339838D01*
X146121057Y-57481883D01*
X145857808Y-57744673D01*
X145715162Y-58088201D01*
X145714838Y-58460167D01*
X145856883Y-58803943D01*
X146119673Y-59067192D01*
X146463201Y-59209838D01*
X146835167Y-59210162D01*
X147178943Y-59068117D01*
X147442192Y-58805327D01*
X147584838Y-58461799D01*
X147584879Y-58414923D01*
X147787401Y-58212401D01*
X147952148Y-57965839D01*
X148010000Y-57675000D01*
X148010000Y-56910167D01*
X148839838Y-56910167D01*
X148981883Y-57253943D01*
X149244673Y-57517192D01*
X149588201Y-57659838D01*
X149675063Y-57659914D01*
X149806883Y-57978943D01*
X150069673Y-58242192D01*
X150413201Y-58384838D01*
X150785167Y-58385162D01*
X151128943Y-58243117D01*
X151392192Y-57980327D01*
X151534838Y-57636799D01*
X151534879Y-57589924D01*
X151614803Y-57510000D01*
X151762537Y-57510000D01*
X151794673Y-57542192D01*
X152138201Y-57684838D01*
X152510167Y-57685162D01*
X152615000Y-57641846D01*
X152615000Y-57676310D01*
X152711673Y-57909699D01*
X152890302Y-58088327D01*
X153123691Y-58185000D01*
X153464250Y-58185000D01*
X153623000Y-58026250D01*
X153623000Y-54927000D01*
X152773750Y-54927000D01*
X152661564Y-55039186D01*
X152580327Y-54957808D01*
X152236799Y-54815162D01*
X151864833Y-54814838D01*
X151521057Y-54956883D01*
X151487882Y-54990000D01*
X150750000Y-54990000D01*
X150459160Y-55047852D01*
X150212599Y-55212599D01*
X149635320Y-55789878D01*
X149589833Y-55789838D01*
X149246057Y-55931883D01*
X148982808Y-56194673D01*
X148840162Y-56538201D01*
X148839838Y-56910167D01*
X148010000Y-56910167D01*
X148010000Y-52600000D01*
X147952148Y-52309161D01*
X147787401Y-52062599D01*
X146774802Y-51050000D01*
X149902560Y-51050000D01*
X149902560Y-54050000D01*
X149946838Y-54285317D01*
X150085910Y-54501441D01*
X150298110Y-54646431D01*
X150550000Y-54697440D01*
X152150000Y-54697440D01*
X152385317Y-54653162D01*
X152601441Y-54514090D01*
X152615000Y-54494246D01*
X152615000Y-54514250D01*
X152773750Y-54673000D01*
X153623000Y-54673000D01*
X153623000Y-51573750D01*
X153877000Y-51573750D01*
X153877000Y-54673000D01*
X153897000Y-54673000D01*
X153897000Y-54927000D01*
X153877000Y-54927000D01*
X153877000Y-58026250D01*
X154035750Y-58185000D01*
X154376309Y-58185000D01*
X154609698Y-58088327D01*
X154750936Y-57947090D01*
X154785910Y-58001441D01*
X154998110Y-58146431D01*
X155250000Y-58197440D01*
X155600304Y-58197440D01*
X155819673Y-58417192D01*
X156163201Y-58559838D01*
X156535167Y-58560162D01*
X156878943Y-58418117D01*
X157125302Y-58172188D01*
X157250000Y-58197440D01*
X158250000Y-58197440D01*
X158485317Y-58153162D01*
X158701441Y-58014090D01*
X158749134Y-57944289D01*
X158785910Y-58001441D01*
X158998110Y-58146431D01*
X159250000Y-58197440D01*
X160250000Y-58197440D01*
X160485317Y-58153162D01*
X160701441Y-58014090D01*
X160749134Y-57944289D01*
X160785910Y-58001441D01*
X160998110Y-58146431D01*
X161250000Y-58197440D01*
X162250000Y-58197440D01*
X162485317Y-58153162D01*
X162701441Y-58014090D01*
X162749134Y-57944289D01*
X162785910Y-58001441D01*
X162998110Y-58146431D01*
X163250000Y-58197440D01*
X164250000Y-58197440D01*
X164485317Y-58153162D01*
X164701441Y-58014090D01*
X164846431Y-57801890D01*
X164897440Y-57550000D01*
X164897440Y-56328722D01*
X165213201Y-56459838D01*
X165585167Y-56460162D01*
X165928943Y-56318117D01*
X166192192Y-56055327D01*
X166334838Y-55711799D01*
X166335162Y-55339833D01*
X166193117Y-54996057D01*
X165930327Y-54732808D01*
X165845152Y-54697440D01*
X166950000Y-54697440D01*
X167185317Y-54653162D01*
X167401441Y-54514090D01*
X167546431Y-54301890D01*
X167597440Y-54050000D01*
X167597440Y-51050000D01*
X167553162Y-50814683D01*
X167414090Y-50598559D01*
X167201890Y-50453569D01*
X166950000Y-50402560D01*
X165350000Y-50402560D01*
X165114683Y-50446838D01*
X164898559Y-50585910D01*
X164753569Y-50798110D01*
X164702560Y-51050000D01*
X164702560Y-51590681D01*
X164501890Y-51453569D01*
X164250000Y-51402560D01*
X163250000Y-51402560D01*
X163014683Y-51446838D01*
X162798559Y-51585910D01*
X162750866Y-51655711D01*
X162714090Y-51598559D01*
X162501890Y-51453569D01*
X162250000Y-51402560D01*
X161828293Y-51402560D01*
X161834838Y-51386799D01*
X161835162Y-51014833D01*
X161693117Y-50671057D01*
X161430327Y-50407808D01*
X161086799Y-50265162D01*
X160714833Y-50264838D01*
X160371057Y-50406883D01*
X160337882Y-50440000D01*
X158537463Y-50440000D01*
X158505327Y-50407808D01*
X158161799Y-50265162D01*
X157789833Y-50264838D01*
X157446057Y-50406883D01*
X157182808Y-50669673D01*
X157040162Y-51013201D01*
X157039838Y-51385167D01*
X157061667Y-51437997D01*
X157014683Y-51446838D01*
X156798559Y-51585910D01*
X156750866Y-51655711D01*
X156714090Y-51598559D01*
X156501890Y-51453569D01*
X156250000Y-51402560D01*
X155250000Y-51402560D01*
X155014683Y-51446838D01*
X154798559Y-51585910D01*
X154752031Y-51654006D01*
X154609698Y-51511673D01*
X154376309Y-51415000D01*
X154035750Y-51415000D01*
X153877000Y-51573750D01*
X153623000Y-51573750D01*
X153464250Y-51415000D01*
X153123691Y-51415000D01*
X152890302Y-51511673D01*
X152797440Y-51604534D01*
X152797440Y-51050000D01*
X152753162Y-50814683D01*
X152614090Y-50598559D01*
X152401890Y-50453569D01*
X152150000Y-50402560D01*
X150550000Y-50402560D01*
X150314683Y-50446838D01*
X150098559Y-50585910D01*
X149953569Y-50798110D01*
X149902560Y-51050000D01*
X146774802Y-51050000D01*
X145559802Y-49835000D01*
X172390000Y-49835000D01*
X172390000Y-97740000D01*
G36*
X140631883Y-77178943D02*
X140894673Y-77442192D01*
X141238201Y-77584838D01*
X141540000Y-77585101D01*
X141540000Y-80575000D01*
X141597852Y-80865839D01*
X141762599Y-81112401D01*
X142362599Y-81712401D01*
X142609161Y-81877148D01*
X142900000Y-81935000D01*
X145175000Y-81935000D01*
X145465839Y-81877148D01*
X145490099Y-81860938D01*
X145489838Y-82160167D01*
X145631883Y-82503943D01*
X145648943Y-82521033D01*
X145565000Y-82723690D01*
X145565000Y-83214250D01*
X145723750Y-83373000D01*
X146423000Y-83373000D01*
X146423000Y-83353000D01*
X146677000Y-83353000D01*
X146677000Y-83373000D01*
X146697000Y-83373000D01*
X146697000Y-83627000D01*
X146677000Y-83627000D01*
X146677000Y-83647000D01*
X146423000Y-83647000D01*
X146423000Y-83627000D01*
X145723750Y-83627000D01*
X145565000Y-83785750D01*
X145565000Y-84276310D01*
X145661673Y-84509699D01*
X145840302Y-84688327D01*
X146073691Y-84785000D01*
X146264250Y-84785000D01*
X146422998Y-84626252D01*
X146422998Y-84702200D01*
X145950578Y-85174620D01*
X145918117Y-85096057D01*
X145655327Y-84832808D01*
X145311799Y-84690162D01*
X145164836Y-84690034D01*
X139087302Y-78612500D01*
X140599422Y-77100380D01*
X140631883Y-77178943D01*
X140631883Y-77178943D01*
G37*
X140631883Y-77178943D02*
X140894673Y-77442192D01*
X141238201Y-77584838D01*
X141540000Y-77585101D01*
X141540000Y-80575000D01*
X141597852Y-80865839D01*
X141762599Y-81112401D01*
X142362599Y-81712401D01*
X142609161Y-81877148D01*
X142900000Y-81935000D01*
X145175000Y-81935000D01*
X145465839Y-81877148D01*
X145490099Y-81860938D01*
X145489838Y-82160167D01*
X145631883Y-82503943D01*
X145648943Y-82521033D01*
X145565000Y-82723690D01*
X145565000Y-83214250D01*
X145723750Y-83373000D01*
X146423000Y-83373000D01*
X146423000Y-83353000D01*
X146677000Y-83353000D01*
X146677000Y-83373000D01*
X146697000Y-83373000D01*
X146697000Y-83627000D01*
X146677000Y-83627000D01*
X146677000Y-83647000D01*
X146423000Y-83647000D01*
X146423000Y-83627000D01*
X145723750Y-83627000D01*
X145565000Y-83785750D01*
X145565000Y-84276310D01*
X145661673Y-84509699D01*
X145840302Y-84688327D01*
X146073691Y-84785000D01*
X146264250Y-84785000D01*
X146422998Y-84626252D01*
X146422998Y-84702200D01*
X145950578Y-85174620D01*
X145918117Y-85096057D01*
X145655327Y-84832808D01*
X145311799Y-84690162D01*
X145164836Y-84690034D01*
X139087302Y-78612500D01*
X140599422Y-77100380D01*
X140631883Y-77178943D01*
G36*
X148115000Y-81051310D02*
X148182803Y-81215000D01*
X146987463Y-81215000D01*
X146955327Y-81182808D01*
X146611799Y-81040162D01*
X146384838Y-81039964D01*
X146464802Y-80960000D01*
X146737537Y-80960000D01*
X146769673Y-80992192D01*
X147113201Y-81134838D01*
X147485167Y-81135162D01*
X147828943Y-80993117D01*
X148092192Y-80730327D01*
X148115000Y-80675400D01*
X148115000Y-81051310D01*
X148115000Y-81051310D01*
G37*
X148115000Y-81051310D02*
X148182803Y-81215000D01*
X146987463Y-81215000D01*
X146955327Y-81182808D01*
X146611799Y-81040162D01*
X146384838Y-81039964D01*
X146464802Y-80960000D01*
X146737537Y-80960000D01*
X146769673Y-80992192D01*
X147113201Y-81134838D01*
X147485167Y-81135162D01*
X147828943Y-80993117D01*
X148092192Y-80730327D01*
X148115000Y-80675400D01*
X148115000Y-81051310D01*
G36*
X150616296Y-78983902D02*
X150414683Y-79021838D01*
X150198559Y-79160910D01*
X150053569Y-79373110D01*
X150046809Y-79406490D01*
X149988327Y-79265301D01*
X149809698Y-79086673D01*
X149576309Y-78990000D01*
X149385750Y-78990000D01*
X149227000Y-79148750D01*
X149227000Y-80148000D01*
X149247000Y-80148000D01*
X149247000Y-80402000D01*
X149227000Y-80402000D01*
X149227000Y-80422000D01*
X148973000Y-80422000D01*
X148973000Y-80402000D01*
X148953000Y-80402000D01*
X148953000Y-80148000D01*
X148973000Y-80148000D01*
X148973000Y-79148750D01*
X148814250Y-78990000D01*
X148623691Y-78990000D01*
X148390302Y-79086673D01*
X148211673Y-79265301D01*
X148115000Y-79498690D01*
X148115000Y-79724018D01*
X148093117Y-79671057D01*
X147830327Y-79407808D01*
X147486799Y-79265162D01*
X147347440Y-79265041D01*
X147347440Y-78985000D01*
X150500000Y-78985000D01*
X150643802Y-78956396D01*
X150616296Y-78983902D01*
X150616296Y-78983902D01*
G37*
X150616296Y-78983902D02*
X150414683Y-79021838D01*
X150198559Y-79160910D01*
X150053569Y-79373110D01*
X150046809Y-79406490D01*
X149988327Y-79265301D01*
X149809698Y-79086673D01*
X149576309Y-78990000D01*
X149385750Y-78990000D01*
X149227000Y-79148750D01*
X149227000Y-80148000D01*
X149247000Y-80148000D01*
X149247000Y-80402000D01*
X149227000Y-80402000D01*
X149227000Y-80422000D01*
X148973000Y-80422000D01*
X148973000Y-80402000D01*
X148953000Y-80402000D01*
X148953000Y-80148000D01*
X148973000Y-80148000D01*
X148973000Y-79148750D01*
X148814250Y-78990000D01*
X148623691Y-78990000D01*
X148390302Y-79086673D01*
X148211673Y-79265301D01*
X148115000Y-79498690D01*
X148115000Y-79724018D01*
X148093117Y-79671057D01*
X147830327Y-79407808D01*
X147486799Y-79265162D01*
X147347440Y-79265041D01*
X147347440Y-78985000D01*
X150500000Y-78985000D01*
X150643802Y-78956396D01*
X150616296Y-78983902D01*
G36*
X137627000Y-75073000D02*
X137647000Y-75073000D01*
X137647000Y-75327000D01*
X137627000Y-75327000D01*
X137627000Y-76026250D01*
X137785750Y-76185000D01*
X138015000Y-76185000D01*
X138015000Y-76235429D01*
X137721057Y-76356883D01*
X137457808Y-76619673D01*
X137315162Y-76963201D01*
X137314838Y-77335167D01*
X137368484Y-77465000D01*
X134687463Y-77465000D01*
X134655327Y-77432808D01*
X134311799Y-77290162D01*
X133989131Y-77289881D01*
X133976250Y-77277000D01*
X132977000Y-77277000D01*
X132977000Y-77976250D01*
X133135750Y-78135000D01*
X133190078Y-78135000D01*
X133190073Y-78140000D01*
X130339802Y-78140000D01*
X130324526Y-78124724D01*
X130473000Y-77976250D01*
X130473000Y-77277000D01*
X130727000Y-77277000D01*
X130727000Y-77976250D01*
X130885750Y-78135000D01*
X131376310Y-78135000D01*
X131609699Y-78038327D01*
X131725000Y-77923025D01*
X131840301Y-78038327D01*
X132073690Y-78135000D01*
X132564250Y-78135000D01*
X132723000Y-77976250D01*
X132723000Y-77277000D01*
X130727000Y-77277000D01*
X130473000Y-77277000D01*
X130453000Y-77277000D01*
X130453000Y-77023000D01*
X130473000Y-77023000D01*
X130473000Y-77003000D01*
X130727000Y-77003000D01*
X130727000Y-77023000D01*
X132723000Y-77023000D01*
X132723000Y-77003000D01*
X132977000Y-77003000D01*
X132977000Y-77023000D01*
X133976250Y-77023000D01*
X134135000Y-76864250D01*
X134135000Y-76673691D01*
X134038327Y-76440302D01*
X133859699Y-76261673D01*
X133723713Y-76205346D01*
X133735317Y-76203162D01*
X133951441Y-76064090D01*
X134067203Y-75894667D01*
X134135910Y-76001441D01*
X134348110Y-76146431D01*
X134473839Y-76171892D01*
X134415162Y-76313201D01*
X134414838Y-76685167D01*
X134556883Y-77028943D01*
X134819673Y-77292192D01*
X135163201Y-77434838D01*
X135535167Y-77435162D01*
X135878943Y-77293117D01*
X136142192Y-77030327D01*
X136284838Y-76686799D01*
X136285162Y-76314833D01*
X136200919Y-76110948D01*
X136351441Y-76014090D01*
X136377673Y-75975698D01*
X136490301Y-76088327D01*
X136723690Y-76185000D01*
X137214250Y-76185000D01*
X137373000Y-76026250D01*
X137373000Y-75327000D01*
X137353000Y-75327000D01*
X137353000Y-75073000D01*
X137373000Y-75073000D01*
X137373000Y-75053000D01*
X137627000Y-75053000D01*
X137627000Y-75073000D01*
X137627000Y-75073000D01*
G37*
X137627000Y-75073000D02*
X137647000Y-75073000D01*
X137647000Y-75327000D01*
X137627000Y-75327000D01*
X137627000Y-76026250D01*
X137785750Y-76185000D01*
X138015000Y-76185000D01*
X138015000Y-76235429D01*
X137721057Y-76356883D01*
X137457808Y-76619673D01*
X137315162Y-76963201D01*
X137314838Y-77335167D01*
X137368484Y-77465000D01*
X134687463Y-77465000D01*
X134655327Y-77432808D01*
X134311799Y-77290162D01*
X133989131Y-77289881D01*
X133976250Y-77277000D01*
X132977000Y-77277000D01*
X132977000Y-77976250D01*
X133135750Y-78135000D01*
X133190078Y-78135000D01*
X133190073Y-78140000D01*
X130339802Y-78140000D01*
X130324526Y-78124724D01*
X130473000Y-77976250D01*
X130473000Y-77277000D01*
X130727000Y-77277000D01*
X130727000Y-77976250D01*
X130885750Y-78135000D01*
X131376310Y-78135000D01*
X131609699Y-78038327D01*
X131725000Y-77923025D01*
X131840301Y-78038327D01*
X132073690Y-78135000D01*
X132564250Y-78135000D01*
X132723000Y-77976250D01*
X132723000Y-77277000D01*
X130727000Y-77277000D01*
X130473000Y-77277000D01*
X130453000Y-77277000D01*
X130453000Y-77023000D01*
X130473000Y-77023000D01*
X130473000Y-77003000D01*
X130727000Y-77003000D01*
X130727000Y-77023000D01*
X132723000Y-77023000D01*
X132723000Y-77003000D01*
X132977000Y-77003000D01*
X132977000Y-77023000D01*
X133976250Y-77023000D01*
X134135000Y-76864250D01*
X134135000Y-76673691D01*
X134038327Y-76440302D01*
X133859699Y-76261673D01*
X133723713Y-76205346D01*
X133735317Y-76203162D01*
X133951441Y-76064090D01*
X134067203Y-75894667D01*
X134135910Y-76001441D01*
X134348110Y-76146431D01*
X134473839Y-76171892D01*
X134415162Y-76313201D01*
X134414838Y-76685167D01*
X134556883Y-77028943D01*
X134819673Y-77292192D01*
X135163201Y-77434838D01*
X135535167Y-77435162D01*
X135878943Y-77293117D01*
X136142192Y-77030327D01*
X136284838Y-76686799D01*
X136285162Y-76314833D01*
X136200919Y-76110948D01*
X136351441Y-76014090D01*
X136377673Y-75975698D01*
X136490301Y-76088327D01*
X136723690Y-76185000D01*
X137214250Y-76185000D01*
X137373000Y-76026250D01*
X137373000Y-75327000D01*
X137353000Y-75327000D01*
X137353000Y-75073000D01*
X137373000Y-75073000D01*
X137373000Y-75053000D01*
X137627000Y-75053000D01*
X137627000Y-75073000D01*
G36*
X130891850Y-69760664D02*
X130897852Y-69790839D01*
X131062599Y-70037401D01*
X131114878Y-70089680D01*
X131114838Y-70135167D01*
X131256883Y-70478943D01*
X131519673Y-70742192D01*
X131635083Y-70790115D01*
X131348777Y-71076421D01*
X131255327Y-70982808D01*
X130911799Y-70840162D01*
X130714240Y-70839990D01*
X130601250Y-70727000D01*
X130272440Y-70727000D01*
X130272440Y-70473000D01*
X130601250Y-70473000D01*
X130760000Y-70314250D01*
X130760000Y-69823691D01*
X130719431Y-69725749D01*
X130891850Y-69760664D01*
X130891850Y-69760664D01*
G37*
X130891850Y-69760664D02*
X130897852Y-69790839D01*
X131062599Y-70037401D01*
X131114878Y-70089680D01*
X131114838Y-70135167D01*
X131256883Y-70478943D01*
X131519673Y-70742192D01*
X131635083Y-70790115D01*
X131348777Y-71076421D01*
X131255327Y-70982808D01*
X130911799Y-70840162D01*
X130714240Y-70839990D01*
X130601250Y-70727000D01*
X130272440Y-70727000D01*
X130272440Y-70473000D01*
X130601250Y-70473000D01*
X130760000Y-70314250D01*
X130760000Y-69823691D01*
X130719431Y-69725749D01*
X130891850Y-69760664D01*
G36*
X120231883Y-65553943D02*
X120494673Y-65817192D01*
X120838201Y-65959838D01*
X121210167Y-65960162D01*
X121553943Y-65818117D01*
X121612162Y-65760000D01*
X121618600Y-65760000D01*
X121623468Y-65771753D01*
X121607858Y-65848836D01*
X121437599Y-65962599D01*
X121235320Y-66164878D01*
X121189833Y-66164838D01*
X120846057Y-66306883D01*
X120688734Y-66463932D01*
X120110000Y-65885198D01*
X120110000Y-65262463D01*
X120111024Y-65261441D01*
X120231883Y-65553943D01*
X120231883Y-65553943D01*
G37*
X120231883Y-65553943D02*
X120494673Y-65817192D01*
X120838201Y-65959838D01*
X121210167Y-65960162D01*
X121553943Y-65818117D01*
X121612162Y-65760000D01*
X121618600Y-65760000D01*
X121623468Y-65771753D01*
X121607858Y-65848836D01*
X121437599Y-65962599D01*
X121235320Y-66164878D01*
X121189833Y-66164838D01*
X120846057Y-66306883D01*
X120688734Y-66463932D01*
X120110000Y-65885198D01*
X120110000Y-65262463D01*
X120111024Y-65261441D01*
X120231883Y-65553943D01*
G36*
X129543604Y-64918802D02*
X129473492Y-64848690D01*
X129520353Y-64801910D01*
X129543604Y-64918802D01*
X129543604Y-64918802D01*
G37*
X129543604Y-64918802D02*
X129473492Y-64848690D01*
X129520353Y-64801910D01*
X129543604Y-64918802D01*
G36*
X121290162Y-62088201D02*
X121290034Y-62235164D01*
X121012599Y-62512599D01*
X120847852Y-62759161D01*
X120790000Y-63050000D01*
X120790000Y-64050000D01*
X120801107Y-64105839D01*
X120496057Y-64231883D01*
X120263976Y-64463559D01*
X120143117Y-64171057D01*
X119880327Y-63907808D01*
X119536799Y-63765162D01*
X119360000Y-63765008D01*
X119360000Y-63126742D01*
X119485317Y-63103162D01*
X119701441Y-62964090D01*
X119846431Y-62751890D01*
X119897440Y-62500000D01*
X119897440Y-61960000D01*
X121343396Y-61960000D01*
X121290162Y-62088201D01*
X121290162Y-62088201D01*
G37*
X121290162Y-62088201D02*
X121290034Y-62235164D01*
X121012599Y-62512599D01*
X120847852Y-62759161D01*
X120790000Y-63050000D01*
X120790000Y-64050000D01*
X120801107Y-64105839D01*
X120496057Y-64231883D01*
X120263976Y-64463559D01*
X120143117Y-64171057D01*
X119880327Y-63907808D01*
X119536799Y-63765162D01*
X119360000Y-63765008D01*
X119360000Y-63126742D01*
X119485317Y-63103162D01*
X119701441Y-62964090D01*
X119846431Y-62751890D01*
X119897440Y-62500000D01*
X119897440Y-61960000D01*
X121343396Y-61960000D01*
X121290162Y-62088201D01*
G36*
X130314838Y-51360167D02*
X130456883Y-51703943D01*
X130483000Y-51730106D01*
X130483000Y-53144525D01*
X130457808Y-53169673D01*
X130315162Y-53513201D01*
X130314838Y-53885167D01*
X130456883Y-54228943D01*
X130483000Y-54255106D01*
X130483000Y-55402560D01*
X130243000Y-55402560D01*
X130094750Y-55430455D01*
X129957000Y-55402560D01*
X127957000Y-55402560D01*
X127808750Y-55430455D01*
X127671000Y-55402560D01*
X125671000Y-55402560D01*
X125522750Y-55430455D01*
X125385000Y-55402560D01*
X123385000Y-55402560D01*
X123149683Y-55446838D01*
X122933559Y-55585910D01*
X122788569Y-55798110D01*
X122737560Y-56050000D01*
X122737560Y-57165272D01*
X122605327Y-57032808D01*
X122261799Y-56890162D01*
X121889833Y-56889838D01*
X121546057Y-57031883D01*
X121282808Y-57294673D01*
X121140162Y-57638201D01*
X121139838Y-58010167D01*
X121199039Y-58153444D01*
X121115839Y-58097852D01*
X120825000Y-58040000D01*
X119332415Y-58040000D01*
X119392192Y-57980327D01*
X119441578Y-57861392D01*
X119485317Y-57853162D01*
X119701441Y-57714090D01*
X119846431Y-57501890D01*
X119897440Y-57250000D01*
X119897440Y-56550000D01*
X119853162Y-56314683D01*
X119714090Y-56098559D01*
X119501890Y-55953569D01*
X119488803Y-55950919D01*
X119701441Y-55814090D01*
X119846431Y-55601890D01*
X119897440Y-55350000D01*
X119897440Y-54650000D01*
X119853162Y-54414683D01*
X119714090Y-54198559D01*
X119501890Y-54053569D01*
X119250000Y-54002560D01*
X117950000Y-54002560D01*
X117714683Y-54046838D01*
X117498559Y-54185910D01*
X117435900Y-54277615D01*
X117334161Y-54297852D01*
X117087599Y-54462599D01*
X116287599Y-55262599D01*
X116122852Y-55509161D01*
X116065000Y-55800000D01*
X116065000Y-57462077D01*
X115896057Y-57531883D01*
X115632808Y-57794673D01*
X115490162Y-58138201D01*
X115489838Y-58510167D01*
X115631883Y-58853943D01*
X115894673Y-59117192D01*
X116238201Y-59259838D01*
X116610167Y-59260162D01*
X116882046Y-59147824D01*
X116956883Y-59328943D01*
X117219673Y-59592192D01*
X117353739Y-59647861D01*
X117353569Y-59648110D01*
X117302560Y-59900000D01*
X117302560Y-60440000D01*
X116364802Y-60440000D01*
X115297440Y-59372638D01*
X115297440Y-58800000D01*
X115253162Y-58564683D01*
X115114090Y-58348559D01*
X114901890Y-58203569D01*
X114650000Y-58152560D01*
X113950000Y-58152560D01*
X113714683Y-58196838D01*
X113498559Y-58335910D01*
X113353569Y-58548110D01*
X113350919Y-58561197D01*
X113214090Y-58348559D01*
X113001890Y-58203569D01*
X112750000Y-58152560D01*
X112050000Y-58152560D01*
X111814683Y-58196838D01*
X111598559Y-58335910D01*
X111453569Y-58548110D01*
X111402560Y-58800000D01*
X111402560Y-59190000D01*
X109917334Y-59190000D01*
X109903162Y-59114683D01*
X109764090Y-58898559D01*
X109666290Y-58831735D01*
X109838327Y-58659699D01*
X109935000Y-58426310D01*
X109935000Y-57985750D01*
X109776250Y-57827000D01*
X108827000Y-57827000D01*
X108827000Y-57847000D01*
X108573000Y-57847000D01*
X108573000Y-57827000D01*
X108553000Y-57827000D01*
X108553000Y-57573000D01*
X108573000Y-57573000D01*
X108573000Y-56623750D01*
X108827000Y-56623750D01*
X108827000Y-57573000D01*
X109776250Y-57573000D01*
X109935000Y-57414250D01*
X109935000Y-56973690D01*
X109838327Y-56740301D01*
X109659698Y-56561673D01*
X109426309Y-56465000D01*
X108985750Y-56465000D01*
X108827000Y-56623750D01*
X108573000Y-56623750D01*
X108414250Y-56465000D01*
X107973691Y-56465000D01*
X107740302Y-56561673D01*
X107599064Y-56702910D01*
X107564090Y-56648559D01*
X107351890Y-56503569D01*
X107260000Y-56484961D01*
X107260000Y-54389802D01*
X110614802Y-51035000D01*
X130315121Y-51035000D01*
X130314838Y-51360167D01*
X130314838Y-51360167D01*
G37*
X130314838Y-51360167D02*
X130456883Y-51703943D01*
X130483000Y-51730106D01*
X130483000Y-53144525D01*
X130457808Y-53169673D01*
X130315162Y-53513201D01*
X130314838Y-53885167D01*
X130456883Y-54228943D01*
X130483000Y-54255106D01*
X130483000Y-55402560D01*
X130243000Y-55402560D01*
X130094750Y-55430455D01*
X129957000Y-55402560D01*
X127957000Y-55402560D01*
X127808750Y-55430455D01*
X127671000Y-55402560D01*
X125671000Y-55402560D01*
X125522750Y-55430455D01*
X125385000Y-55402560D01*
X123385000Y-55402560D01*
X123149683Y-55446838D01*
X122933559Y-55585910D01*
X122788569Y-55798110D01*
X122737560Y-56050000D01*
X122737560Y-57165272D01*
X122605327Y-57032808D01*
X122261799Y-56890162D01*
X121889833Y-56889838D01*
X121546057Y-57031883D01*
X121282808Y-57294673D01*
X121140162Y-57638201D01*
X121139838Y-58010167D01*
X121199039Y-58153444D01*
X121115839Y-58097852D01*
X120825000Y-58040000D01*
X119332415Y-58040000D01*
X119392192Y-57980327D01*
X119441578Y-57861392D01*
X119485317Y-57853162D01*
X119701441Y-57714090D01*
X119846431Y-57501890D01*
X119897440Y-57250000D01*
X119897440Y-56550000D01*
X119853162Y-56314683D01*
X119714090Y-56098559D01*
X119501890Y-55953569D01*
X119488803Y-55950919D01*
X119701441Y-55814090D01*
X119846431Y-55601890D01*
X119897440Y-55350000D01*
X119897440Y-54650000D01*
X119853162Y-54414683D01*
X119714090Y-54198559D01*
X119501890Y-54053569D01*
X119250000Y-54002560D01*
X117950000Y-54002560D01*
X117714683Y-54046838D01*
X117498559Y-54185910D01*
X117435900Y-54277615D01*
X117334161Y-54297852D01*
X117087599Y-54462599D01*
X116287599Y-55262599D01*
X116122852Y-55509161D01*
X116065000Y-55800000D01*
X116065000Y-57462077D01*
X115896057Y-57531883D01*
X115632808Y-57794673D01*
X115490162Y-58138201D01*
X115489838Y-58510167D01*
X115631883Y-58853943D01*
X115894673Y-59117192D01*
X116238201Y-59259838D01*
X116610167Y-59260162D01*
X116882046Y-59147824D01*
X116956883Y-59328943D01*
X117219673Y-59592192D01*
X117353739Y-59647861D01*
X117353569Y-59648110D01*
X117302560Y-59900000D01*
X117302560Y-60440000D01*
X116364802Y-60440000D01*
X115297440Y-59372638D01*
X115297440Y-58800000D01*
X115253162Y-58564683D01*
X115114090Y-58348559D01*
X114901890Y-58203569D01*
X114650000Y-58152560D01*
X113950000Y-58152560D01*
X113714683Y-58196838D01*
X113498559Y-58335910D01*
X113353569Y-58548110D01*
X113350919Y-58561197D01*
X113214090Y-58348559D01*
X113001890Y-58203569D01*
X112750000Y-58152560D01*
X112050000Y-58152560D01*
X111814683Y-58196838D01*
X111598559Y-58335910D01*
X111453569Y-58548110D01*
X111402560Y-58800000D01*
X111402560Y-59190000D01*
X109917334Y-59190000D01*
X109903162Y-59114683D01*
X109764090Y-58898559D01*
X109666290Y-58831735D01*
X109838327Y-58659699D01*
X109935000Y-58426310D01*
X109935000Y-57985750D01*
X109776250Y-57827000D01*
X108827000Y-57827000D01*
X108827000Y-57847000D01*
X108573000Y-57847000D01*
X108573000Y-57827000D01*
X108553000Y-57827000D01*
X108553000Y-57573000D01*
X108573000Y-57573000D01*
X108573000Y-56623750D01*
X108827000Y-56623750D01*
X108827000Y-57573000D01*
X109776250Y-57573000D01*
X109935000Y-57414250D01*
X109935000Y-56973690D01*
X109838327Y-56740301D01*
X109659698Y-56561673D01*
X109426309Y-56465000D01*
X108985750Y-56465000D01*
X108827000Y-56623750D01*
X108573000Y-56623750D01*
X108414250Y-56465000D01*
X107973691Y-56465000D01*
X107740302Y-56561673D01*
X107599064Y-56702910D01*
X107564090Y-56648559D01*
X107351890Y-56503569D01*
X107260000Y-56484961D01*
X107260000Y-54389802D01*
X110614802Y-51035000D01*
X130315121Y-51035000D01*
X130314838Y-51360167D01*
M02*
