G04 #@! TF.FileFunction,Soldermask,Top*
%FSLAX46Y46*%
G04 Gerber Fmt 4.6, Leading zero omitted, Abs format (unit mm)*
G04 Created by KiCad (PCBNEW 4.0.2-stable) date 9/8/2017 3:08:38 PM*
%MOMM*%
G01*
G04 APERTURE LIST*
%ADD10C,0.100000*%
%ADD11O,2.552400X1.252400*%
%ADD12R,1.252400X2.552400*%
%ADD13O,1.252400X2.552400*%
%ADD14R,0.852400X1.452400*%
%ADD15R,0.402400X1.452400*%
%ADD16R,1.452400X0.402400*%
%ADD17R,1.452400X0.852400*%
%ADD18R,1.002400X0.402400*%
%ADD19R,0.402400X1.002400*%
%ADD20R,1.952400X1.152400*%
%ADD21R,1.402400X1.152400*%
%ADD22R,1.212400X0.802400*%
%ADD23R,1.652400X3.552400*%
%ADD24R,1.152400X3.652400*%
%ADD25R,2.052400X1.952400*%
%ADD26R,1.502400X0.552400*%
%ADD27R,1.752400X2.252400*%
%ADD28R,1.352400X1.352400*%
%ADD29R,1.152400X5.652400*%
%ADD30R,1.752400X3.152400*%
%ADD31O,1.879600X2.184400*%
%ADD32R,2.152400X2.152400*%
%ADD33C,1.652400*%
%ADD34C,0.952400*%
%ADD35R,1.852400X1.852400*%
%ADD36O,1.852400X1.852400*%
G04 APERTURE END LIST*
D10*
D11*
X147025000Y-63440000D03*
X147025000Y-65440000D03*
X147025000Y-67440000D03*
X147025000Y-69440000D03*
X147025000Y-71440000D03*
X147025000Y-73440000D03*
D12*
X162775000Y-60450000D03*
D13*
X160775000Y-60450000D03*
X158775000Y-60450000D03*
X156775000Y-60450000D03*
X154775000Y-60450000D03*
X152775000Y-60450000D03*
X150775000Y-60450000D03*
X148775000Y-60450000D03*
X148775000Y-76450000D03*
X150775000Y-76450000D03*
X152775000Y-76450000D03*
X154775000Y-76450000D03*
X156775000Y-76450000D03*
X158775000Y-76450000D03*
X160775000Y-76450000D03*
X162775000Y-76450000D03*
D14*
X152825000Y-80275000D03*
X154725000Y-80275000D03*
D15*
X130000000Y-61900000D03*
X129500000Y-61900000D03*
X129000000Y-61900000D03*
X128500000Y-61900000D03*
X128000000Y-61900000D03*
X127500000Y-61900000D03*
X127000000Y-61900000D03*
X126500000Y-61900000D03*
X126000000Y-61900000D03*
X125500000Y-61900000D03*
X125000000Y-61900000D03*
X124500000Y-61900000D03*
D16*
X122900000Y-63500000D03*
X122900000Y-64000000D03*
X122900000Y-64500000D03*
X122900000Y-65000000D03*
X122900000Y-65500000D03*
X122900000Y-66000000D03*
X122900000Y-66500000D03*
X122900000Y-67000000D03*
X122900000Y-67500000D03*
X122900000Y-68000000D03*
X122900000Y-68500000D03*
X122900000Y-69000000D03*
D15*
X124500000Y-70600000D03*
X125000000Y-70600000D03*
X125500000Y-70600000D03*
X126000000Y-70600000D03*
X126500000Y-70600000D03*
X127000000Y-70600000D03*
X127500000Y-70600000D03*
X128000000Y-70600000D03*
X128500000Y-70600000D03*
X129000000Y-70600000D03*
X129500000Y-70600000D03*
X130000000Y-70600000D03*
D16*
X131600000Y-69000000D03*
X131600000Y-68500000D03*
X131600000Y-68000000D03*
X131600000Y-67500000D03*
X131600000Y-67000000D03*
X131600000Y-66500000D03*
X131600000Y-66000000D03*
X131600000Y-65500000D03*
X131600000Y-65000000D03*
X131600000Y-64500000D03*
X131600000Y-64000000D03*
X131600000Y-63500000D03*
D17*
X134500000Y-62800000D03*
X134500000Y-64700000D03*
X117500000Y-67050000D03*
X117500000Y-68950000D03*
X143500000Y-52550000D03*
X143500000Y-54450000D03*
X140250000Y-52550000D03*
X140250000Y-54450000D03*
D14*
X146550000Y-83500000D03*
X148450000Y-83500000D03*
X152700000Y-83500000D03*
X150800000Y-83500000D03*
D17*
X119438000Y-71490000D03*
X119438000Y-73390000D03*
X113250000Y-72450000D03*
X113250000Y-70550000D03*
D14*
X159575000Y-83575000D03*
X161475000Y-83575000D03*
D17*
X135250000Y-75200000D03*
X135250000Y-73300000D03*
X137500000Y-75200000D03*
X137500000Y-73300000D03*
D14*
X149100000Y-80275000D03*
X151000000Y-80275000D03*
X155550000Y-83500000D03*
X157450000Y-83500000D03*
X144450000Y-78650000D03*
X146350000Y-78650000D03*
D18*
X135525000Y-68000000D03*
X135525000Y-68500000D03*
X135525000Y-69000000D03*
X135525000Y-69500000D03*
X135525000Y-70000000D03*
D19*
X136500000Y-70475000D03*
X137000000Y-70475000D03*
X137500000Y-70475000D03*
D18*
X138475000Y-70000000D03*
X138475000Y-69500000D03*
X138475000Y-69000000D03*
X138475000Y-68500000D03*
X138475000Y-68000000D03*
D19*
X137500000Y-67525000D03*
X137000000Y-67525000D03*
X136500000Y-67525000D03*
D20*
X135250000Y-60000000D03*
X135250000Y-57500000D03*
D21*
X116390000Y-77504000D03*
X116390000Y-75504000D03*
D17*
X119850000Y-83650000D03*
X119850000Y-81750000D03*
D22*
X122750000Y-81750000D03*
X122750000Y-82700000D03*
X122750000Y-83650000D03*
X124950000Y-83650000D03*
X124950000Y-81750000D03*
D23*
X127100000Y-94450000D03*
D24*
X124750000Y-88900000D03*
X122750000Y-88900000D03*
D23*
X120400000Y-94450000D03*
D21*
X113342000Y-61534000D03*
X113342000Y-63534000D03*
D25*
X106485000Y-70731500D03*
X106485000Y-63131500D03*
X106485000Y-68081500D03*
D26*
X109160000Y-68231500D03*
X109160000Y-67581500D03*
X109160000Y-66931500D03*
X109160000Y-66281500D03*
X109160000Y-65631500D03*
D27*
X109035000Y-63831500D03*
X109035000Y-70031500D03*
D25*
X106485000Y-65781500D03*
D21*
X119438000Y-75250000D03*
X119438000Y-77250000D03*
X116390000Y-73440000D03*
X116390000Y-71440000D03*
D28*
X108700000Y-57700000D03*
X106500000Y-57700000D03*
X108700000Y-73450000D03*
X106500000Y-73450000D03*
X108700000Y-59950000D03*
X106500000Y-59950000D03*
D29*
X164100000Y-91825000D03*
X162100000Y-91825000D03*
X160100000Y-91825000D03*
X158100000Y-91825000D03*
X156100000Y-91825000D03*
D30*
X166500000Y-94075000D03*
X153700000Y-94075000D03*
D17*
X118600000Y-60250000D03*
X118600000Y-62150000D03*
X118600000Y-55000000D03*
X118600000Y-56900000D03*
D14*
X112400000Y-59450000D03*
X114300000Y-59450000D03*
D17*
X130600000Y-77150000D03*
X130600000Y-75250000D03*
X132850000Y-77150000D03*
X132850000Y-75250000D03*
D22*
X114600000Y-67950000D03*
X114600000Y-67000000D03*
X114600000Y-66050000D03*
X112400000Y-66050000D03*
X112400000Y-67950000D03*
D31*
X133110000Y-96070000D03*
X135650000Y-96070000D03*
X138190000Y-96070000D03*
X140730000Y-96070000D03*
X143270000Y-96070000D03*
X145810000Y-96070000D03*
X148350000Y-96070000D03*
X148350000Y-93530000D03*
X145810000Y-93530000D03*
X143270000Y-93530000D03*
X140730000Y-93530000D03*
X138190000Y-93530000D03*
X135650000Y-93530000D03*
X133110000Y-93530000D03*
X133110000Y-90990000D03*
X135650000Y-90990000D03*
X138190000Y-90990000D03*
X140730000Y-90990000D03*
X143270000Y-90990000D03*
X145810000Y-90990000D03*
X148350000Y-90990000D03*
D32*
X124385000Y-57050000D03*
X126671000Y-57050000D03*
X128957000Y-57050000D03*
X131243000Y-57050000D03*
D21*
X144125000Y-58075000D03*
X144125000Y-60075000D03*
D33*
X106225000Y-75700000D03*
X106225000Y-87700000D03*
X112225000Y-87700000D03*
X112225000Y-75700000D03*
D34*
X110475000Y-85700000D03*
X110475000Y-81700000D03*
X110475000Y-77700000D03*
D29*
X153750000Y-54800000D03*
X155750000Y-54800000D03*
X157750000Y-54800000D03*
X159750000Y-54800000D03*
X161750000Y-54800000D03*
X163750000Y-54800000D03*
D30*
X151350000Y-52550000D03*
X166150000Y-52550000D03*
D35*
X169375000Y-79125000D03*
D36*
X169375000Y-81665000D03*
X169375000Y-84205000D03*
X169375000Y-86745000D03*
M02*
