G04 #@! TF.FileFunction,Soldermask,Bot*
%FSLAX46Y46*%
G04 Gerber Fmt 4.6, Leading zero omitted, Abs format (unit mm)*
G04 Created by KiCad (PCBNEW 4.0.2-stable) date 9/8/2017 3:08:38 PM*
%MOMM*%
G01*
G04 APERTURE LIST*
%ADD10C,0.100000*%
%ADD11R,4.152400X0.552400*%
%ADD12O,1.879600X2.184400*%
%ADD13C,1.652400*%
%ADD14C,0.952400*%
%ADD15R,1.852400X1.852400*%
%ADD16O,1.852400X1.852400*%
G04 APERTURE END LIST*
D10*
D11*
X156150000Y-67775000D03*
X156150000Y-68575000D03*
X156150000Y-69375000D03*
X156150000Y-70175000D03*
X156150000Y-70975000D03*
X156150000Y-71775000D03*
X156150000Y-72575000D03*
X156150000Y-73375000D03*
X156150000Y-74175000D03*
X156150000Y-74975000D03*
X156150000Y-75775000D03*
X156150000Y-76575000D03*
X156150000Y-77375000D03*
X156150000Y-78175000D03*
X156150000Y-78975000D03*
X156150000Y-79775000D03*
X156150000Y-80575000D03*
X156150000Y-81375000D03*
D12*
X133110000Y-96070000D03*
X135650000Y-96070000D03*
X138190000Y-96070000D03*
X140730000Y-96070000D03*
X143270000Y-96070000D03*
X145810000Y-96070000D03*
X148350000Y-96070000D03*
X148350000Y-93530000D03*
X145810000Y-93530000D03*
X143270000Y-93530000D03*
X140730000Y-93530000D03*
X138190000Y-93530000D03*
X135650000Y-93530000D03*
X133110000Y-93530000D03*
X133110000Y-90990000D03*
X135650000Y-90990000D03*
X138190000Y-90990000D03*
X140730000Y-90990000D03*
X143270000Y-90990000D03*
X145810000Y-90990000D03*
X148350000Y-90990000D03*
D13*
X106225000Y-75700000D03*
X106225000Y-87700000D03*
X112225000Y-87700000D03*
X112225000Y-75700000D03*
D14*
X110475000Y-85700000D03*
X110475000Y-81700000D03*
X110475000Y-77700000D03*
D15*
X169375000Y-79125000D03*
D16*
X169375000Y-81665000D03*
X169375000Y-84205000D03*
X169375000Y-86745000D03*
M02*
